<svg width="20" height="26" viewBox="0 0 20 26" fill="none" xmlns="http://www.w3.org/2000/svg">
<path d="M14.8945 0C15.0043 1.68255 14.4857 3.03732 13.7207 4.03106C12.5952 5.49261 10.9366 6.17397 9.95846 5.97135C9.77448 4.8038 10.2307 3.31344 11.1586 2.11212C12.0325 0.980823 13.3246 0.106277 14.8945 0ZM10.1687 7.47164C11.2848 7.47164 12.4934 6.27478 14.4834 6.27478C15.3803 6.27478 17.9509 6.56183 19.3683 8.86813C18.8051 9.29969 16.7249 10.6853 16.7249 13.8383C16.7249 17.5535 19.5687 18.8392 20 19.0746C19.8446 19.6885 19.0946 21.8175 17.8302 23.4846C17.4388 24.0006 16.2631 25.9811 14.5078 25.9811C12.9134 25.9811 12.307 24.9372 10.4677 24.9372C8.37256 24.9372 8.27212 26 6.23425 26C5.80621 26 5.17823 25.7954 4.68073 25.332C2.91367 23.6858 0 19.4307 0 14.1238C0 8.88005 3.28679 6.36268 6.16901 6.36268C7.9816 6.36219 9.01556 7.47164 10.1687 7.47164Z" fill="#434343"/>
</svg>
