<svg width="162" height="48" viewBox="0 0 162 48" fill="none" xmlns="http://www.w3.org/2000/svg">
<path d="M64.7075 15.2974C67.6951 15.2974 69.189 16.4925 69.189 18.8826C69.189 21.1079 67.8188 22.2308 65.0784 22.2514H60.7771L68.849 33.7179H73.0214L67.2418 25.2803C68.9726 24.9918 70.3119 24.3325 71.2597 23.3023C72.3312 22.2102 72.8669 20.737 72.8669 18.8826C72.8669 16.8015 72.2178 15.1429 70.9197 13.9066C69.6011 12.6909 67.8188 12.0831 65.5729 12.0831H51.2012V33.7179H54.7864V15.2974" fill="white"/>
<path d="M86.0642 11.7122C82.5821 11.7122 79.718 12.8969 77.4721 15.2665C75.5353 17.3269 74.5669 19.8613 74.5669 22.8695C74.5669 25.8778 75.5353 28.371 77.4721 30.4726C79.6974 32.8215 82.5615 33.996 86.0642 33.996C89.567 33.996 92.4414 32.8318 94.6254 30.5035C96.5829 28.4431 97.5616 25.8984 97.5616 22.8695C97.5616 19.8407 96.5932 17.296 94.6564 15.2355C92.4311 12.8866 89.567 11.7122 86.0642 11.7122ZM91.782 28.6182C90.3603 30.0605 88.4544 30.7817 86.0642 30.7817C83.6741 30.7817 81.8094 30.0502 80.3465 28.5873C78.8217 27.1038 78.0594 25.1979 78.0594 22.8695C78.0594 20.7267 78.729 18.9238 80.0683 17.4608C81.5931 15.7919 83.5917 14.9574 86.0642 14.9574C88.5368 14.9574 90.3397 15.6785 91.782 17.1209C93.2861 18.5426 94.0382 20.4588 94.0382 22.8695C94.0382 25.2803 93.2861 27.1965 91.782 28.6182Z" fill="white"/>
<path d="M122.38 22.5605C124.255 21.5097 125.192 19.9849 125.192 17.9863C125.192 16.1937 124.564 14.7617 123.307 13.6902C122.05 12.6188 120.33 12.0831 118.146 12.0831H100.652V31.5338H104.238V24.3531H118.486C121.102 24.3531 122.411 25.4142 122.411 27.5365C122.411 29.5145 120.917 30.5036 117.929 30.5036L100.652 30.4727V33.7179H117.898C123.359 33.7179 126.089 31.8223 126.089 28.031C126.089 25.2082 124.852 23.3847 122.38 22.5605ZM120.68 20.2734C120.041 20.8503 119.217 21.1388 118.207 21.1388H104.238V15.2974H118.331C119.341 15.2974 120.165 15.5652 120.804 16.101C121.401 16.6367 121.7 17.3372 121.7 18.2026C121.7 19.068 121.36 19.7171 120.68 20.2734Z" fill="white"/>
<path d="M132.764 17.8265H129.179V33.7487H132.764V17.8265Z" fill="white"/>
<path d="M157.428 12.0831V29.8236L140.027 12.114V16.8427L156.532 33.7179H161.013V12.0831H157.428Z" fill="white"/>
<path d="M140.028 12.0831H136.442V33.7179H140.028V12.0831Z" fill="white"/>
<path d="M132.764 12.0831H129.179V16.9715H132.764V12.0831Z" fill="#E27600"/>
<path d="M56.5537 39.7911V41.6712C56.5537 41.9185 56.5434 42.1297 56.5228 42.3048C56.5022 42.48 56.461 42.6706 56.394 42.8663C56.2601 43.2681 55.9767 43.5514 55.5389 43.7214L56.6567 45.5707H55.8171L54.4056 43.1548L53.7257 42.1348C53.6072 42.1812 53.5196 42.2224 53.4681 42.2688C53.1848 42.5006 53.0406 42.8869 53.0406 43.4278V45.5758H52.2988V43.6956C52.2988 43.0414 52.3967 42.5572 52.5924 42.2379C52.6697 42.1091 52.7779 41.9906 52.917 41.8773C53.056 41.764 53.2209 41.6764 53.4166 41.6094L52.304 39.7911H53.1488L54.4778 42.0267L55.2247 43.1857C55.3792 43.0981 55.4874 43.0054 55.5647 42.9075C55.6419 42.8096 55.6986 42.6809 55.7501 42.516C55.8016 42.3512 55.8222 42.1554 55.8222 41.9339V39.7859H56.564L56.5537 39.7911Z" fill="white"/>
<path d="M57.8261 45.6375C57.6921 45.6375 57.5428 45.6169 57.3779 45.5757V44.9627C57.5943 44.9936 57.7179 45.0091 57.7385 45.0091C58.1661 45.0091 58.3773 44.7567 58.3773 44.2467V40.4245L57.7437 40.4812V39.8476C58.5781 39.7497 59.3045 39.7034 59.9329 39.7034C60.4635 39.7034 60.9116 39.7909 61.2773 39.9609C61.6585 40.1412 61.9212 40.4297 62.0655 40.8315C62.1376 41.0427 62.1788 41.2796 62.1788 41.5423V45.5757H61.4319V41.532C61.4319 40.7336 60.8962 40.337 59.8299 40.337C59.6959 40.337 59.4641 40.3473 59.1242 40.3627V44.1437C59.1242 44.6176 59.016 44.9833 58.7996 45.246C58.5833 45.5087 58.2588 45.6426 57.8209 45.6426L57.8261 45.6375Z" fill="white"/>
<path d="M64.4706 40.3061C64.3109 40.3061 64.1255 40.3319 63.9246 40.3885V39.8013C64.1616 39.7395 64.4294 39.7086 64.7282 39.7086C65.6605 39.7086 66.1293 40.2237 66.1293 41.2436V44.1643C66.1293 44.4064 66.1138 44.6434 66.0881 44.8803C66.0623 45.1173 66.0314 45.2924 66.0005 45.4057L65.9542 45.5757H63.291V44.9988H65.2897C65.3515 44.7721 65.3772 44.4991 65.3772 44.1643V41.3054C65.3772 40.9448 65.3 40.6873 65.1454 40.5276C65.0012 40.3834 64.7797 40.3061 64.4706 40.3061Z" fill="white"/>
<path d="M67.6751 39.7652C67.8966 39.724 68.1284 39.7034 68.3808 39.7034C68.6332 39.7034 68.865 39.7343 69.0762 39.791C69.2874 39.8476 69.4677 39.93 69.6171 40.033C69.7664 40.1361 69.8952 40.2546 70.0137 40.3936C70.1322 40.5327 70.2197 40.6769 70.2919 40.8263C70.364 40.9757 70.4206 41.1302 70.467 41.3002C70.5494 41.5887 70.5855 41.8823 70.5855 42.1914V43.1753C70.5855 43.3555 70.57 43.5461 70.534 43.7573C70.4979 43.9685 70.4567 44.1437 70.4052 44.293C70.3537 44.4424 70.2712 44.6021 70.1579 44.7824C70.0446 44.9627 69.9158 45.1121 69.7613 45.2357C69.6068 45.3593 69.411 45.4624 69.1689 45.5448C68.9268 45.6272 68.6641 45.6736 68.3911 45.6736C68.1181 45.6736 67.8811 45.6581 67.6699 45.6323C67.4587 45.6066 67.3145 45.5757 67.2269 45.5448L67.1033 45.5036V44.8288C67.4948 44.9524 67.9223 45.0194 68.3911 45.0194C68.5714 45.0194 68.7362 44.9936 68.8856 44.9421C69.035 44.8906 69.1586 44.8236 69.2513 44.7412C69.344 44.6588 69.4368 44.5609 69.5089 44.4476C69.581 44.3343 69.6428 44.2158 69.6789 44.1076C69.7149 43.9994 69.751 43.881 69.7716 43.7522C69.8128 43.5616 69.8282 43.3658 69.8282 43.1598V42.2789C69.8282 41.8978 69.787 41.5835 69.7046 41.3311C69.6686 41.223 69.6119 41.1045 69.5398 40.9757C69.4677 40.8469 69.3801 40.7439 69.2822 40.6615C69.1844 40.5791 69.0556 40.507 68.901 40.4503C68.7465 40.3936 68.5559 40.3627 68.3344 40.3627C68.1129 40.3627 67.8966 40.3833 67.6854 40.4194C67.4742 40.4554 67.3248 40.4967 67.2321 40.5327L67.0981 40.5894V39.9249C67.1291 39.9094 67.1806 39.8837 67.2424 39.8631C67.3042 39.8425 67.4484 39.8064 67.6648 39.7652H67.6751Z" fill="white"/>
<path d="M73.9745 44.9989C74.5824 44.9989 75.0923 44.7774 75.4941 44.3395C75.8959 43.9017 76.1432 43.2269 76.2256 42.3203L76.4522 39.8014H77.194L76.9725 42.3203C76.9416 42.7066 76.8798 43.0518 76.787 43.3557C76.6943 43.6596 76.5965 43.9017 76.4986 44.0923C76.4007 44.2829 76.2668 44.4735 76.1071 44.6589C75.9474 44.8444 75.762 45.0092 75.5559 45.138C75.3499 45.2667 75.1026 45.3749 74.809 45.4573C74.5154 45.5398 74.1909 45.581 73.8406 45.581H71.9244L71.4453 39.7962H72.1974L72.4652 43.026L73.0628 42.8303C73.5212 42.6809 73.7891 42.2636 73.856 41.5837L74.0312 39.7962H74.773L74.6236 41.3158C74.603 41.5167 74.5772 41.7022 74.5412 41.867C74.5051 42.0318 74.4536 42.2018 74.3815 42.377C74.3093 42.5521 74.2166 42.7066 74.1085 42.8406C74.0003 42.9745 73.8612 43.093 73.6912 43.2011C73.5212 43.3093 73.3152 43.3969 73.0885 43.4535L72.5064 43.6081L72.6249 45.004H73.9591L73.9745 44.9989Z" fill="white"/>
<path d="M80.7227 39.7034C81.2893 39.7034 81.7117 39.8734 81.995 40.2133C82.2784 40.5533 82.4174 41.0221 82.4174 41.6196V45.5757H80.4446V44.9988H81.6705V41.6557C81.6705 40.7748 81.2687 40.3318 80.46 40.3318C80.3209 40.3318 80.1818 40.3576 80.0479 40.4039C79.914 40.4503 79.7955 40.5121 79.7028 40.5791C79.507 40.7336 79.368 40.8624 79.2855 40.9757L79.234 41.0478L78.8065 45.5757H78.0596L78.482 41.1302V41.0324C78.482 40.9809 78.4614 40.8418 78.4202 40.6203C78.3789 40.3988 78.3274 40.2185 78.2656 40.0743L78.1471 39.7961H78.8941C78.9765 39.93 79.0434 40.1361 79.1001 40.4039H79.131C79.2855 40.2185 79.471 40.064 79.6925 39.9455C79.8058 39.8837 79.9552 39.8322 80.1406 39.7806C80.3261 39.7291 80.5218 39.7034 80.7227 39.7034Z" fill="white"/>
<path d="M86.2085 45.5757V39.8219C86.7339 39.7394 87.3933 39.7034 88.1917 39.7034C89.6907 39.7034 90.4376 40.2288 90.4376 41.2796V45.5757H86.2085ZM89.6907 44.9988V41.3878C89.6907 41.1972 89.6598 41.0375 89.5979 40.9036C89.5361 40.7697 89.4589 40.6666 89.361 40.5945C89.2631 40.5224 89.1446 40.4658 88.9901 40.4245C88.8356 40.3833 88.6965 40.3576 88.5626 40.3473C88.4286 40.337 88.2793 40.3318 88.1041 40.3318C87.7384 40.3318 87.4087 40.3421 87.1151 40.3679L86.9503 40.3833V44.9936H89.6907V44.9988Z" fill="white"/>
<path d="M91.9929 39.7652C92.2144 39.724 92.4462 39.7034 92.6986 39.7034C92.9511 39.7034 93.1829 39.7343 93.3941 39.791C93.6053 39.8476 93.7855 39.93 93.9349 40.033C94.0843 40.1361 94.2131 40.2546 94.3316 40.3936C94.45 40.5327 94.5376 40.6769 94.6097 40.8263C94.6818 40.9757 94.7385 41.1302 94.7849 41.3002C94.8673 41.5887 94.9033 41.8823 94.9033 42.1914V43.1753C94.9033 43.3555 94.8879 43.5461 94.8518 43.7573C94.8158 43.9685 94.7746 44.1437 94.723 44.293C94.6715 44.4424 94.5891 44.6021 94.4758 44.7824C94.3625 44.9627 94.2337 45.1121 94.0792 45.2357C93.9246 45.3593 93.7289 45.4624 93.4868 45.5448C93.2447 45.6272 92.982 45.6736 92.709 45.6736C92.4359 45.6736 92.199 45.6581 91.9878 45.6323C91.7766 45.6066 91.6324 45.5757 91.5448 45.5448L91.4212 45.5036V44.8288C91.8127 44.9524 92.2402 45.0194 92.709 45.0194C92.8892 45.0194 93.0541 44.9936 93.2035 44.9421C93.3528 44.8906 93.4765 44.8236 93.5692 44.7412C93.6619 44.6588 93.7546 44.5609 93.8268 44.4476C93.8989 44.3343 93.9607 44.2158 93.9967 44.1076C94.0328 43.9994 94.0689 43.881 94.0895 43.7522C94.1307 43.5616 94.1461 43.3658 94.1461 43.1598V42.2789C94.1461 41.8978 94.1049 41.5835 94.0225 41.3311C93.9864 41.223 93.9298 41.1045 93.8577 40.9757C93.7855 40.8469 93.698 40.7439 93.6001 40.6615C93.5022 40.5791 93.3735 40.507 93.2189 40.4503C93.0644 40.3936 92.8738 40.3627 92.6523 40.3627C92.4308 40.3627 92.2144 40.3833 92.0032 40.4194C91.792 40.4554 91.6427 40.4967 91.5499 40.5327L91.416 40.5894V39.9249C91.4469 39.9094 91.4984 39.8837 91.5602 39.8631C91.6221 39.8425 91.7663 39.8064 91.9826 39.7652H91.9929Z" fill="white"/>
<path d="M96.3719 39.791H99.4162V40.3679L98.6384 43.3247L98.1697 45.5706H97.4176L97.8864 43.3247L98.6693 40.3679H95.625V38.6062H96.3668V39.791H96.3719Z" fill="white"/>
<path d="M103.568 40.3061C103.409 40.3061 103.223 40.3319 103.022 40.3885V39.8013C103.259 39.7395 103.527 39.7086 103.826 39.7086C104.758 39.7086 105.227 40.2237 105.227 41.2436V45.5809H104.614L104.526 44.6022H104.49C104.475 44.6382 104.439 44.7 104.387 44.7927C104.331 44.8803 104.279 44.9627 104.222 45.0297C104.166 45.0967 104.099 45.1688 104.011 45.2512C103.924 45.3336 103.836 45.4006 103.738 45.4624C103.64 45.5242 103.532 45.5706 103.409 45.6118C103.28 45.653 103.151 45.6736 103.017 45.6736C102.734 45.6736 102.528 45.653 102.389 45.6169L102.497 44.937C102.62 44.9782 102.827 44.9936 103.11 44.9936C103.321 44.9936 103.543 44.9061 103.779 44.7361C104.058 44.5249 104.259 44.2416 104.382 43.8861C104.449 43.6801 104.485 43.4535 104.485 43.2113V41.3157C104.485 40.9551 104.408 40.6924 104.248 40.5379C104.104 40.3937 103.877 40.3164 103.573 40.3164L103.568 40.3061Z" fill="white"/>
<path d="M106.571 43.6235V39.7962H107.313V42.8612L106.72 43.6235H106.566H106.571Z" fill="white"/>
<path d="M110.918 44.9989C111.526 44.9989 112.036 44.7774 112.438 44.3395C112.845 43.9017 113.087 43.2269 113.169 42.3203L113.396 39.8014H114.138L113.916 42.3203C113.885 42.7066 113.824 43.0518 113.731 43.3557C113.638 43.6544 113.54 43.9017 113.442 44.0923C113.345 44.2829 113.211 44.4735 113.051 44.6589C112.886 44.8495 112.706 45.0092 112.5 45.138C112.294 45.2719 112.046 45.3749 111.753 45.4573C111.459 45.5398 111.135 45.581 110.784 45.581H108.868L108.389 39.7962H109.141L109.409 43.026L110.007 42.8303C110.465 42.6809 110.733 42.2636 110.8 41.5837L110.975 39.7962H111.717L111.567 41.3158C111.547 41.5167 111.521 41.7022 111.485 41.867C111.454 42.0318 111.397 42.2018 111.325 42.377C111.248 42.5521 111.16 42.7066 111.052 42.8406C110.944 42.9745 110.805 43.093 110.635 43.2011C110.46 43.3093 110.259 43.3969 110.032 43.4535L109.45 43.6081L109.569 45.004H110.903L110.918 44.9989Z" fill="white"/>
<path d="M119.377 40.8264C119.449 41.0376 119.49 41.2745 119.49 41.5372V45.5706H118.749V41.5269C118.749 40.7285 118.213 40.3318 117.141 40.3318C116.667 40.3318 116.147 40.3473 115.575 40.3834L115.261 40.3988V39.7652C115.957 39.7189 116.595 39.6983 117.172 39.6983C117.749 39.6983 118.228 39.7858 118.599 39.961C118.97 40.1361 119.233 40.4246 119.377 40.8264ZM116.008 45.5757H115.266V41.8875H116.008V45.5757Z" fill="white"/>
<path d="M121.242 39.791H124.286V40.3679L123.508 43.3247L123.039 45.5706H122.287L122.756 43.3247L123.539 40.3679H120.495V38.6062H121.236V39.791H121.242Z" fill="white"/>
<path d="M127.577 41.5528C127.577 40.9655 127.474 40.3835 127.263 39.8065H128.005C128.031 39.8632 128.056 39.9456 128.093 40.0486C128.129 40.1517 128.175 40.3577 128.232 40.6616C128.288 40.9655 128.319 41.2643 128.319 41.5579V47.7908H127.577V41.5579V41.5528Z" fill="white"/>
<path d="M129.669 43.6235V39.7962H130.411V42.8612L129.819 43.6235H129.664H129.669Z" fill="white"/>
<path d="M131.502 39.7703C131.981 39.724 132.543 39.7034 133.182 39.7034C133.82 39.7034 134.3 39.8425 134.609 40.1206C134.918 40.3988 135.072 40.8727 135.072 41.5372V44.9936H135.732V45.5705H131.502V44.9936H134.325V41.5269C134.325 41.0684 134.222 40.7542 134.016 40.5842C133.81 40.4142 133.486 40.3318 133.053 40.3318C132.589 40.3318 132.146 40.3473 131.729 40.3833L131.502 40.3988V39.7652V39.7703Z" fill="white"/>
<path d="M137.406 45.5758H136.664V39.791H137.406V45.5758Z" fill="white"/>
<path d="M138.312 39.7343C138.73 39.7137 139.106 39.7034 139.435 39.7034C139.765 39.7034 140.043 39.724 140.265 39.7652C140.486 39.8064 140.687 39.8682 140.883 39.9609C141.074 40.0485 141.233 40.167 141.367 40.3061C141.645 40.61 141.784 41.0221 141.784 41.5423V45.5757H141.043V41.532C141.043 40.7336 140.507 40.337 139.435 40.337C139.111 40.337 138.74 40.3473 138.312 40.3679V39.7343Z" fill="white"/>
<path d="M143.525 39.791H146.57V40.3679L145.792 43.3247L145.323 45.5706H144.571L145.04 43.3247L145.823 40.3679H142.778V38.6062H143.52V39.791H143.525Z" fill="white"/>
<path d="M150.686 45.5758H149.944V39.791H150.686V45.5758Z" fill="white"/>
<path d="M152.999 40.3061C152.839 40.3061 152.654 40.3319 152.453 40.3885V39.8013C152.69 39.7395 152.958 39.7086 153.257 39.7086C154.189 39.7086 154.658 40.2237 154.658 41.2436V44.1643C154.658 44.4064 154.642 44.6434 154.616 44.8803C154.591 45.1173 154.56 45.2924 154.529 45.4057L154.482 45.5757H151.819V44.9988H153.818C153.88 44.7721 153.906 44.4991 153.906 44.1643V41.3054C153.906 40.9448 153.828 40.6873 153.674 40.5276C153.53 40.3834 153.308 40.3061 152.999 40.3061Z" fill="white"/>
<path d="M156.104 45.6375C155.976 45.6375 155.821 45.6169 155.656 45.5757V44.9627C155.873 44.9936 155.996 45.0091 156.017 45.0091C156.444 45.0091 156.656 44.7567 156.656 44.2467V40.4245L156.022 40.4812V39.8476C156.856 39.7497 157.583 39.7034 158.211 39.7034C158.742 39.7034 159.19 39.7909 159.556 39.9609C159.937 40.1412 160.2 40.4297 160.344 40.8315C160.421 41.0427 160.457 41.2796 160.457 41.5423V45.5757H159.71V41.532C159.71 40.7336 159.174 40.337 158.108 40.337C157.979 40.337 157.742 40.3473 157.402 40.3627V44.1437C157.402 44.6176 157.294 44.9833 157.078 45.246C156.862 45.5087 156.537 45.6426 156.099 45.6426L156.104 45.6375Z" fill="white"/>
<path d="M34.7651 17.2203C31.1232 18.9717 27.4814 18.2763 27.4814 18.2763C27.4814 18.2763 34.1057 16.1694 35.3162 12.4606C36.7122 8.20062 36.0683 4.67209 34.1418 0C31.1181 9.62234 17.8127 10.735 12.7182 16.5764C10.4723 19.152 9.53477 22.7526 9.25661 24.128C8.70543 23.0977 8.44273 21.8666 8.80846 20.45C5.68171 24.401 3.37915 28.048 1.83381 37.3046C10.4465 22.5466 18.9768 20.3985 25.9463 13.4754C21.9181 17.926 17.416 21.4185 12.44 26.3584C7.49492 31.3602 2.01925 39.3702 0 45.5773C1.45777 43.352 3.56974 40.9773 6.45438 38.4481C9.34417 35.9189 15.0722 40.0965 23.5253 33.7761C19.3322 35.3317 16.1231 34.7342 13.8772 34.3221C23.5253 33.776 33.5855 27.3577 34.7496 17.2203H34.7651Z" fill="#E27600"/>
</svg>
