<svg width="242" height="72" viewBox="0 0 242 72" fill="none" xmlns="http://www.w3.org/2000/svg">
<path d="M97.2031 22.9799C101.691 22.9799 103.935 24.7751 103.935 28.3655C103.935 31.7083 101.877 33.3952 97.7602 33.4262H91.299L103.424 50.651H109.692L101.01 37.9761C103.61 37.5428 105.622 36.5523 107.046 35.0047C108.655 33.3643 109.46 31.1512 109.46 28.3655C109.46 25.2394 108.485 22.7477 106.535 20.8906C104.554 19.0645 101.877 18.1514 98.5031 18.1514H76.9141V50.651H82.2997V22.9799" fill="#27450E"/>
<path d="M129.285 17.5938C124.054 17.5938 119.752 19.3735 116.378 22.933C113.468 26.0282 112.014 29.8353 112.014 34.3543C112.014 38.8732 113.468 42.6184 116.378 45.7755C119.721 49.3041 124.023 51.0683 129.285 51.0683C134.547 51.0683 138.865 49.3195 142.145 45.822C145.086 42.7268 146.556 38.9042 146.556 34.3543C146.556 29.8043 145.101 25.9817 142.192 22.8865C138.849 19.358 134.547 17.5938 129.285 17.5938ZM137.874 42.9899C135.738 45.1565 132.875 46.2398 129.285 46.2398C125.694 46.2398 122.893 45.141 120.696 42.9434C118.405 40.7149 117.26 37.8518 117.26 34.3543C117.26 31.1352 118.266 28.4269 120.278 26.2294C122.568 23.7222 125.571 22.4687 129.285 22.4687C132.999 22.4687 135.707 23.552 137.874 25.7186C140.134 27.8543 141.263 30.7329 141.263 34.3543C141.263 37.9756 140.134 40.8542 137.874 42.9899Z" fill="#27450E"/>
<path d="M183.838 33.8905C186.655 32.3119 188.063 30.0215 188.063 27.0191C188.063 24.3263 187.119 22.1751 185.231 20.5656C183.343 18.9561 180.758 18.1514 177.477 18.1514H151.199V47.37H156.585V36.5833H177.988C181.919 36.5833 183.885 38.1773 183.885 41.3654C183.885 44.3368 181.64 45.8224 177.152 45.8224L151.199 45.776V50.651H177.106C185.308 50.651 189.409 47.8034 189.409 42.1082C189.409 37.8678 187.552 35.1285 183.838 33.8905ZM181.285 30.4548C180.325 31.3214 179.087 31.7548 177.57 31.7548H156.585V22.9799H177.756C179.273 22.9799 180.511 23.3823 181.47 24.187C182.368 24.9918 182.817 26.0441 182.817 27.3441C182.817 28.6441 182.306 29.6191 181.285 30.4548Z" fill="#27450E"/>
<path d="M199.436 26.7793H194.051V50.6974H199.436V26.7793Z" fill="#27450E"/>
<path d="M236.487 18.1514V44.801L210.348 18.1978V25.3013L235.14 50.651H241.872V18.1514H236.487Z" fill="#27450E"/>
<path d="M210.349 18.1514H204.963V50.651H210.349V18.1514Z" fill="#27450E"/>
<path d="M199.436 18.1514H194.051V25.4947H199.436V18.1514Z" fill="#E27600"/>
<path d="M84.9541 59.7734V62.5977C84.9541 62.9692 84.9386 63.2864 84.9077 63.5495C84.8767 63.8126 84.8148 64.0989 84.7142 64.3929C84.513 64.9965 84.0874 65.4221 83.4297 65.6775L85.1088 68.4554H83.8476L81.7273 64.8263L80.7059 63.2941C80.528 63.3638 80.3964 63.4257 80.319 63.4953C79.8934 63.8436 79.6768 64.4239 79.6768 65.2364V68.4631H78.5625V65.6388C78.5625 64.656 78.7095 63.9287 79.0036 63.4489C79.1196 63.2555 79.2821 63.0775 79.4911 62.9072C79.7 62.737 79.9476 62.6055 80.2416 62.5049L78.5702 59.7734H79.8393L81.8357 63.1317L82.9577 64.8727C83.1898 64.7412 83.3523 64.6019 83.4684 64.4548C83.5845 64.3078 83.6696 64.1144 83.747 63.8668C83.8243 63.6191 83.8553 63.3251 83.8553 62.9924V59.7656H84.9696L84.9541 59.7734Z" fill="#27450E"/>
<path d="M86.8646 68.5563C86.6634 68.5563 86.439 68.5253 86.1914 68.4634V67.5426C86.5164 67.589 86.7021 67.6122 86.7331 67.6122C87.3753 67.6122 87.6926 67.2331 87.6926 66.467V60.7254L86.7408 60.8105V59.8588C87.9944 59.7117 89.0854 59.6421 90.0295 59.6421C90.8265 59.6421 91.4997 59.7736 92.0491 60.029C92.6217 60.2998 93.0163 60.7331 93.233 61.3367C93.3413 61.654 93.4032 62.0099 93.4032 62.4046V68.4634H92.2812V62.3891C92.2812 61.1897 91.4765 60.5939 89.8747 60.5939C89.6735 60.5939 89.3253 60.6093 88.8146 60.6326V66.3123C88.8146 67.0241 88.6521 67.5735 88.3271 67.9682C88.0021 68.3628 87.5146 68.564 86.8569 68.564L86.8646 68.5563Z" fill="#27450E"/>
<path d="M96.8462 60.547C96.6063 60.547 96.3278 60.5857 96.026 60.6708V59.7887C96.3819 59.6958 96.7843 59.6494 97.2331 59.6494C98.6337 59.6494 99.3379 60.4232 99.3379 61.9553V66.3428C99.3379 66.7065 99.3146 67.0624 99.276 67.4184C99.2373 67.7743 99.1908 68.0374 99.1444 68.2076L99.0748 68.463H95.0742V67.5963H98.0766C98.1694 67.2559 98.2081 66.8457 98.2081 66.3428V62.0482C98.2081 61.5065 98.092 61.1196 97.8599 60.8798C97.6432 60.6631 97.3105 60.547 96.8462 60.547Z" fill="#27450E"/>
<path d="M101.662 59.7345C101.994 59.6726 102.343 59.6416 102.722 59.6416C103.101 59.6416 103.449 59.688 103.766 59.7732C104.084 59.8583 104.354 59.9821 104.579 60.1368C104.803 60.2916 104.997 60.4696 105.175 60.6785C105.353 60.8874 105.484 61.1041 105.592 61.3285C105.701 61.5529 105.786 61.785 105.856 62.0404C105.979 62.4737 106.034 62.9148 106.034 63.3791V64.857C106.034 65.1278 106.01 65.4142 105.956 65.7314C105.902 66.0487 105.84 66.3118 105.763 66.5362C105.685 66.7606 105.562 67.0004 105.391 67.2713C105.221 67.5421 105.028 67.7665 104.795 67.9522C104.563 68.1379 104.269 68.2927 103.906 68.4165C103.542 68.5403 103.147 68.6099 102.737 68.6099C102.327 68.6099 101.971 68.5867 101.654 68.548C101.337 68.5094 101.12 68.4629 100.988 68.4165L100.803 68.3546V67.3409C101.391 67.5266 102.033 67.6272 102.737 67.6272C103.008 67.6272 103.256 67.5885 103.48 67.5112C103.704 67.4338 103.89 67.3332 104.029 67.2094C104.169 67.0856 104.308 66.9385 104.416 66.7683C104.525 66.5981 104.617 66.4201 104.672 66.2576C104.726 66.0951 104.78 65.9171 104.811 65.7237C104.873 65.4374 104.896 65.1433 104.896 64.8338V63.5106C104.896 62.938 104.834 62.466 104.71 62.0868C104.656 61.9243 104.571 61.7463 104.463 61.5529C104.354 61.3594 104.223 61.2047 104.076 61.0809C103.929 60.9571 103.735 60.8487 103.503 60.7636C103.271 60.6785 102.985 60.6321 102.652 60.6321C102.319 60.6321 101.994 60.663 101.677 60.7172C101.36 60.7713 101.135 60.8333 100.996 60.8874L100.795 60.9725V59.9743C100.841 59.9511 100.919 59.9124 101.012 59.8815C101.104 59.8505 101.321 59.7964 101.646 59.7345H101.662Z" fill="#27450E"/>
<path d="M111.124 67.5966C112.037 67.5966 112.803 67.2639 113.406 66.6062C114.01 65.9484 114.381 64.9348 114.505 63.5729L114.846 59.789H115.96L115.627 63.5729C115.581 64.1532 115.488 64.6717 115.349 65.1282C115.209 65.5848 115.062 65.9484 114.915 66.2347C114.768 66.521 114.567 66.8074 114.327 67.0859C114.087 67.3645 113.809 67.6121 113.499 67.8055C113.19 67.999 112.818 68.1615 112.377 68.2853C111.936 68.4091 111.449 68.471 110.922 68.471H108.044L107.324 59.7812H108.454L108.856 64.633L109.754 64.3389C110.443 64.1145 110.845 63.4878 110.946 62.4663L111.209 59.7812H112.323L112.099 62.064C112.068 62.3657 112.029 62.6443 111.975 62.8919C111.921 63.1395 111.843 63.3949 111.735 63.658C111.627 63.9211 111.487 64.1532 111.325 64.3544C111.162 64.5556 110.953 64.7336 110.698 64.8961C110.443 65.0586 110.133 65.1901 109.793 65.2752L108.918 65.5074L109.096 67.6044H111.1L111.124 67.5966Z" fill="#27450E"/>
<path d="M121.26 59.6416C122.111 59.6416 122.746 59.897 123.172 60.4077C123.597 60.9184 123.806 61.6225 123.806 62.5201V68.4629H120.842V67.5963H122.684V62.5743C122.684 61.2511 122.081 60.5856 120.866 60.5856C120.657 60.5856 120.448 60.6243 120.247 60.694C120.045 60.7636 119.867 60.8565 119.728 60.9571C119.434 61.1892 119.225 61.3827 119.101 61.5529L119.024 61.6612L118.382 68.4629H117.26L117.894 61.785V61.638C117.894 61.5606 117.863 61.3517 117.801 61.019C117.74 60.6862 117.662 60.4154 117.569 60.1987L117.391 59.7809H118.513C118.637 59.9821 118.738 60.2916 118.823 60.694H118.869C119.101 60.4154 119.38 60.1833 119.713 60.0053C119.883 59.9124 120.107 59.8351 120.386 59.7577C120.664 59.6803 120.959 59.6416 121.26 59.6416Z" fill="#27450E"/>
<path d="M129.502 68.4634V59.8201C130.291 59.6963 131.282 59.6421 132.481 59.6421C134.733 59.6421 135.855 60.4314 135.855 62.0099V68.4634H129.502ZM134.733 67.5967V62.1724C134.733 61.8861 134.686 61.6462 134.594 61.445C134.501 61.2439 134.385 61.0891 134.238 60.9808C134.091 60.8724 133.913 60.7873 133.68 60.7254C133.448 60.6635 133.239 60.6248 133.038 60.6093C132.837 60.5939 132.613 60.5861 132.35 60.5861C131.8 60.5861 131.305 60.6016 130.864 60.6403L130.616 60.6635V67.589H134.733V67.5967Z" fill="#27450E"/>
<path d="M138.191 59.7345C138.524 59.6726 138.872 59.6416 139.251 59.6416C139.63 59.6416 139.978 59.688 140.296 59.7732C140.613 59.8583 140.884 59.9821 141.108 60.1368C141.333 60.2916 141.526 60.4696 141.704 60.6785C141.882 60.8874 142.013 61.1041 142.122 61.3285C142.23 61.5529 142.315 61.785 142.385 62.0404C142.509 62.4737 142.563 62.9148 142.563 63.3791V64.857C142.563 65.1278 142.54 65.4142 142.485 65.7314C142.431 66.0487 142.369 66.3118 142.292 66.5362C142.215 66.7606 142.091 67.0004 141.921 67.2713C141.75 67.5421 141.557 67.7665 141.325 67.9522C141.093 68.1379 140.799 68.2927 140.435 68.4165C140.071 68.5403 139.677 68.6099 139.266 68.6099C138.856 68.6099 138.5 68.5867 138.183 68.548C137.866 68.5094 137.649 68.4629 137.518 68.4165L137.332 68.3546V67.3409C137.92 67.5266 138.562 67.6272 139.266 67.6272C139.537 67.6272 139.785 67.5885 140.009 67.5112C140.234 67.4338 140.419 67.3332 140.559 67.2094C140.698 67.0856 140.837 66.9385 140.946 66.7683C141.054 66.5981 141.147 66.4201 141.201 66.2576C141.255 66.0951 141.309 65.9171 141.34 65.7237C141.402 65.4374 141.425 65.1433 141.425 64.8338V63.5106C141.425 62.938 141.363 62.466 141.24 62.0868C141.185 61.9243 141.1 61.7463 140.992 61.5529C140.884 61.3594 140.752 61.2047 140.605 61.0809C140.458 60.9571 140.265 60.8487 140.033 60.7636C139.8 60.6785 139.514 60.6321 139.181 60.6321C138.849 60.6321 138.524 60.663 138.206 60.7172C137.889 60.7713 137.665 60.8333 137.525 60.8874L137.324 60.9725V59.9743C137.371 59.9511 137.448 59.9124 137.541 59.8815C137.634 59.8505 137.85 59.7964 138.175 59.7345H138.191Z" fill="#27450E"/>
<path d="M144.768 59.7734H149.342V60.64L148.173 65.0816L147.469 68.4554H146.339L147.043 65.0816L148.22 60.64H143.646V57.9937H144.761V59.7734H144.768Z" fill="#27450E"/>
<path d="M155.579 60.547C155.339 60.547 155.06 60.5857 154.758 60.6708V59.7887C155.114 59.6958 155.517 59.6494 155.966 59.6494C157.366 59.6494 158.07 60.4232 158.07 61.9553V68.4707H157.149L157.018 67.0005H156.964C156.941 67.0547 156.886 67.1475 156.809 67.2868C156.724 67.4184 156.646 67.5422 156.561 67.6428C156.476 67.7434 156.376 67.8517 156.244 67.9755C156.113 68.0993 155.981 68.1999 155.834 68.2928C155.687 68.3856 155.524 68.4552 155.339 68.5172C155.145 68.5791 154.952 68.61 154.751 68.61C154.325 68.61 154.016 68.5791 153.807 68.5249L153.969 67.5035C154.155 67.5654 154.464 67.5886 154.89 67.5886C155.207 67.5886 155.54 67.457 155.896 67.2017C156.314 66.8844 156.616 66.4589 156.801 65.9249C156.902 65.6154 156.956 65.2749 156.956 64.9113V62.0637C156.956 61.522 156.84 61.1274 156.6 60.8952C156.383 60.6786 156.043 60.5625 155.586 60.5625L155.579 60.547Z" fill="#27450E"/>
<path d="M160.09 65.5306V59.7812H161.204V64.3854L160.314 65.5306H160.082H160.09Z" fill="#27450E"/>
<path d="M166.62 67.5966C167.533 67.5966 168.299 67.2639 168.902 66.6062C169.514 65.9484 169.877 64.9348 170.001 63.5729L170.342 59.789H171.456L171.123 63.5729C171.077 64.1532 170.984 64.6717 170.845 65.1282C170.705 65.577 170.558 65.9484 170.411 66.2347C170.264 66.521 170.063 66.8074 169.823 67.0859C169.576 67.3722 169.305 67.6121 168.995 67.8055C168.686 68.0067 168.314 68.1615 167.873 68.2853C167.432 68.4091 166.945 68.471 166.418 68.471H163.54L162.82 59.7812H163.95L164.352 64.633L165.25 64.3389C165.939 64.1145 166.341 63.4878 166.442 62.4663L166.705 59.7812H167.819L167.595 62.064C167.564 62.3657 167.525 62.6443 167.471 62.8919C167.424 63.1395 167.339 63.3949 167.231 63.658C167.115 63.9211 166.983 64.1532 166.821 64.3544C166.658 64.5556 166.449 64.7336 166.194 64.8961C165.931 65.0586 165.629 65.1901 165.289 65.2752L164.414 65.5074L164.592 67.6044H166.596L166.62 67.5966Z" fill="#27450E"/>
<path d="M179.325 61.3289C179.434 61.6462 179.495 62.0021 179.495 62.3967V68.4556H178.381V62.3813C178.381 61.1819 177.576 60.586 175.967 60.586C175.255 60.586 174.474 60.6093 173.615 60.6634L173.143 60.6866V59.7349C174.187 59.6652 175.147 59.6343 176.013 59.6343C176.88 59.6343 177.6 59.7658 178.157 60.0289C178.714 60.292 179.109 60.7253 179.325 61.3289ZM174.265 68.4633H173.15V62.9229H174.265V68.4633Z" fill="#27450E"/>
<path d="M182.128 59.7734H186.701V60.64L185.533 65.0816L184.828 68.4554H183.699L184.403 65.0816L185.579 60.64H181.006V57.9937H182.12V59.7734H182.128Z" fill="#27450E"/>
<path d="M191.646 62.4201C191.646 61.5379 191.491 60.6635 191.174 59.7969H192.288C192.327 59.882 192.365 60.0058 192.42 60.1606C192.474 60.3153 192.543 60.6248 192.629 61.0814C192.714 61.5379 192.76 61.9867 192.76 62.4278V71.7908H191.646V62.4278V62.4201Z" fill="#27450E"/>
<path d="M194.787 65.5306V59.7812H195.901V64.3854L195.011 65.5306H194.779H194.787Z" fill="#27450E"/>
<path d="M197.541 59.7422C198.261 59.6726 199.104 59.6416 200.064 59.6416C201.023 59.6416 201.743 59.8505 202.207 60.2684C202.671 60.6862 202.903 61.3981 202.903 62.3963V67.5885H203.894V68.4552H197.541V67.5885H201.781V62.3809C201.781 61.6922 201.627 61.2202 201.317 60.9648C201.008 60.7095 200.52 60.5856 199.87 60.5856C199.174 60.5856 198.508 60.6089 197.881 60.663L197.541 60.6862V59.7345V59.7422Z" fill="#27450E"/>
<path d="M206.409 68.4632H205.295V59.7734H206.409V68.4632Z" fill="#27450E"/>
<path d="M207.771 59.6885C208.398 59.6576 208.963 59.6421 209.458 59.6421C209.954 59.6421 210.371 59.673 210.704 59.735C211.037 59.7969 211.339 59.8897 211.633 60.029C211.919 60.1605 212.159 60.3385 212.36 60.5474C212.778 61.004 212.987 61.623 212.987 62.4046V68.4634H211.873V62.3891C211.873 61.1897 211.068 60.5939 209.458 60.5939C208.971 60.5939 208.414 60.6093 207.771 60.6403V59.6885Z" fill="#27450E"/>
<path d="M215.602 59.7734H220.176V60.64L219.007 65.0816L218.303 68.4554H217.173L217.877 65.0816L219.054 60.64H214.48V57.9937H215.595V59.7734H215.602Z" fill="#27450E"/>
<path d="M226.358 68.4632H225.244V59.7734H226.358V68.4632Z" fill="#27450E"/>
<path d="M229.833 60.547C229.593 60.547 229.314 60.5857 229.012 60.6708V59.7887C229.368 59.6958 229.771 59.6494 230.219 59.6494C231.62 59.6494 232.324 60.4232 232.324 61.9553V66.3428C232.324 66.7065 232.301 67.0624 232.262 67.4184C232.224 67.7743 232.177 68.0374 232.131 68.2076L232.061 68.463H228.061V67.5963H231.063C231.156 67.2559 231.194 66.8457 231.194 66.3428V62.0482C231.194 61.5065 231.078 61.1196 230.846 60.8798C230.63 60.6631 230.297 60.547 229.833 60.547Z" fill="#27450E"/>
<path d="M234.497 68.5558C234.304 68.5558 234.072 68.5248 233.824 68.4629V67.5421C234.149 67.5885 234.335 67.6117 234.366 67.6117C235.008 67.6117 235.325 67.2326 235.325 66.4665V60.7249L234.374 60.81V59.8583C235.627 59.7112 236.718 59.6416 237.662 59.6416C238.459 59.6416 239.132 59.7731 239.682 60.0285C240.254 60.2993 240.649 60.7327 240.866 61.3362C240.982 61.6535 241.036 62.0094 241.036 62.4041V68.4629H239.914V62.3886C239.914 61.1892 239.109 60.5934 237.508 60.5934C237.314 60.5934 236.958 60.6089 236.447 60.6321V66.3118C236.447 67.0237 236.285 67.5731 235.96 67.9677C235.635 68.3623 235.147 68.5635 234.49 68.5635L234.497 68.5558Z" fill="#27450E"/>
<path d="M52.2238 25.8681C46.753 28.499 41.2822 27.4544 41.2822 27.4544C41.2822 27.4544 51.2333 24.2896 53.0517 18.7182C55.1487 12.3189 54.1815 7.01836 51.2874 0C46.7452 14.4546 26.758 16.126 19.1051 24.9009C15.7314 28.7699 14.323 34.1787 13.9052 36.2448C13.0772 34.6972 12.6826 32.8478 13.232 30.7199C8.53502 36.6549 5.07612 42.1334 2.75473 56.0386C15.6927 33.8692 28.5068 30.6425 38.9763 20.2426C32.9252 26.9282 26.1622 32.1746 18.6873 39.5953C11.2588 47.1089 3.0333 59.1415 0 68.4658C2.18985 65.123 5.36243 61.5558 9.69571 57.7564C14.0367 53.9571 22.6414 60.2326 35.3394 50.7381C29.0407 53.0749 24.2199 52.1773 20.8462 51.5583C35.3394 50.738 50.4518 41.0965 52.2005 25.8681H52.2238Z" fill="#E27600"/>
</svg>
