<svg width="24" height="26" viewBox="0 0 24 26" fill="none" xmlns="http://www.w3.org/2000/svg">
<path d="M12.7783 0C5.77857 0 0.0761889 5.87558 0 13.1225V13.1347V13.1479C0.0763344 20.2456 5.6616 26 12.5173 26C16.728 26 20.29 24.6925 23.202 21.072C23.2937 20.9579 23.3629 20.8262 23.4056 20.6844C23.4483 20.5426 23.4636 20.3935 23.4506 20.2456C23.4376 20.0976 23.3967 19.9538 23.3301 19.8223C23.2635 19.6908 23.1725 19.5741 23.0624 19.479C22.9523 19.3839 22.8251 19.3122 22.6883 19.268C22.5514 19.2238 22.4075 19.208 22.2647 19.2214C22.122 19.2348 21.9831 19.2773 21.8562 19.3463C21.7293 19.4153 21.6167 19.5095 21.5249 19.6236C18.9816 22.7857 16.3324 23.7391 12.5173 23.7391C6.83968 23.7391 2.25283 19.0165 2.18317 13.1347C2.25355 7.10421 6.95713 2.26087 12.7783 2.26087C15.144 2.26087 17.4325 3.09391 19.0945 4.55707C20.7566 6.02022 21.8179 8.07216 21.8179 10.7325V10.9511C21.8179 12.8646 20.9485 14.6817 19.7541 16.0093C18.5596 17.337 17.0297 18.087 16.1261 18.087C15.9257 18.087 15.9341 18.0612 15.9183 18.0428C15.9025 18.0244 15.8171 17.901 15.8171 17.5217V17.493L15.816 17.4643C15.816 17.4643 15.7417 16.14 16.4745 14.296C16.4754 14.2938 16.4757 14.2917 16.4766 14.2894L19.0103 7.77064C19.0811 7.59597 19.1084 7.40567 19.0897 7.21724C19.0709 7.0288 19.0068 6.84825 18.9032 6.69219C18.7996 6.53612 18.6597 6.40954 18.4966 6.32407C18.3334 6.2386 18.1521 6.19698 17.9694 6.20304C17.7553 6.21021 17.548 6.28249 17.3733 6.41087C17.1986 6.53926 17.0643 6.71807 16.987 6.92502L16.8463 7.28821C16.6458 7.03951 16.4239 6.81683 16.1783 6.62585C15.2521 5.90553 14.1112 5.65217 12.9328 5.65217C11.3536 5.65217 9.62593 6.58189 8.11578 8.19124C6.60564 9.80058 5.39454 12.1865 5.39454 15.1527C5.39454 18.0073 7.64725 20.3478 10.4002 20.3478C11.9163 20.3478 13.1003 19.6814 13.9014 18.8895C14.0002 19.1241 14.1192 19.3483 14.2871 19.5442C14.7559 20.091 15.4651 20.3478 16.1261 20.3478C17.9823 20.3478 19.843 19.2255 21.3501 17.5504C22.8572 15.8754 24 13.5593 24 10.9511V10.7325C24 7.42925 22.6056 4.681 20.5073 2.83381C18.4091 0.986629 15.6333 0 12.7783 0ZM12.9328 7.91304C13.8122 7.91304 14.4371 8.09831 14.8688 8.4341C15.262 8.73992 15.5701 9.22169 15.7585 10.0845L14.4597 13.4272L13.7245 15.3172C13.7234 15.319 13.7223 15.3208 13.7213 15.3227C13.338 15.9594 12.9615 16.6725 12.4523 17.2016C11.9431 17.7307 11.3868 18.087 10.4002 18.087C8.82925 18.087 7.57665 16.7881 7.57665 15.1527C7.57665 12.8177 8.50781 11.0179 9.68098 9.76766C10.8541 8.51744 12.3501 7.91304 12.9328 7.91304Z" fill="#27450E"/>
</svg>
