<svg width="20" height="20" viewBox="0 0 20 20" fill="none" xmlns="http://www.w3.org/2000/svg">
<path d="M18.1713 8.368H17.5V8.33342H10V11.6667H14.7096C14.0225 13.6072 12.1763 15.0001 10 15.0001C7.23877 15.0001 5.00002 12.7613 5.00002 10.0001C5.00002 7.23883 7.23877 5.00008 10 5.00008C11.2746 5.00008 12.4342 5.48091 13.3171 6.26633L15.6742 3.90925C14.1859 2.52216 12.195 1.66675 10 1.66675C5.39794 1.66675 1.66669 5.398 1.66669 10.0001C1.66669 14.6022 5.39794 18.3334 10 18.3334C14.6021 18.3334 18.3334 14.6022 18.3334 10.0001C18.3334 9.44133 18.2759 8.89592 18.1713 8.368Z" fill="#FFC107"/>
<path d="M2.62752 6.12133L5.36544 8.12925C6.10627 6.29508 7.90044 5.00008 10 5.00008C11.2746 5.00008 12.4342 5.48091 13.3171 6.26633L15.6742 3.90925C14.1859 2.52216 12.195 1.66675 10 1.66675C6.79919 1.66675 4.02335 3.47383 2.62752 6.12133Z" fill="#FF3D00"/>
<path d="M10 18.3334C12.1525 18.3334 14.1084 17.5097 15.5871 16.1701L13.0079 13.9876C12.1432 14.6452 11.0865 15.0009 10 15.0001C7.83252 15.0001 5.9921 13.618 5.29877 11.6892L2.58127 13.783C3.96044 16.4817 6.76127 18.3334 10 18.3334Z" fill="#4CAF50"/>
<path d="M18.1713 8.368H17.5V8.33342H10V11.6667H14.7096C14.3809 12.5903 13.7889 13.3972 13.0067 13.988L13.0079 13.9876L15.5871 16.1701C15.4046 16.3359 18.3334 14.1667 18.3334 10.0001C18.3334 9.44133 18.2759 8.89592 18.1713 8.368Z" fill="#1976D2"/>
</svg>
