<svg width="47" height="29" viewBox="0 0 47 29" fill="none" xmlns="http://www.w3.org/2000/svg">
<path d="M1.83143 0.000181261C1.59215 -0.00321541 1.35459 0.0411564 1.13254 0.130718C0.910497 0.220279 0.7084 0.353244 0.537995 0.521885C0.36759 0.690526 0.232277 0.89148 0.139919 1.11307C0.047561 1.33466 0 1.57246 0 1.81266C0 2.05286 0.047561 2.29066 0.139919 2.51225C0.232277 2.73384 0.36759 2.93479 0.537995 3.10343C0.7084 3.27207 0.910497 3.40504 1.13254 3.4946C1.35459 3.58416 1.59215 3.62853 1.83143 3.62514H45.1686C45.4078 3.62853 45.6454 3.58416 45.8675 3.4946C46.0895 3.40504 46.2916 3.27207 46.462 3.10343C46.6324 2.93479 46.7677 2.73384 46.8601 2.51225C46.9524 2.29066 47 2.05286 47 1.81266C47 1.57246 46.9524 1.33466 46.8601 1.11307C46.7677 0.89148 46.6324 0.690526 46.462 0.521885C46.2916 0.353244 46.0895 0.220279 45.8675 0.130718C45.6454 0.0411564 45.4078 -0.00321541 45.1686 0.000181261H1.83143ZM1.83143 12.6875C1.59215 12.6841 1.35459 12.7285 1.13254 12.8181C0.910497 12.9076 0.7084 13.0406 0.537995 13.2092C0.36759 13.3779 0.232277 13.5788 0.139919 13.8004C0.047561 14.022 0 14.2598 0 14.5C0 14.7402 0.047561 14.978 0.139919 15.1996C0.232277 15.4212 0.36759 15.6221 0.537995 15.7908C0.7084 15.9594 0.910497 16.0924 1.13254 16.1819C1.35459 16.2715 1.59215 16.3159 1.83143 16.3125H45.1686C45.4078 16.3159 45.6454 16.2715 45.8675 16.1819C46.0895 16.0924 46.2916 15.9594 46.462 15.7908C46.6324 15.6221 46.7677 15.4212 46.8601 15.1996C46.9524 14.978 47 14.7402 47 14.5C47 14.2598 46.9524 14.022 46.8601 13.8004C46.7677 13.5788 46.6324 13.3779 46.462 13.2092C46.2916 13.0406 46.0895 12.9076 45.8675 12.8181C45.6454 12.7285 45.4078 12.6841 45.1686 12.6875H1.83143ZM1.83143 25.3749C1.59215 25.3715 1.35459 25.4158 1.13254 25.5054C0.910497 25.595 0.7084 25.7279 0.537995 25.8966C0.36759 26.0652 0.232277 26.2662 0.139919 26.4878C0.047561 26.7093 0 26.9471 0 27.1873C0 27.4275 0.047561 27.6653 0.139919 27.8869C0.232277 28.1085 0.36759 28.3095 0.537995 28.4781C0.7084 28.6468 0.910497 28.7797 1.13254 28.8693C1.35459 28.9588 1.59215 29.0032 1.83143 28.9998H45.1686C45.4078 29.0032 45.6454 28.9588 45.8675 28.8693C46.0895 28.7797 46.2916 28.6468 46.462 28.4781C46.6324 28.3095 46.7677 28.1085 46.8601 27.8869C46.9524 27.6653 47 27.4275 47 27.1873C47 26.9471 46.9524 26.7093 46.8601 26.4878C46.7677 26.2662 46.6324 26.0652 46.462 25.8966C46.2916 25.7279 46.0895 25.595 45.8675 25.5054C45.6454 25.4158 45.4078 25.3715 45.1686 25.3749H1.83143Z" fill="#27450E"/>
</svg>
