<svg width="168" height="126" viewBox="0 0 168 126" fill="none" xmlns="http://www.w3.org/2000/svg">
<path d="M19.3315 78.7193C23.6078 78.7193 25.7459 80.4298 25.7459 83.8508C25.7459 87.0358 23.7847 88.6431 19.8624 88.6726H13.7061L25.2593 105.084H31.2313L22.959 93.0078C25.4362 92.5949 27.3532 91.6512 28.7098 90.1767C30.2433 88.6136 31.0101 86.505 31.0101 83.8508C31.0101 80.8722 30.0811 78.4981 28.2231 76.7286C26.3357 74.9886 23.7847 74.1187 20.5702 74.1187H0V105.084H5.13148V78.7193" fill="#27450E"/>
<path d="M49.8995 73.5881C44.9155 73.5881 40.8162 75.2839 37.6016 78.6754C34.8294 81.6245 33.4434 85.2519 33.4434 89.5577C33.4434 93.8634 34.8294 97.4318 37.6016 100.44C40.7867 103.802 44.886 105.483 49.8995 105.483C54.913 105.483 59.027 103.817 62.1531 100.484C64.9548 97.535 66.3556 93.8929 66.3556 89.5577C66.3556 85.2224 64.9695 81.5803 62.1973 78.6311C59.0123 75.2691 54.913 73.5881 49.8995 73.5881ZM58.0833 97.7857C56.0484 99.8501 53.3205 100.882 49.8995 100.882C46.4785 100.882 43.8095 99.8354 41.7157 97.7415C39.5333 95.6181 38.4421 92.8902 38.4421 89.5577C38.4421 86.4906 39.4006 83.9101 41.3175 81.8162C43.4999 79.4274 46.3605 78.233 49.8995 78.233C53.4384 78.233 56.0189 79.2652 58.0833 81.3296C60.2362 83.3645 61.3126 86.1072 61.3126 89.5577C61.3126 93.0081 60.2362 95.7508 58.0833 97.7857Z" fill="#27450E"/>
<path d="M101.879 89.115C104.563 87.6109 105.904 85.4286 105.904 82.5679C105.904 80.0022 105.005 77.9525 103.206 76.419C101.407 74.8854 98.9444 74.1187 95.8184 74.1187H70.7803V101.958H75.9118V91.6807H96.305C100.05 91.6807 101.923 93.1995 101.923 96.2371C101.923 99.0683 99.7849 100.484 95.5087 100.484L70.7803 100.44V105.084H95.4645C103.28 105.084 107.187 102.371 107.187 96.9449C107.187 92.9046 105.418 90.2946 101.879 89.115ZM99.4458 85.8414C98.5316 86.6672 97.3519 87.0801 95.9068 87.0801H75.9118V78.7193H96.0838C97.5289 78.7193 98.7085 79.1027 99.6227 79.8695C100.478 80.6362 100.906 81.6389 100.906 82.8776C100.906 84.1162 100.419 85.0452 99.4458 85.8414Z" fill="#27450E"/>
<path d="M116.742 82.3396H111.61V105.129H116.742V82.3396Z" fill="#27450E"/>
<path d="M152.043 74.1187V99.5106L127.138 74.1629V80.9311L150.76 105.084H157.175V74.1187H152.043Z" fill="#27450E"/>
<path d="M127.137 74.1187H122.006V105.084H127.137V74.1187Z" fill="#27450E"/>
<path d="M116.742 74.1187H111.61V81.1155H116.742V74.1187Z" fill="#E27600"/>
<path d="M7.65733 113.777V116.468C7.65733 116.822 7.64259 117.125 7.61309 117.375C7.5836 117.626 7.52462 117.899 7.42877 118.179C7.23708 118.754 6.83158 119.16 6.20489 119.403L7.80479 122.05H6.60302L4.58287 118.592L3.60965 117.132C3.44008 117.198 3.31474 117.257 3.24101 117.324C2.83551 117.655 2.62907 118.208 2.62907 118.983V122.057H1.56738V119.366C1.56738 118.43 1.70747 117.737 1.98763 117.279C2.09823 117.095 2.25305 116.926 2.45212 116.763C2.65119 116.601 2.88712 116.476 3.16728 116.38L1.57476 113.777H2.7839L4.68608 116.977L5.75514 118.636C5.97633 118.511 6.13116 118.378 6.24175 118.238C6.35234 118.098 6.43344 117.914 6.50717 117.678C6.5809 117.442 6.61039 117.162 6.61039 116.844V113.77H7.67208L7.65733 113.777Z" fill="#27450E"/>
<path d="M9.47737 122.145C9.28568 122.145 9.07187 122.116 8.83594 122.057V121.18C9.1456 121.224 9.32254 121.246 9.35203 121.246C9.96398 121.246 10.2663 120.885 10.2663 120.155V114.684L9.35941 114.765V113.858C10.5538 113.718 11.5934 113.652 12.4929 113.652C13.2523 113.652 13.8937 113.777 14.4172 114.02C14.9627 114.279 15.3388 114.691 15.5452 115.267C15.6484 115.569 15.7074 115.908 15.7074 116.284V122.057H14.6383V116.269C14.6383 115.126 13.8716 114.559 12.3454 114.559C12.1537 114.559 11.8219 114.573 11.3353 114.596V120.007C11.3353 120.686 11.1805 121.209 10.8708 121.585C10.5612 121.961 10.0967 122.153 9.47 122.153L9.47737 122.145Z" fill="#27450E"/>
<path d="M18.9901 114.515C18.7616 114.515 18.4962 114.552 18.2086 114.633V113.792C18.5478 113.704 18.9312 113.659 19.3588 113.659C20.6933 113.659 21.3642 114.397 21.3642 115.857V120.037C21.3642 120.383 21.3421 120.723 21.3052 121.062C21.2683 121.401 21.2241 121.652 21.1799 121.814L21.1135 122.057H17.3018V121.231H20.1624C20.2509 120.907 20.2878 120.516 20.2878 120.037V115.945C20.2878 115.429 20.1772 115.06 19.956 114.832C19.7495 114.625 19.4325 114.515 18.9901 114.515Z" fill="#27450E"/>
<path d="M23.5758 113.74C23.8928 113.681 24.2246 113.652 24.5858 113.652C24.9471 113.652 25.2789 113.696 25.5812 113.777C25.8834 113.858 26.1415 113.976 26.3553 114.124C26.5691 114.271 26.7534 114.441 26.923 114.64C27.0926 114.839 27.2179 115.045 27.3211 115.259C27.4244 115.473 27.5055 115.694 27.5718 115.937C27.6898 116.35 27.7414 116.771 27.7414 117.213V118.621C27.7414 118.879 27.7193 119.152 27.6677 119.454C27.6161 119.757 27.5571 120.007 27.4833 120.221C27.4096 120.435 27.2917 120.663 27.1295 120.921C26.9673 121.18 26.7829 121.393 26.5617 121.57C26.3406 121.747 26.0604 121.895 25.7139 122.013C25.3674 122.131 24.9913 122.197 24.6006 122.197C24.2098 122.197 23.8707 122.175 23.5684 122.138C23.2661 122.101 23.0597 122.057 22.9343 122.013L22.7574 121.954V120.988C23.3177 121.165 23.9296 121.261 24.6006 121.261C24.8586 121.261 25.0946 121.224 25.3084 121.15C25.5222 121.076 25.6991 120.98 25.8318 120.862C25.9645 120.745 26.0973 120.604 26.2005 120.442C26.3037 120.28 26.3922 120.11 26.4438 119.956C26.4954 119.801 26.547 119.631 26.5765 119.447C26.6355 119.174 26.6576 118.894 26.6576 118.599V117.338C26.6576 116.793 26.5986 116.343 26.4806 115.982C26.429 115.827 26.3479 115.657 26.2447 115.473C26.1415 115.289 26.0162 115.141 25.8761 115.023C25.736 114.905 25.5517 114.802 25.3305 114.721C25.1093 114.64 24.8365 114.596 24.5195 114.596C24.2024 114.596 23.8928 114.625 23.5905 114.677C23.2882 114.728 23.0744 114.787 22.9417 114.839L22.75 114.92V113.969C22.7942 113.947 22.868 113.91 22.9564 113.88C23.0449 113.851 23.2514 113.799 23.561 113.74H23.5758Z" fill="#27450E"/>
<path d="M32.5917 121.231C33.4617 121.231 34.1916 120.914 34.7667 120.287C35.3418 119.661 35.6957 118.695 35.8137 117.397L36.1381 113.792H37.1997L36.8827 117.397C36.8385 117.95 36.75 118.444 36.6173 118.879C36.4846 119.314 36.3445 119.661 36.2044 119.934C36.0643 120.206 35.8726 120.479 35.6441 120.745C35.4155 121.01 35.1501 121.246 34.8552 121.43C34.5603 121.615 34.2064 121.769 33.7861 121.887C33.3659 122.005 32.9014 122.064 32.4 122.064H29.6574L28.9717 113.785H30.0481L30.4315 118.407L31.2867 118.127C31.9429 117.913 32.3263 117.316 32.4222 116.343L32.6728 113.785H33.7345L33.5207 115.96C33.4912 116.247 33.4544 116.513 33.4027 116.749C33.3511 116.984 33.2774 117.228 33.1742 117.478C33.071 117.729 32.9383 117.95 32.7834 118.142C32.6286 118.334 32.4295 118.503 32.1862 118.658C31.9429 118.813 31.648 118.938 31.3236 119.019L30.4905 119.241L30.6601 121.239H32.5696L32.5917 121.231Z" fill="#27450E"/>
<path d="M42.2522 113.652C43.0632 113.652 43.6678 113.895 44.0733 114.382C44.4788 114.868 44.6778 115.539 44.6778 116.395V122.057H41.854V121.231H43.6088V116.446C43.6088 115.185 43.0337 114.551 41.8762 114.551C41.6771 114.551 41.478 114.588 41.2863 114.655C41.0946 114.721 40.9251 114.809 40.7924 114.905C40.5122 115.126 40.3131 115.311 40.1952 115.473L40.1214 115.576L39.5095 122.057H38.4404L39.045 115.694V115.554C39.045 115.48 39.0155 115.281 38.9565 114.964C38.8975 114.647 38.8238 114.389 38.7353 114.183L38.5658 113.785H39.6348C39.7528 113.976 39.8486 114.271 39.9297 114.655H39.974C40.1952 114.389 40.4606 114.168 40.7776 113.998C40.9398 113.91 41.1536 113.836 41.419 113.762C41.6845 113.689 41.9646 113.652 42.2522 113.652Z" fill="#27450E"/>
<path d="M50.1016 122.057V113.821C50.8536 113.703 51.7973 113.652 52.9401 113.652C55.0856 113.652 56.1546 114.404 56.1546 115.908V122.057H50.1016ZM55.0856 121.231V116.063C55.0856 115.79 55.0414 115.561 54.9529 115.37C54.8644 115.178 54.7538 115.031 54.6137 114.927C54.4736 114.824 54.3041 114.743 54.0829 114.684C53.8617 114.625 53.6626 114.588 53.4709 114.573C53.2792 114.559 53.0654 114.551 52.8148 114.551C52.2913 114.551 51.8194 114.566 51.3992 114.603L51.1633 114.625V121.224H55.0856V121.231Z" fill="#27450E"/>
<path d="M58.3814 113.74C58.6985 113.681 59.0302 113.652 59.3915 113.652C59.7528 113.652 60.0845 113.696 60.3868 113.777C60.6891 113.858 60.9472 113.976 61.161 114.124C61.3748 114.271 61.5591 114.441 61.7287 114.64C61.8983 114.839 62.0236 115.045 62.1268 115.259C62.23 115.473 62.3111 115.694 62.3775 115.937C62.4955 116.35 62.5471 116.771 62.5471 117.213V118.621C62.5471 118.879 62.5249 119.152 62.4733 119.454C62.4217 119.757 62.3627 120.007 62.289 120.221C62.2153 120.435 62.0973 120.663 61.9351 120.921C61.7729 121.18 61.5886 121.393 61.3674 121.57C61.1462 121.747 60.8661 121.895 60.5195 122.013C60.173 122.131 59.797 122.197 59.4062 122.197C59.0155 122.197 58.6763 122.175 58.374 122.138C58.0718 122.101 57.8653 122.057 57.74 122.013L57.563 121.954V120.988C58.1234 121.165 58.7353 121.261 59.4062 121.261C59.6643 121.261 59.9002 121.224 60.114 121.15C60.3278 121.076 60.5048 120.98 60.6375 120.862C60.7702 120.745 60.9029 120.604 61.0061 120.442C61.1094 120.28 61.1978 120.11 61.2494 119.956C61.3011 119.801 61.3527 119.631 61.3822 119.447C61.4411 119.174 61.4633 118.894 61.4633 118.599V117.338C61.4633 116.793 61.4043 116.343 61.2863 115.982C61.2347 115.827 61.1536 115.657 61.0504 115.473C60.9472 115.289 60.8218 115.141 60.6817 115.023C60.5417 114.905 60.3573 114.802 60.1362 114.721C59.915 114.64 59.6422 114.596 59.3251 114.596C59.0081 114.596 58.6985 114.625 58.3962 114.677C58.0939 114.728 57.8801 114.787 57.7474 114.839L57.5557 114.92V113.969C57.5999 113.947 57.6736 113.91 57.7621 113.88C57.8506 113.851 58.057 113.799 58.3667 113.74H58.3814Z" fill="#27450E"/>
<path d="M64.6491 113.777H69.0065V114.603L67.8932 118.835L67.2223 122.05H66.1458L66.8167 118.835L67.9374 114.603H63.5801V112.082H64.6418V113.777H64.6491Z" fill="#27450E"/>
<path d="M74.9462 114.515C74.7176 114.515 74.4522 114.552 74.1647 114.633V113.792C74.5038 113.704 74.8872 113.659 75.3148 113.659C76.6493 113.659 77.3202 114.397 77.3202 115.857V122.064H76.4429L76.3175 120.664H76.2659C76.2438 120.715 76.1922 120.804 76.1185 120.936C76.0374 121.062 75.9636 121.18 75.8825 121.276C75.8014 121.371 75.7056 121.475 75.5802 121.593C75.4549 121.711 75.3296 121.806 75.1895 121.895C75.0494 121.983 74.8946 122.05 74.7176 122.109C74.5333 122.168 74.349 122.197 74.1573 122.197C73.7518 122.197 73.4569 122.168 73.2578 122.116L73.4126 121.143C73.5896 121.202 73.8845 121.224 74.29 121.224C74.5923 121.224 74.9093 121.099 75.2485 120.855C75.6466 120.553 75.9341 120.148 76.1111 119.639C76.2069 119.344 76.2585 119.019 76.2585 118.673V115.96C76.2585 115.444 76.148 115.068 75.9194 114.846C75.713 114.64 75.3886 114.529 74.9536 114.529L74.9462 114.515Z" fill="#27450E"/>
<path d="M79.2486 119.263V113.785H80.3103V118.171L79.4624 119.263H79.2412H79.2486Z" fill="#27450E"/>
<path d="M85.4706 121.231C86.3406 121.231 87.0705 120.914 87.6456 120.287C88.2281 119.661 88.5746 118.695 88.6926 117.397L89.017 113.792H90.0787L89.7616 117.397C89.7174 117.95 89.6289 118.444 89.4962 118.879C89.3635 119.307 89.2234 119.661 89.0833 119.934C88.9432 120.206 88.7515 120.479 88.523 120.745C88.2871 121.017 88.029 121.246 87.7341 121.43C87.4392 121.622 87.0853 121.769 86.665 121.887C86.2448 122.005 85.7803 122.064 85.2789 122.064H82.5363L81.8506 113.785H82.927L83.3104 118.407L84.1657 118.127C84.8218 117.913 85.2052 117.316 85.3011 116.343L85.5517 113.785H86.6134L86.3996 115.96C86.3701 116.247 86.3333 116.513 86.2817 116.749C86.2374 116.984 86.1563 117.228 86.0531 117.478C85.9425 117.729 85.8172 117.95 85.6623 118.142C85.5075 118.334 85.3084 118.503 85.0651 118.658C84.8145 118.813 84.5269 118.938 84.2025 119.019L83.3694 119.241L83.539 121.239H85.4485L85.4706 121.231Z" fill="#27450E"/>
<path d="M97.5764 115.259C97.6797 115.562 97.7386 115.901 97.7386 116.277V122.05H96.6769V116.262C96.6769 115.119 95.9102 114.552 94.3766 114.552C93.6983 114.552 92.9537 114.574 92.1353 114.625L91.6855 114.647V113.741C92.6809 113.674 93.5951 113.645 94.4209 113.645C95.2466 113.645 95.9323 113.77 96.4631 114.021C96.994 114.271 97.37 114.684 97.5764 115.259ZM92.7546 122.057H91.6929V116.778H92.7546V122.057Z" fill="#27450E"/>
<path d="M100.245 113.777H104.602V114.603L103.489 118.835L102.818 122.05H101.742L102.412 118.835L103.533 114.603H99.1758V112.082H100.237V113.777H100.245Z" fill="#27450E"/>
<path d="M109.315 116.299C109.315 115.458 109.168 114.625 108.865 113.8H109.927C109.964 113.881 110.001 113.999 110.052 114.146C110.104 114.294 110.17 114.588 110.251 115.023C110.332 115.458 110.377 115.886 110.377 116.306V125.227H109.315V116.306V116.299Z" fill="#27450E"/>
<path d="M112.307 119.263V113.785H113.369V118.171L112.521 119.263H112.3H112.307Z" fill="#27450E"/>
<path d="M114.934 113.748C115.619 113.681 116.423 113.652 117.337 113.652C118.251 113.652 118.937 113.851 119.379 114.249C119.822 114.647 120.043 115.325 120.043 116.277V121.224H120.987V122.049H114.934V121.224H118.974V116.262C118.974 115.606 118.826 115.156 118.532 114.913C118.237 114.669 117.772 114.551 117.153 114.551C116.489 114.551 115.855 114.573 115.258 114.625L114.934 114.647V113.74V113.748Z" fill="#27450E"/>
<path d="M123.382 122.057H122.32V113.777H123.382V122.057Z" fill="#27450E"/>
<path d="M124.68 113.696C125.277 113.667 125.815 113.652 126.287 113.652C126.759 113.652 127.157 113.681 127.474 113.74C127.791 113.799 128.079 113.888 128.359 114.02C128.632 114.146 128.86 114.315 129.052 114.514C129.45 114.949 129.649 115.539 129.649 116.284V122.057H128.587V116.269C128.587 115.126 127.821 114.559 126.287 114.559C125.822 114.559 125.292 114.573 124.68 114.603V113.696Z" fill="#27450E"/>
<path d="M132.139 113.777H136.497V114.603L135.383 118.835L134.712 122.05H133.636L134.307 118.835L135.428 114.603H131.07V112.082H132.132V113.777H132.139Z" fill="#27450E"/>
<path d="M142.389 122.057H141.327V113.777H142.389V122.057Z" fill="#27450E"/>
<path d="M145.7 114.515C145.472 114.515 145.206 114.552 144.919 114.633V113.792C145.258 113.704 145.641 113.659 146.069 113.659C147.403 113.659 148.074 114.397 148.074 115.857V120.037C148.074 120.383 148.052 120.723 148.015 121.062C147.978 121.401 147.934 121.652 147.89 121.814L147.823 122.057H144.012V121.231H146.872C146.961 120.907 146.998 120.516 146.998 120.037V115.945C146.998 115.429 146.887 115.06 146.666 114.832C146.459 114.625 146.142 114.515 145.7 114.515Z" fill="#27450E"/>
<path d="M150.141 122.145C149.957 122.145 149.736 122.116 149.5 122.057V121.18C149.81 121.224 149.987 121.246 150.016 121.246C150.628 121.246 150.93 120.885 150.93 120.155V114.684L150.023 114.765V113.858C151.218 113.718 152.257 113.652 153.157 113.652C153.916 113.652 154.558 113.777 155.081 114.02C155.627 114.279 156.003 114.691 156.209 115.267C156.32 115.569 156.371 115.908 156.371 116.284V122.057H155.302V116.269C155.302 115.126 154.536 114.559 153.009 114.559C152.825 114.559 152.486 114.573 151.999 114.596V120.007C151.999 120.686 151.845 121.209 151.535 121.585C151.225 121.961 150.761 122.153 150.134 122.153L150.141 122.145Z" fill="#27450E"/>
<path d="M165.271 24.6473C160.058 27.1541 154.846 26.1588 154.846 26.1588C154.846 26.1588 164.327 23.1433 166.06 17.8348C168.058 11.7375 167.136 6.68715 164.379 0C160.051 13.7724 141.007 15.365 133.715 23.7257C130.501 27.4121 129.159 32.5657 128.761 34.5343C127.972 33.0597 127.596 31.2976 128.119 29.2701C123.644 34.925 120.348 40.145 118.136 53.3939C130.464 32.2708 142.673 29.1964 152.649 19.2873C146.883 25.6574 140.439 30.6562 133.317 37.7267C126.239 44.8857 118.402 56.3504 115.512 65.2347C117.598 62.0496 120.621 58.6508 124.75 55.0307C128.886 51.4107 137.085 57.39 149.183 48.3436C143.182 50.5702 138.589 49.7149 135.374 49.1251C149.183 48.3436 163.582 39.157 165.249 24.6473H165.271Z" fill="#E27600"/>
</svg>
