<svg width="227" height="170" viewBox="0 0 227 170" fill="none" xmlns="http://www.w3.org/2000/svg">
<path d="M26.22 106.77C32.02 106.77 34.92 109.09 34.92 113.73C34.92 118.05 32.26 120.23 26.94 120.27H18.59L34.26 142.53H42.36L31.14 126.15C34.5 125.59 37.1 124.31 38.94 122.31C41.02 120.19 42.06 117.33 42.06 113.73C42.06 109.69 40.8 106.47 38.28 104.07C35.72 101.71 32.26 100.53 27.9 100.53H0V142.53H6.96V106.77" fill="#27450E"/>
<path d="M67.6799 99.8101C60.9199 99.8101 55.3599 102.11 50.9999 106.71C47.2399 110.71 45.3599 115.63 45.3599 121.47C45.3599 127.31 47.2399 132.15 50.9999 136.23C55.3199 140.79 60.8799 143.07 67.6799 143.07C74.4799 143.07 80.0599 140.81 84.2999 136.29C88.0999 132.29 89.9999 127.35 89.9999 121.47C89.9999 115.59 88.1199 110.65 84.3599 106.65C80.0399 102.09 74.4799 99.8101 67.6799 99.8101ZM78.7799 132.63C76.0199 135.43 72.3199 136.83 67.6799 136.83C63.0399 136.83 59.4199 135.41 56.5799 132.57C53.6199 129.69 52.1399 125.99 52.1399 121.47C52.1399 117.31 53.4399 113.81 56.0399 110.97C58.9999 107.73 62.8799 106.11 67.6799 106.11C72.4799 106.11 75.9799 107.51 78.7799 110.31C81.6999 113.07 83.1599 116.79 83.1599 121.47C83.1599 126.15 81.6999 129.87 78.7799 132.63Z" fill="#27450E"/>
<path d="M138.18 120.87C141.82 118.83 143.64 115.87 143.64 111.99C143.64 108.51 142.42 105.73 139.98 103.65C137.54 101.57 134.2 100.53 129.96 100.53H96V138.29H102.96V124.35H130.62C135.7 124.35 138.24 126.41 138.24 130.53C138.24 134.37 135.34 136.29 129.54 136.29L96 136.23V142.53H129.48C140.08 142.53 145.38 138.85 145.38 131.49C145.38 126.01 142.98 122.47 138.18 120.87ZM134.88 116.43C133.64 117.55 132.04 118.11 130.08 118.11H102.96V106.77H130.32C132.28 106.77 133.88 107.29 135.12 108.33C136.28 109.37 136.86 110.73 136.86 112.41C136.86 114.09 136.2 115.35 134.88 116.43Z" fill="#27450E"/>
<path d="M158.34 111.68H151.38V142.59H158.34V111.68Z" fill="#27450E"/>
<path d="M206.22 100.53V134.97L172.44 100.59V109.77L204.48 142.53H213.18V100.53H206.22Z" fill="#27450E"/>
<path d="M172.44 100.53H165.48V142.53H172.44V100.53Z" fill="#27450E"/>
<path d="M158.34 100.53H151.38V110.02H158.34V100.53Z" fill="#E27600"/>
<path d="M10.3899 154.32V157.97C10.3899 158.45 10.3699 158.86 10.3299 159.2C10.2899 159.54 10.2099 159.91 10.0799 160.29C9.81988 161.07 9.26988 161.62 8.41988 161.95L10.5899 165.54H8.95988L6.21988 160.85L4.89988 158.87C4.66988 158.96 4.49988 159.04 4.39988 159.13C3.84988 159.58 3.56988 160.33 3.56988 161.38V165.55H2.12988V161.9C2.12988 160.63 2.31988 159.69 2.69988 159.07C2.84988 158.82 3.05988 158.59 3.32988 158.37C3.59988 158.15 3.91988 157.98 4.29988 157.85L2.13988 154.32H3.77988L6.35988 158.66L7.80988 160.91C8.10988 160.74 8.31988 160.56 8.46988 160.37C8.61988 160.18 8.72988 159.93 8.82988 159.61C8.92988 159.29 8.96988 158.91 8.96988 158.48V154.31H10.4099L10.3899 154.32Z" fill="#27450E"/>
<path d="M12.8599 165.67C12.5999 165.67 12.3099 165.63 11.9899 165.55V164.36C12.4099 164.42 12.6499 164.45 12.6899 164.45C13.5199 164.45 13.9299 163.96 13.9299 162.97V155.55L12.6999 155.66V154.43C14.3199 154.24 15.7299 154.15 16.9499 154.15C17.9799 154.15 18.8499 154.32 19.5599 154.65C20.2999 155 20.8099 155.56 21.0899 156.34C21.2299 156.75 21.3099 157.21 21.3099 157.72V165.55H19.8599V157.7C19.8599 156.15 18.8199 155.38 16.7499 155.38C16.4899 155.38 16.0399 155.4 15.3799 155.43V162.77C15.3799 163.69 15.1699 164.4 14.7499 164.91C14.3299 165.42 13.6999 165.68 12.8499 165.68L12.8599 165.67Z" fill="#27450E"/>
<path d="M25.7599 155.32C25.4499 155.32 25.0899 155.37 24.6999 155.48V154.34C25.1599 154.22 25.6799 154.16 26.2599 154.16C28.0699 154.16 28.9799 155.16 28.9799 157.14V162.81C28.9799 163.28 28.9499 163.74 28.8999 164.2C28.8499 164.66 28.7899 165 28.7299 165.22L28.6399 165.55H23.4699V164.43H27.3499C27.4699 163.99 27.5199 163.46 27.5199 162.81V157.26C27.5199 156.56 27.3699 156.06 27.0699 155.75C26.7899 155.47 26.3599 155.32 25.7599 155.32Z" fill="#27450E"/>
<path d="M31.9799 154.27C32.4099 154.19 32.8599 154.15 33.3499 154.15C33.8399 154.15 34.2899 154.21 34.6999 154.32C35.1099 154.43 35.4599 154.59 35.7499 154.79C36.0399 154.99 36.2899 155.22 36.5199 155.49C36.7499 155.76 36.9199 156.04 37.0599 156.33C37.1999 156.62 37.3099 156.92 37.3999 157.25C37.5599 157.81 37.6299 158.38 37.6299 158.98V160.89C37.6299 161.24 37.5999 161.61 37.5299 162.02C37.4599 162.43 37.3799 162.77 37.2799 163.06C37.1799 163.35 37.0199 163.66 36.7999 164.01C36.5799 164.36 36.3299 164.65 36.0299 164.89C35.7299 165.13 35.3499 165.33 34.8799 165.49C34.4099 165.65 33.8999 165.74 33.3699 165.74C32.8399 165.74 32.3799 165.71 31.9699 165.66C31.5599 165.61 31.2799 165.55 31.1099 165.49L30.8699 165.41V164.1C31.6299 164.34 32.4599 164.47 33.3699 164.47C33.7199 164.47 34.0399 164.42 34.3299 164.32C34.6199 164.22 34.8599 164.09 35.0399 163.93C35.2199 163.77 35.3999 163.58 35.5399 163.36C35.6799 163.14 35.7999 162.91 35.8699 162.7C35.9399 162.49 36.0099 162.26 36.0499 162.01C36.1299 161.64 36.1599 161.26 36.1599 160.86V159.15C36.1599 158.41 36.0799 157.8 35.9199 157.31C35.8499 157.1 35.7399 156.87 35.5999 156.62C35.4599 156.37 35.2899 156.17 35.0999 156.01C34.9099 155.85 34.6599 155.71 34.3599 155.6C34.0599 155.49 33.6899 155.43 33.2599 155.43C32.8299 155.43 32.4099 155.47 31.9999 155.54C31.5899 155.61 31.2999 155.69 31.1199 155.76L30.8599 155.87V154.58C30.9199 154.55 31.0199 154.5 31.1399 154.46C31.2599 154.42 31.5399 154.35 31.9599 154.27H31.9799Z" fill="#27450E"/>
<path d="M44.2099 164.43C45.3899 164.43 46.3799 164 47.1599 163.15C47.9399 162.3 48.4199 160.99 48.5799 159.23L49.0199 154.34H50.4599L50.0299 159.23C49.9699 159.98 49.8499 160.65 49.6699 161.24C49.4899 161.83 49.2999 162.3 49.1099 162.67C48.9199 163.04 48.6599 163.41 48.3499 163.77C48.0399 164.13 47.6799 164.45 47.2799 164.7C46.8799 164.95 46.3999 165.16 45.8299 165.32C45.2599 165.48 44.6299 165.56 43.9499 165.56H40.2299L39.2999 154.33H40.7599L41.2799 160.6L42.4399 160.22C43.3299 159.93 43.8499 159.12 43.9799 157.8L44.3199 154.33H45.7599L45.4699 157.28C45.4299 157.67 45.3799 158.03 45.3099 158.35C45.2399 158.67 45.1399 159 44.9999 159.34C44.8599 159.68 44.6799 159.98 44.4699 160.24C44.2599 160.5 43.9899 160.73 43.6599 160.94C43.3299 161.15 42.9299 161.32 42.4899 161.43L41.3599 161.73L41.5899 164.44H44.1799L44.2099 164.43Z" fill="#27450E"/>
<path d="M57.3099 154.15C58.4099 154.15 59.2299 154.48 59.7799 155.14C60.3299 155.8 60.5999 156.71 60.5999 157.87V165.55H56.7699V164.43H59.1499V157.94C59.1499 156.23 58.3699 155.37 56.7999 155.37C56.5299 155.37 56.2599 155.42 55.9999 155.51C55.7399 155.6 55.5099 155.72 55.3299 155.85C54.9499 156.15 54.6799 156.4 54.5199 156.62L54.4199 156.76L53.5899 165.55H52.1399L52.9599 156.92V156.73C52.9599 156.63 52.9199 156.36 52.8399 155.93C52.7599 155.5 52.6599 155.15 52.5399 154.87L52.3099 154.33H53.7599C53.9199 154.59 54.0499 154.99 54.1599 155.51H54.2199C54.5199 155.15 54.8799 154.85 55.3099 154.62C55.5299 154.5 55.8199 154.4 56.1799 154.3C56.5399 154.2 56.9199 154.15 57.3099 154.15Z" fill="#27450E"/>
<path d="M67.9599 165.55V154.38C68.9799 154.22 70.2599 154.15 71.8099 154.15C74.7199 154.15 76.1699 155.17 76.1699 157.21V165.55H67.9599ZM74.7199 164.43V157.42C74.7199 157.05 74.6599 156.74 74.5399 156.48C74.4199 156.22 74.2699 156.02 74.0799 155.88C73.8899 155.74 73.6599 155.63 73.3599 155.55C73.0599 155.47 72.7899 155.42 72.5299 155.4C72.2699 155.38 71.9799 155.37 71.6399 155.37C70.9299 155.37 70.2899 155.39 69.7199 155.44L69.3999 155.47V164.42H74.7199V164.43Z" fill="#27450E"/>
<path d="M79.1899 154.27C79.6199 154.19 80.0699 154.15 80.5599 154.15C81.0499 154.15 81.4999 154.21 81.9099 154.32C82.3199 154.43 82.6699 154.59 82.9599 154.79C83.2499 154.99 83.4999 155.22 83.7299 155.49C83.9599 155.76 84.1299 156.04 84.2699 156.33C84.4099 156.62 84.5199 156.92 84.6099 157.25C84.7699 157.81 84.8399 158.38 84.8399 158.98V160.89C84.8399 161.24 84.8099 161.61 84.7399 162.02C84.6699 162.43 84.5899 162.77 84.4899 163.06C84.3899 163.35 84.2299 163.66 84.0099 164.01C83.7899 164.36 83.5399 164.65 83.2399 164.89C82.9399 165.13 82.5599 165.33 82.0899 165.49C81.6199 165.65 81.1099 165.74 80.5799 165.74C80.0499 165.74 79.5899 165.71 79.1799 165.66C78.7699 165.61 78.4899 165.55 78.3199 165.49L78.0799 165.41V164.1C78.8399 164.34 79.6699 164.47 80.5799 164.47C80.9299 164.47 81.2499 164.42 81.5399 164.32C81.8299 164.22 82.0699 164.09 82.2499 163.93C82.4299 163.77 82.6099 163.58 82.7499 163.36C82.8899 163.14 83.0099 162.91 83.0799 162.7C83.1499 162.49 83.2199 162.26 83.2599 162.01C83.3399 161.64 83.3699 161.26 83.3699 160.86V159.15C83.3699 158.41 83.2899 157.8 83.1299 157.31C83.0599 157.1 82.9499 156.87 82.8099 156.62C82.6699 156.37 82.4999 156.17 82.3099 156.01C82.1199 155.85 81.8699 155.71 81.5699 155.6C81.2699 155.49 80.8999 155.43 80.4699 155.43C80.0399 155.43 79.6199 155.47 79.2099 155.54C78.7999 155.61 78.5099 155.69 78.3299 155.76L78.0699 155.87V154.58C78.1299 154.55 78.2299 154.5 78.3499 154.46C78.4699 154.42 78.7499 154.35 79.1699 154.27H79.1899Z" fill="#27450E"/>
<path d="M87.6899 154.32H93.5999V155.44L92.0899 161.18L91.1799 165.54H89.7199L90.6299 161.18L92.1499 155.44H86.2399V152.02H87.6799V154.32H87.6899Z" fill="#27450E"/>
<path d="M101.66 155.32C101.35 155.32 100.99 155.37 100.6 155.48V154.34C101.06 154.22 101.58 154.16 102.16 154.16C103.97 154.16 104.88 155.16 104.88 157.14V165.56H103.69L103.52 163.66H103.45C103.42 163.73 103.35 163.85 103.25 164.03C103.14 164.2 103.04 164.36 102.93 164.49C102.82 164.62 102.69 164.76 102.52 164.92C102.35 165.08 102.18 165.21 101.99 165.33C101.8 165.45 101.59 165.54 101.35 165.62C101.1 165.7 100.85 165.74 100.59 165.74C100.04 165.74 99.6399 165.7 99.3699 165.63L99.5799 164.31C99.8199 164.39 100.22 164.42 100.77 164.42C101.18 164.42 101.61 164.25 102.07 163.92C102.61 163.51 103 162.96 103.24 162.27C103.37 161.87 103.44 161.43 103.44 160.96V157.28C103.44 156.58 103.29 156.07 102.98 155.77C102.7 155.49 102.26 155.34 101.67 155.34L101.66 155.32Z" fill="#27450E"/>
<path d="M107.49 161.76V154.33H108.93V160.28L107.78 161.76H107.48H107.49Z" fill="#27450E"/>
<path d="M115.93 164.43C117.11 164.43 118.1 164 118.88 163.15C119.67 162.3 120.14 160.99 120.3 159.23L120.74 154.34H122.18L121.75 159.23C121.69 159.98 121.57 160.65 121.39 161.24C121.21 161.82 121.02 162.3 120.83 162.67C120.64 163.04 120.38 163.41 120.07 163.77C119.75 164.14 119.4 164.45 119 164.7C118.6 164.96 118.12 165.16 117.55 165.32C116.98 165.48 116.35 165.56 115.67 165.56H111.95L111.02 154.33H112.48L113 160.6L114.16 160.22C115.05 159.93 115.57 159.12 115.7 157.8L116.04 154.33H117.48L117.19 157.28C117.15 157.67 117.1 158.03 117.03 158.35C116.97 158.67 116.86 159 116.72 159.34C116.57 159.68 116.4 159.98 116.19 160.24C115.98 160.5 115.71 160.73 115.38 160.94C115.04 161.15 114.65 161.32 114.21 161.43L113.08 161.73L113.31 164.44H115.9L115.93 164.43Z" fill="#27450E"/>
<path d="M132.35 156.33C132.49 156.74 132.57 157.2 132.57 157.71V165.54H131.13V157.69C131.13 156.14 130.09 155.37 128.01 155.37C127.09 155.37 126.08 155.4 124.97 155.47L124.36 155.5V154.27C125.71 154.18 126.95 154.14 128.07 154.14C129.19 154.14 130.12 154.31 130.84 154.65C131.56 154.99 132.07 155.55 132.35 156.33ZM125.81 165.55H124.37V158.39H125.81V165.55Z" fill="#27450E"/>
<path d="M135.97 154.32H141.88V155.44L140.37 161.18L139.46 165.54H138L138.91 161.18L140.43 155.44H134.52V152.02H135.96V154.32H135.97Z" fill="#27450E"/>
<path d="M148.27 157.74C148.27 156.6 148.07 155.47 147.66 154.35H149.1C149.15 154.46 149.2 154.62 149.27 154.82C149.34 155.02 149.43 155.42 149.54 156.01C149.65 156.6 149.71 157.18 149.71 157.75V169.85H148.27V157.75V157.74Z" fill="#27450E"/>
<path d="M152.33 161.76V154.33H153.77V160.28L152.62 161.76H152.32H152.33Z" fill="#27450E"/>
<path d="M155.89 154.28C156.82 154.19 157.91 154.15 159.15 154.15C160.39 154.15 161.32 154.42 161.92 154.96C162.52 155.5 162.82 156.42 162.82 157.71V164.42H164.1V165.54H155.89V164.42H161.37V157.69C161.37 156.8 161.17 156.19 160.77 155.86C160.37 155.53 159.74 155.37 158.9 155.37C158 155.37 157.14 155.4 156.33 155.47L155.89 155.5V154.27V154.28Z" fill="#27450E"/>
<path d="M167.35 165.55H165.91V154.32H167.35V165.55Z" fill="#27450E"/>
<path d="M169.11 154.21C169.92 154.17 170.65 154.15 171.29 154.15C171.93 154.15 172.47 154.19 172.9 154.27C173.33 154.35 173.72 154.47 174.1 154.65C174.47 154.82 174.78 155.05 175.04 155.32C175.58 155.91 175.85 156.71 175.85 157.72V165.55H174.41V157.7C174.41 156.15 173.37 155.38 171.29 155.38C170.66 155.38 169.94 155.4 169.11 155.44V154.21Z" fill="#27450E"/>
<path d="M179.23 154.32H185.14V155.44L183.63 161.18L182.72 165.54H181.26L182.17 161.18L183.69 155.44H177.78V152.02H179.22V154.32H179.23Z" fill="#27450E"/>
<path d="M193.13 165.55H191.69V154.32H193.13V165.55Z" fill="#27450E"/>
<path d="M197.62 155.32C197.31 155.32 196.95 155.37 196.56 155.48V154.34C197.02 154.22 197.54 154.16 198.12 154.16C199.93 154.16 200.84 155.16 200.84 157.14V162.81C200.84 163.28 200.81 163.74 200.76 164.2C200.71 164.66 200.65 165 200.59 165.22L200.5 165.55H195.33V164.43H199.21C199.33 163.99 199.38 163.46 199.38 162.81V157.26C199.38 156.56 199.23 156.06 198.93 155.75C198.65 155.47 198.22 155.32 197.62 155.32Z" fill="#27450E"/>
<path d="M203.65 165.67C203.4 165.67 203.1 165.63 202.78 165.55V164.36C203.2 164.42 203.44 164.45 203.48 164.45C204.31 164.45 204.72 163.96 204.72 162.97V155.55L203.49 155.66V154.43C205.11 154.24 206.52 154.15 207.74 154.15C208.77 154.15 209.64 154.32 210.35 154.65C211.09 155 211.6 155.56 211.88 156.34C212.03 156.75 212.1 157.21 212.1 157.72V165.55H210.65V157.7C210.65 156.15 209.61 155.38 207.54 155.38C207.29 155.38 206.83 155.4 206.17 155.43V162.77C206.17 163.69 205.96 164.4 205.54 164.91C205.12 165.42 204.49 165.68 203.64 165.68L203.65 165.67Z" fill="#27450E"/>
<path d="M224.16 33.43C217.09 36.83 210.02 35.48 210.02 35.48C210.02 35.48 222.88 31.39 225.23 24.19C227.94 15.92 226.69 9.07 222.95 0C217.08 18.68 191.25 20.84 181.36 32.18C177 37.18 175.18 44.17 174.64 46.84C173.57 44.84 173.06 42.45 173.77 39.7C167.7 47.37 163.23 54.45 160.23 72.42C176.95 43.77 193.51 39.6 207.04 26.16C199.22 34.8 190.48 41.58 180.82 51.17C171.22 60.88 160.59 76.43 156.67 88.48C159.5 84.16 163.6 79.55 169.2 74.64C174.81 69.73 185.93 77.84 202.34 65.57C194.2 68.59 187.97 67.43 183.61 66.63C202.34 65.57 221.87 53.11 224.13 33.43H224.16Z" fill="#E27600"/>
</svg>
