<svg width="25" height="23" viewBox="0 0 25 23" fill="none" xmlns="http://www.w3.org/2000/svg">
<path d="M12.5012 1.28282e-07C11.9303 -0.000180413 11.3582 0.190207 10.9004 0.571603L0.452002 9.27704C0.451225 9.27741 0.450449 9.27778 0.449674 9.27816C0.0138868 9.64346 -0.0952888 10.2248 0.0794676 10.6774C0.254224 11.13 0.733724 11.5006 1.31232 11.5006H2.96312H19.6527C19.7316 11.5016 19.8101 11.4876 19.8834 11.4592C19.9567 11.4307 20.0234 11.3886 20.0796 11.3351C20.1359 11.2816 20.1805 11.2178 20.211 11.1475C20.2415 11.0772 20.2572 11.0018 20.2572 10.9256C20.2572 10.8494 20.2415 10.774 20.211 10.7037C20.1805 10.6334 20.1359 10.5696 20.0796 10.5161C20.0234 10.4626 19.9567 10.4204 19.8834 10.392C19.8101 10.3636 19.7316 10.3495 19.6527 10.3506H2.96312H1.31232C1.22334 10.3506 1.21603 10.3245 1.19707 10.2754C1.17811 10.2263 1.1671 10.2006 1.232 10.1462L11.6804 1.44192C12.1548 1.04672 12.8468 1.04675 13.3207 1.44192L16.8784 4.40887C16.9648 4.48093 17.0708 4.52753 17.1839 4.54315C17.2969 4.55876 17.4122 4.54273 17.5161 4.49695C17.62 4.45117 17.708 4.37757 17.7698 4.28491C17.8316 4.19225 17.8644 4.08443 17.8645 3.97427V2.30101C17.8645 1.98216 18.13 1.72604 18.4605 1.72604H19.6527C19.9832 1.72604 20.2487 1.98216 20.2487 2.30101V6.95244C20.2486 7.03509 20.2669 7.11679 20.3025 7.19198C20.338 7.26717 20.39 7.33409 20.4548 7.38816L23.768 10.1462C23.8329 10.2006 23.8219 10.2263 23.8029 10.2754C23.784 10.3245 23.7767 10.3506 23.6877 10.3506H22.0369C21.8788 10.3506 21.7272 10.4112 21.6154 10.519C21.5036 10.6269 21.4408 10.7731 21.4408 10.9256V20.1251C21.4408 21.0765 20.6389 21.8501 19.6527 21.8501H5.34734C4.36114 21.8501 3.55917 21.0765 3.55917 20.1251V13.2255C3.56029 13.1493 3.5457 13.0736 3.51624 13.0029C3.48679 12.9322 3.44306 12.8679 3.3876 12.8136C3.33214 12.7594 3.26606 12.7163 3.19319 12.6869C3.12031 12.6575 3.04211 12.6423 2.96312 12.6423C2.88412 12.6423 2.80592 12.6575 2.73305 12.6869C2.66018 12.7163 2.59409 12.7594 2.53863 12.8136C2.48317 12.8679 2.43944 12.9322 2.40999 13.0029C2.38054 13.0736 2.36594 13.1493 2.36706 13.2255V20.1251C2.36706 21.7037 3.7109 23 5.34734 23H19.6527C21.2891 23 22.6329 21.7037 22.6329 20.1251V11.5006H23.6877C24.2663 11.5006 24.7458 11.13 24.9205 10.6774C25.0953 10.2248 24.9861 9.64349 24.5503 9.27816C24.5495 9.27778 24.5488 9.27741 24.548 9.27704L21.4408 6.68966V2.30101C21.4408 1.35492 20.6334 0.576095 19.6527 0.576095H18.4605C17.4798 0.576095 16.6724 1.35492 16.6724 2.30101V2.71764L14.0996 0.572726C13.6421 0.191317 13.072 0.000180669 12.5012 1.28282e-07Z" fill="white"/>
</svg>
