<svg width="25" height="24" viewBox="0 0 25 24" fill="none" xmlns="http://www.w3.org/2000/svg">
<path d="M11.9939 0C5.38181 0 0 5.38453 0 12C0 18.6155 5.38181 24 11.9939 24C14.5476 24 16.9081 23.1814 18.844 21.8184C19.0609 21.6658 19.2084 21.4333 19.254 21.1719C19.2995 20.9106 19.2395 20.6418 19.087 20.4248C18.9345 20.2078 18.7021 20.0602 18.4409 20.0146C18.1797 19.969 17.9111 20.0291 17.6942 20.1816C16.0738 21.3226 14.1219 22 11.9939 22C6.46219 22 1.99899 17.5345 1.99899 12C1.99899 6.46547 6.46219 2 11.9939 2C14.1219 2 16.0738 2.67742 17.6942 3.81836C17.8016 3.8939 17.9228 3.94752 18.0509 3.97618C18.1791 4.00484 18.3116 4.00797 18.4409 3.98539C18.5703 3.96281 18.6939 3.91497 18.8047 3.84458C18.9156 3.7742 19.0115 3.68266 19.087 3.5752C19.1625 3.46773 19.2161 3.34643 19.2447 3.21824C19.2734 3.09004 19.2765 2.95746 19.254 2.82806C19.2314 2.69865 19.1836 2.57496 19.1132 2.46405C19.0429 2.35314 18.9514 2.25718 18.844 2.18164C16.9081 0.818575 14.5476 0 11.9939 0ZM19.9801 6.99023C19.7813 6.99029 19.587 7.04967 19.4221 7.16078C19.2571 7.27189 19.1291 7.42969 19.0542 7.61401C18.9794 7.79832 18.9612 8.00077 19.002 8.19547C19.0428 8.39017 19.1407 8.56828 19.2832 8.70703L21.575 11H10.9944C10.862 10.9981 10.7305 11.0226 10.6076 11.072C10.4847 11.1214 10.3728 11.1948 10.2785 11.2878C10.1842 11.3809 10.1093 11.4918 10.0581 11.614C10.007 11.7363 9.9807 11.8675 9.9807 12C9.9807 12.1325 10.007 12.2637 10.0581 12.386C10.1093 12.5082 10.1842 12.6191 10.2785 12.7122C10.3728 12.8052 10.4847 12.8786 10.6076 12.928C10.7305 12.9774 10.862 13.0019 10.9944 13H21.575L19.2832 15.293C19.1873 15.3851 19.1107 15.4955 19.0579 15.6176C19.0052 15.7397 18.9773 15.8712 18.9759 16.0042C18.9746 16.1373 18.9998 16.2692 19.05 16.3924C19.1003 16.5156 19.1746 16.6275 19.2687 16.7216C19.3627 16.8157 19.4745 16.89 19.5977 16.9403C19.7208 16.9906 19.8527 17.0158 19.9857 17.0144C20.1186 17.0131 20.25 16.9852 20.3721 16.9324C20.4941 16.8796 20.6044 16.803 20.6965 16.707L24.6067 12.7949C24.7291 12.7015 24.8283 12.581 24.8966 12.4428C24.9648 12.3047 25.0002 12.1526 25 11.9985C24.9998 11.8445 24.964 11.6925 24.8955 11.5545C24.8269 11.4165 24.7274 11.2963 24.6047 11.2031L20.6965 7.29297C20.6034 7.19717 20.492 7.12103 20.369 7.06903C20.2459 7.01704 20.1137 6.99024 19.9801 6.99023Z" fill="white"/>
</svg>
