<svg width="24" height="28" viewBox="0 0 24 28" fill="none" xmlns="http://www.w3.org/2000/svg">
<path d="M10.5 24.1846C10.5002 25.0521 11.1402 25.7559 12 25.7559C12.8598 25.7559 13.4998 25.0521 13.5 24.1846V23.8838H10.5V24.1846ZM11.9316 4.82031C7.79402 4.86164 4.5 8.38298 4.5 12.7373V16.5527C4.49998 18.593 3.87756 20.2715 3.2334 21.501L3.00293 21.9404H20.9971L20.7666 21.501C20.1224 20.2715 19.5 18.593 19.5 16.5527V12.7373C19.5 8.38393 16.2076 4.86316 12.0713 4.82031H11.9316ZM11.0996 1.28516C11.0963 1.02248 11.1922 0.772456 11.3604 0.588867C11.5281 0.40575 11.7537 0.303659 11.9863 0.299805C12.1041 0.297871 12.2218 0.320886 12.332 0.368164C12.4424 0.415481 12.5438 0.487034 12.6299 0.578125C12.7159 0.669218 12.7853 0.778674 12.832 0.900391C12.8787 1.02201 12.902 1.15298 12.9004 1.28516V3.08105L13.1582 3.11719C17.7063 3.75112 21.2998 7.7307 21.2998 12.7373V16.5527C21.2998 18.2411 21.8325 19.6554 22.3604 20.6436C22.6244 21.1379 22.8886 21.5282 23.0879 21.7959C23.1877 21.9299 23.2716 22.0336 23.3311 22.1045C23.3607 22.1398 23.3847 22.1667 23.4014 22.1855C23.4097 22.195 23.4162 22.2028 23.4209 22.208C23.423 22.2103 23.4245 22.2124 23.4258 22.2139L23.4307 22.2188C23.5579 22.3537 23.6457 22.528 23.6816 22.7197C23.7176 22.9115 23.6991 23.1104 23.6289 23.29C23.5587 23.4695 23.4407 23.6199 23.293 23.7246C23.1454 23.8291 22.9737 23.8837 22.7998 23.8838H15.2998V24.1846C15.2996 26.1277 13.792 27.7002 12 27.7002C10.208 27.7002 8.70038 26.1277 8.7002 24.1846V23.8838H1.2002C1.02629 23.8837 0.854633 23.8291 0.707031 23.7246C0.559261 23.6199 0.441305 23.4695 0.371094 23.29C0.300877 23.1104 0.282425 22.9115 0.318359 22.7197C0.354317 22.528 0.442136 22.3537 0.569336 22.2188L0.574219 22.2139C0.575527 22.2124 0.576994 22.2103 0.579102 22.208C0.583776 22.2028 0.590312 22.195 0.598633 22.1855C0.615258 22.1667 0.639287 22.1398 0.668945 22.1045C0.728381 22.0336 0.812347 21.9299 0.912109 21.7959C1.11142 21.5282 1.37556 21.1379 1.63965 20.6436C2.16747 19.6554 2.70017 18.2411 2.7002 16.5527V12.7373C2.7002 7.7307 6.29366 3.75112 10.8418 3.11719L11.0996 3.08105V1.28516Z" fill="white" stroke="#878E86" stroke-width="0.6"/>
</svg>
