<svg width="47" height="47" viewBox="0 0 47 47" fill="none" xmlns="http://www.w3.org/2000/svg">
<path d="M28.8828 31.6345L31.699 28.8184L33.7323 30.8517L30.9161 33.6678L28.8828 31.6345Z" fill="#DADCEC"/>
<path d="M32.5417 32.2872L32.2926 32.5363C31.1696 33.6592 31.1696 35.4799 32.2926 36.6029L39.6684 43.9788C40.7914 45.1017 42.6121 45.1017 43.7351 43.9788L43.9842 43.7297C45.1071 42.6067 45.1071 40.786 43.9842 39.663L36.6083 32.2872C35.4853 31.1642 33.6646 31.1642 32.5417 32.2872Z" fill="#E27600"/>
<path d="M33.4923 33.4934C32.8971 32.8982 31.9321 32.8982 31.3369 33.4934C30.7418 34.0886 30.7418 35.0535 31.3369 35.6487L40.6241 44.9359C41.2193 45.531 42.1843 45.531 42.7794 44.9359C43.3746 44.3407 43.3746 43.3757 42.7794 42.7806L33.4923 33.4934Z" fill="#BE782B"/>
<path d="M17.9754 0.722168C15.7097 0.722168 13.4662 1.16844 11.3729 2.03549C9.27963 2.90255 7.37765 4.17342 5.77553 5.77553C4.17342 7.37765 2.90255 9.27963 2.03549 11.3729C1.16844 13.4662 0.722168 15.7097 0.722168 17.9754C0.722168 20.2412 1.16844 22.4847 2.03549 24.578C2.90255 26.6712 4.17342 28.5732 5.77553 30.1753C7.37765 31.7774 9.27963 33.0483 11.3729 33.9154C13.4662 34.7824 15.7097 35.2287 17.9754 35.2287C20.2412 35.2287 22.4847 34.7824 24.578 33.9154C26.6712 33.0483 28.5732 31.7774 30.1753 30.1753C31.7774 28.5732 33.0483 26.6712 33.9154 24.578C34.7824 22.4847 35.2287 20.2412 35.2287 17.9754C35.2287 15.7097 34.7824 13.4662 33.9154 11.3729C33.0483 9.27963 31.7774 7.37765 30.1753 5.77553C28.5732 4.17342 26.6712 2.90255 24.578 2.03549C22.4847 1.16844 20.2412 0.722168 17.9754 0.722168Z" fill="white"/>
<path d="M8.01163 27.9393L27.9391 8.01178C28.2364 7.71445 28.5952 7.48591 28.9903 7.34226C29.3854 7.19861 29.8072 7.14334 30.226 7.18035C30.6448 7.21737 31.0503 7.34576 31.4141 7.55648C31.7779 7.7672 32.0911 8.05513 32.3315 8.39998C34.5628 11.7185 35.572 15.709 35.1867 19.6892C34.8014 23.6695 33.0455 27.3923 30.2191 30.2212C27.3928 33.0501 23.6715 34.8094 19.6916 35.1983C15.7117 35.5872 11.7203 34.5815 8.39983 32.3533C8.05135 32.1131 7.76019 31.7989 7.54714 31.4332C7.33408 31.0675 7.20439 30.6592 7.16731 30.2376C7.13023 29.816 7.18668 29.3914 7.33262 28.9941C7.47857 28.5968 7.71042 28.2366 8.01163 27.9393Z" fill="white"/>
<path d="M17.9756 5.03564C14.5437 5.03564 11.2524 6.39896 8.82567 8.82567C6.39896 11.2524 5.03564 14.5437 5.03564 17.9756C5.03564 21.4075 6.39896 24.6988 8.82567 27.1255C11.2524 29.5522 14.5437 30.9155 17.9756 30.9155C21.4075 30.9155 24.6988 29.5522 27.1255 27.1255C29.5522 24.6988 30.9155 21.4075 30.9155 17.9756C30.9155 14.5437 29.5522 11.2524 27.1255 8.82567C24.6988 6.39896 21.4075 5.03564 17.9756 5.03564Z" fill="#BBDEF9"/>
<path d="M17.9756 12.9434C16.6409 12.9434 15.361 13.4735 14.4173 14.4173C13.4735 15.361 12.9434 16.6409 12.9434 17.9756C12.9434 19.3102 13.4735 20.5901 14.4173 21.5339C15.361 22.4776 16.6409 23.0078 17.9756 23.0078C19.3102 23.0078 20.5901 22.4776 21.5339 21.5339C22.4776 20.5901 23.0078 19.3102 23.0078 17.9756C23.0078 16.6409 22.4776 15.361 21.5339 14.4173C20.5901 13.4735 19.3102 12.9434 17.9756 12.9434Z" fill="#D2EDFF"/>
<path d="M15.1002 12.2241C14.3375 12.2241 13.6061 12.5271 13.0668 13.0663C12.5276 13.6056 12.2246 14.337 12.2246 15.0997C12.2246 15.8623 12.5276 16.5937 13.0668 17.133C13.6061 17.6723 14.3375 17.9752 15.1002 17.9752C15.8628 17.9752 16.5942 17.6723 17.1335 17.133C17.6727 16.5937 17.9757 15.8623 17.9757 15.0997C17.9757 14.337 17.6727 13.6056 17.1335 13.0663C16.5942 12.5271 15.8628 12.2241 15.1002 12.2241ZM21.2107 20.1319C20.9247 20.1319 20.6504 20.2455 20.4482 20.4477C20.246 20.6499 20.1324 20.9242 20.1324 21.2102C20.1324 21.4962 20.246 21.7705 20.4482 21.9727C20.6504 22.1749 20.9247 22.2885 21.2107 22.2885C21.4967 22.2885 21.771 22.1749 21.9732 21.9727C22.1754 21.7705 22.289 21.4962 22.289 21.2102C22.289 20.9242 22.1754 20.6499 21.9732 20.4477C21.771 20.2455 21.4967 20.1319 21.2107 20.1319Z" fill="#F3F3F3"/>
<path d="M27.6379 8.32067C25.7277 6.41045 23.2939 5.10956 20.6444 4.58253C17.9948 4.0555 15.2485 4.32598 12.7526 5.35979C10.2568 6.39359 8.12359 8.14428 6.62273 10.3905C5.12188 12.6366 4.3208 15.2774 4.3208 17.9789C4.3208 20.6804 5.12188 23.3212 6.62273 25.5674C8.12359 27.8135 10.2568 29.5642 12.7526 30.598C15.2485 31.6318 17.9948 31.9023 20.6444 31.3753C23.2939 30.8483 25.7277 29.5474 27.6379 27.6371C28.9166 26.3746 29.9319 24.8708 30.6248 23.2128C31.3178 21.5549 31.6746 19.7758 31.6746 17.9789C31.6746 16.182 31.3178 14.4029 30.6248 12.745C29.9319 11.087 28.9166 9.58317 27.6379 8.32067ZM26.6027 26.6019C24.8953 28.3153 22.7177 29.4835 20.3459 29.9585C17.9741 30.4334 15.5147 30.1939 13.2792 29.2701C11.0436 28.3464 9.13241 26.78 7.78768 24.7694C6.44294 22.7587 5.72512 20.3942 5.72512 17.9753C5.72512 15.5564 6.44294 13.1919 7.78768 11.1813C9.13241 9.1706 11.0436 7.60422 13.2792 6.68048C15.5147 5.75674 17.9741 5.5172 20.3459 5.99218C22.7177 6.46716 24.8953 7.63531 26.6027 9.34868C27.7425 10.4776 28.6473 11.8213 29.2648 13.302C29.8822 14.7827 30.2002 16.371 30.2002 17.9753C30.2002 19.5796 29.8822 21.168 29.2648 22.6487C28.6473 24.1293 27.7425 25.473 26.6027 26.6019Z" fill="#27450E"/>
<path d="M44.4879 39.1538L37.0546 31.7205C36.7145 31.383 36.3103 31.117 35.8659 30.938C35.4215 30.7589 34.9457 30.6706 34.4666 30.6781C34.4666 30.5775 32.4753 28.5861 32.4753 28.5861C35.1493 24.9323 36.3457 20.4038 35.8252 15.9061C35.3046 11.4083 33.1056 7.27274 29.6678 4.32623C26.2299 1.37973 21.8065 -0.160584 17.2821 0.0132641C12.7577 0.187112 8.46556 2.06231 5.26393 5.26393C2.06231 8.46556 0.187112 12.7577 0.0132641 17.2821C-0.160584 21.8065 1.37973 26.2299 4.32623 29.6678C7.27274 33.1056 11.4083 35.3046 15.9061 35.8252C20.4038 36.3457 24.9323 35.1493 28.5861 32.4753C28.5861 32.4753 30.5846 34.4307 30.6781 34.4666C30.7716 34.5026 30.6781 34.4666 30.6781 34.517C30.6773 34.9893 30.7695 35.4572 30.9496 35.8938C31.1297 36.3305 31.3941 36.7274 31.7277 37.0618L39.1538 44.4879C39.8278 45.1618 40.7419 45.5403 41.695 45.5403C42.6481 45.5403 43.5622 45.1618 44.2363 44.4879L44.4807 44.2435C45.1546 43.5694 45.5331 42.6553 45.5331 41.7022C45.5331 40.7491 45.1546 39.835 44.4807 39.161L44.4879 39.1538ZM1.44101 17.9754C1.44101 14.7052 2.41073 11.5084 4.22755 8.78938C6.04437 6.07032 8.62669 3.95106 11.648 2.69961C14.6692 1.44817 17.9937 1.12073 21.2011 1.75871C24.4084 2.3967 27.3546 3.97144 29.667 6.28382C31.9793 8.59619 33.5541 11.5423 34.1921 14.7497C34.83 17.957 34.5026 21.2816 33.2512 24.3028C31.9997 27.3241 29.8805 29.9064 27.1614 31.7232C24.4423 33.54 21.2456 34.5098 17.9754 34.5098C13.5902 34.5098 9.38461 32.7678 6.28382 29.667C3.18302 26.5662 1.44101 22.3606 1.44101 17.9754ZM31.7205 31.9649C31.4502 32.2434 31.2269 32.5639 31.0591 32.9138L29.7148 31.5695C30.3798 30.9949 31.0021 30.3726 31.5767 29.7076L32.9282 31.0591C32.5783 31.2269 32.2578 31.4502 31.9793 31.7205L31.7205 31.9649ZM43.4671 43.2227L43.2227 43.4671C42.8183 43.871 42.2701 44.0978 41.6986 44.0978C41.1271 44.0978 40.579 43.871 40.1746 43.4671L32.7413 36.0338C32.3374 35.6294 32.1106 35.0813 32.1106 34.5098C32.1106 33.9383 32.3374 33.3901 32.7413 32.9857L32.9857 32.7413C33.3901 32.3374 33.9382 32.1106 34.5098 32.1106C35.0813 32.1106 35.6294 32.3374 36.0338 32.7413L43.4671 40.1746C43.871 40.579 44.0978 41.1271 44.0978 41.6986C44.0978 42.2701 43.871 42.8183 43.4671 43.2227Z" fill="#27450E"/>
<path d="M24.5822 23.5682C24.4447 23.4504 24.2678 23.3889 24.0869 23.3958C23.906 23.4028 23.7343 23.4778 23.6063 23.6059C23.4783 23.7339 23.4033 23.9055 23.3963 24.0864C23.3893 24.2674 23.4508 24.4443 23.5686 24.5818L24.5822 25.5954C24.7198 25.7132 24.8967 25.7747 25.0776 25.7677C25.2585 25.7608 25.4301 25.6858 25.5582 25.5577C25.6862 25.4297 25.7612 25.2581 25.7682 25.0771C25.7752 24.8962 25.7136 24.7193 25.5959 24.5818L24.5822 23.5682ZM11.3691 23.5682L10.3555 24.5818C10.2802 24.6462 10.2191 24.7255 10.176 24.8147C10.1328 24.9039 10.1086 25.0011 10.1047 25.1001C10.1009 25.1991 10.1176 25.2978 10.1537 25.3901C10.1899 25.4823 10.2447 25.5661 10.3148 25.6362C10.3848 25.7062 10.4686 25.761 10.5609 25.7972C10.6531 25.8333 10.7518 25.85 10.8508 25.8462C10.9498 25.8423 11.047 25.8181 11.1362 25.7749C11.2254 25.7318 11.3047 25.6707 11.3691 25.5954L12.3827 24.5818C12.5005 24.4443 12.5621 24.2674 12.5551 24.0864C12.5481 23.9055 12.4731 23.7339 12.345 23.6059C12.217 23.4778 12.0454 23.4028 11.8645 23.3958C11.6835 23.3889 11.5066 23.4504 11.3691 23.5682ZM28.0401 17.2563H26.6023C26.4116 17.2563 26.2288 17.3321 26.094 17.4669C25.9592 17.6017 25.8834 17.7846 25.8834 17.9752C25.8834 18.1659 25.9592 18.3487 26.094 18.4836C26.2288 18.6184 26.4116 18.6941 26.6023 18.6941H28.0401C28.2307 18.6941 28.4136 18.6184 28.5484 18.4836C28.6832 18.3487 28.759 18.1659 28.759 17.9752C28.759 17.7846 28.6832 17.6017 28.5484 17.4669C28.4136 17.3321 28.2307 17.2563 28.0401 17.2563ZM10.0679 17.9752C10.0679 17.7846 9.99219 17.6017 9.85737 17.4669C9.72255 17.3321 9.5397 17.2563 9.34904 17.2563H7.91127C7.72061 17.2563 7.53776 17.3321 7.40294 17.4669C7.26812 17.6017 7.19238 17.7846 7.19238 17.9752C7.19238 18.1659 7.26812 18.3487 7.40294 18.4836C7.53776 18.6184 7.72061 18.6941 7.91127 18.6941H9.34904C9.5397 18.6941 9.72255 18.6184 9.85737 18.4836C9.99219 18.3487 10.0679 18.1659 10.0679 17.9752ZM17.9757 25.883C17.785 25.883 17.6022 25.9587 17.4673 26.0935C17.3325 26.2284 17.2568 26.4112 17.2568 26.6019V28.0396C17.2568 28.2303 17.3325 28.4132 17.4673 28.548C17.6022 28.6828 17.785 28.7585 17.9757 28.7585C18.1663 28.7585 18.3492 28.6828 18.484 28.548C18.6188 28.4132 18.6946 28.2303 18.6946 28.0396V26.6019C18.6946 26.4112 18.6188 26.2284 18.484 26.0935C18.3492 25.9587 18.1663 25.883 17.9757 25.883ZM27.5225 21.2462L26.1997 20.6854C26.1122 20.6443 26.0172 20.6212 25.9205 20.6176C25.8239 20.6139 25.7274 20.6299 25.6371 20.6644C25.5467 20.699 25.4642 20.7514 25.3946 20.8186C25.325 20.8858 25.2696 20.9663 25.2319 21.0554C25.1941 21.1444 25.1747 21.2402 25.1748 21.337C25.175 21.4337 25.1947 21.5294 25.2327 21.6184C25.2707 21.7074 25.3263 21.7878 25.3961 21.8547C25.4659 21.9217 25.5485 21.9739 25.639 22.0082L26.9618 22.5689C27.0493 22.6101 27.1443 22.6332 27.2409 22.6368C27.3376 22.6404 27.434 22.6245 27.5244 22.5899C27.6148 22.5554 27.6973 22.5029 27.7669 22.4358C27.8365 22.3686 27.8919 22.2881 27.9296 22.199C27.9674 22.1099 27.9868 22.0141 27.9866 21.9174C27.9865 21.8206 27.9668 21.7249 27.9288 21.6359C27.8908 21.547 27.8352 21.4666 27.7654 21.3996C27.6956 21.3326 27.613 21.2804 27.5225 21.2462ZM14.8845 25.2576C14.709 25.1833 14.5113 25.1818 14.3348 25.2532C14.1582 25.3247 14.0172 25.4632 13.9427 25.6386L13.382 26.9613C13.3408 27.0489 13.3177 27.1438 13.3141 27.2405C13.3105 27.3372 13.3264 27.4336 13.361 27.524C13.3955 27.6143 13.448 27.6968 13.5151 27.7664C13.5823 27.8361 13.6628 27.8914 13.7519 27.9292C13.841 27.9669 13.9368 27.9863 14.0335 27.9862C14.1303 27.9861 14.226 27.9664 14.315 27.9284C14.4039 27.8904 14.4843 27.8348 14.5513 27.765C14.6183 27.6951 14.6705 27.6125 14.7047 27.522L15.2655 26.1993C15.3397 26.0239 15.3412 25.8262 15.2698 25.6496C15.1984 25.473 15.0598 25.332 14.8845 25.2576ZM10.643 20.937C10.5712 20.7609 10.4326 20.6204 10.2574 20.5463C10.0823 20.4722 9.88488 20.4705 9.70848 20.5417L8.37854 21.0808C8.28553 21.112 8.1999 21.162 8.12691 21.2275C8.05392 21.2931 7.99513 21.3729 7.95415 21.4621C7.91317 21.5512 7.89087 21.6478 7.88863 21.7459C7.88639 21.844 7.90425 21.9415 7.94111 22.0324C7.97797 22.1233 8.03305 22.2058 8.10297 22.2746C8.17288 22.3434 8.25615 22.3972 8.34764 22.4327C8.43912 22.4681 8.5369 22.4845 8.63494 22.4807C8.73298 22.4769 8.82921 22.4531 8.91771 22.4108L10.2476 21.8716C10.4238 21.7998 10.5643 21.6612 10.6384 21.486C10.7125 21.3108 10.7142 21.1134 10.643 20.937ZM21.872 25.7033C21.793 25.5382 21.654 25.4094 21.4833 25.3433C21.3126 25.2772 21.1231 25.2787 20.9535 25.3474C20.7839 25.4162 20.6469 25.5471 20.5704 25.7134C20.494 25.8797 20.4838 26.0689 20.5421 26.2424L21.0813 27.5724C21.1603 27.7375 21.2993 27.8662 21.47 27.9323C21.6407 27.9984 21.8302 27.997 21.9998 27.9282C22.1694 27.8594 22.3064 27.7285 22.3829 27.5622C22.4593 27.3959 22.4695 27.2067 22.4112 27.0332L21.872 25.7033Z" fill="#27450E"/>
</svg>
