<svg width="25" height="28" viewBox="0 0 25 28" fill="none" xmlns="http://www.w3.org/2000/svg">
<path d="M12.4805 0.000155147C12.1494 0.00542147 11.8338 0.144138 11.6031 0.385861C11.3724 0.627583 11.2454 0.952563 11.25 1.28947V2.81977C6.35558 3.47467 2.49971 7.58281 2.49971 12.7368V16.5526C2.49971 19.8031 0.365856 22.013 0.365856 22.013C0.191135 22.1909 0.0721651 22.4175 0.0239823 22.6642C-0.0242005 22.9109 0.000566372 23.1666 0.0951529 23.3989C0.189739 23.6313 0.3499 23.8299 0.555394 23.9697C0.760888 24.1095 1.00249 24.1841 1.24967 24.1842H8.74989C8.74989 26.2765 10.4437 28 12.5 28C14.5563 28 16.2501 26.2765 16.2501 24.1842H23.7503C23.9975 24.1841 24.2391 24.1095 24.4446 23.9697C24.6501 23.8299 24.8103 23.6313 24.9048 23.3989C24.9994 23.1666 25.0242 22.9109 24.976 22.6642C24.9278 22.4175 24.8089 22.1909 24.6341 22.013C24.6341 22.013 22.5003 19.8031 22.5003 16.5526V12.7368C22.5003 7.58281 18.6444 3.47467 13.75 2.81977V1.28947C13.7523 1.1193 13.721 0.950396 13.658 0.792752C13.595 0.635109 13.5015 0.491936 13.3831 0.371712C13.2648 0.251487 13.1239 0.156656 12.9688 0.0928345C12.8138 0.0290125 12.6477 -0.00250269 12.4805 0.000155147ZM12.4316 5.12017C12.478 5.1228 12.5245 5.1228 12.5708 5.12017C16.6928 5.16104 20.0002 8.53259 20.0002 12.7368V16.5526C20.0002 18.6554 20.6685 20.3821 21.3552 21.6404H3.64476C4.33149 20.3821 4.99978 18.6554 4.99978 16.5526V12.7368C4.99978 8.53174 8.30848 5.1597 12.4316 5.12017ZM11.25 24.1842H13.75C13.75 24.9029 13.2063 25.4561 12.5 25.4561C11.7937 25.4561 11.25 24.9029 11.25 24.1842Z" fill="#27450E"/>
</svg>
