<svg width="28" height="28" viewBox="0 0 28 28" fill="none" xmlns="http://www.w3.org/2000/svg">
<path d="M14 0C6.27522 0 0 6.27522 0 14C0 21.7248 6.27522 28 14 28C21.7248 28 28 21.7248 28 14C28 6.27522 21.7248 0 14 0ZM14 1.21739C21.0668 1.21739 26.7826 6.93315 26.7826 14C26.7826 21.0668 21.0668 26.7826 14 26.7826C6.93315 26.7826 1.21739 21.0668 1.21739 14C1.21739 6.93315 6.93315 1.21739 14 1.21739ZM14 5.47826C13.5157 5.47826 13.0512 5.67065 12.7088 6.01311C12.3663 6.35557 12.1739 6.82004 12.1739 7.30435C12.1739 7.78866 12.3663 8.25313 12.7088 8.59559C13.0512 8.93804 13.5157 9.13043 14 9.13043C14.4843 9.13043 14.9488 8.93804 15.2912 8.59559C15.6337 8.25313 15.8261 7.78866 15.8261 7.30435C15.8261 6.82004 15.6337 6.35557 15.2912 6.01311C14.9488 5.67065 14.4843 5.47826 14 5.47826ZM11.5652 11.5652V12.7826H12.1739H12.7826V20.6957H12.1739H11.5652V21.913H12.1739H12.7826H15.2174H15.8261H16.4348V20.6957H15.8261H15.2174V11.5652H14.6087H12.1739H11.5652Z" fill="#E27600"/>
</svg>
