<svg width="52" height="52" viewBox="0 0 52 52" fill="none" xmlns="http://www.w3.org/2000/svg">
<path d="M25.9342 0C40.2449 0 51.8687 11.6238 51.8687 25.9344C51.8687 40.245 40.2449 51.8688 25.9342 51.8688C11.6236 51.8688 -0.000190735 40.245 -0.000190735 25.9344C-0.000190735 11.6238 11.6236 0 25.9342 0ZM25.9342 2.25517C12.8437 2.25517 2.25498 12.8439 2.25498 25.9344C2.25498 39.025 12.8437 49.6137 25.9342 49.6137C39.0248 49.6137 49.6135 39.025 49.6135 25.9344C49.6135 12.8439 39.0248 2.25517 25.9342 2.25517ZM30.5855 15.7862C30.8366 15.8126 31.0744 15.9271 31.255 16.1033L40.0995 24.983L40.2052 25.0183C40.2316 25.0403 40.2537 25.0623 40.2757 25.0887V25.124C40.3021 25.146 40.3241 25.168 40.3462 25.1944C40.3726 25.2165 40.3946 25.2385 40.4166 25.2649C40.4166 25.2781 40.4166 25.2869 40.4166 25.3002C40.4431 25.3222 40.4651 25.3442 40.4871 25.3706C40.4871 25.3838 40.4871 25.3927 40.4871 25.4059C40.5576 25.5248 40.606 25.6569 40.6281 25.7935C40.6281 25.8067 40.6281 25.8155 40.6281 25.8287C40.6281 25.8639 40.6281 25.8992 40.6281 25.9344C40.6281 25.9564 40.6281 25.9829 40.6281 26.0049C40.6281 26.0181 40.6281 26.0269 40.6281 26.0401C40.6104 26.1899 40.562 26.3308 40.4871 26.463C40.4783 26.485 40.4651 26.5114 40.4519 26.5334C40.4387 26.5467 40.4298 26.5555 40.4166 26.5687C40.4078 26.5907 40.3946 26.6171 40.3814 26.6392C40.3682 26.6524 40.3594 26.6612 40.3462 26.6744C40.3329 26.6876 40.3241 26.6964 40.3109 26.7096C40.2977 26.7228 40.2889 26.7317 40.2757 26.7449C40.214 26.8109 40.1435 26.8726 40.0643 26.9211L31.255 35.7655C30.8057 36.2148 30.0834 36.2148 29.6341 35.7655C29.1848 35.3163 29.1848 34.5939 29.6341 34.1446L36.7167 27.062H12.4032C11.998 27.0664 11.6192 26.855 11.4122 26.5026C11.2096 26.1502 11.2096 25.7186 11.4122 25.3662C11.6192 25.0139 11.998 24.8024 12.4032 24.8068H36.7167L29.6341 17.7242C29.2685 17.385 29.1716 16.8477 29.3919 16.4028C29.6077 15.9535 30.0966 15.7069 30.5855 15.7862Z" fill="white"/>
</svg>
