<svg width="109" height="109" viewBox="0 0 109 109" fill="none" xmlns="http://www.w3.org/2000/svg">
<g filter="url(#filter0_d_242_404)">
<path d="M54.312 26.8384C48.0863 26.8384 42.1156 29.3115 37.7133 33.7138C33.3111 38.1161 30.8379 44.0868 30.8379 50.3125C30.8379 56.5382 33.3111 62.509 37.7133 66.9112C42.1156 71.3135 48.0863 73.7867 54.312 73.7867C60.5378 73.7867 66.5085 71.3135 70.9108 66.9112C75.313 62.509 77.7862 56.5382 77.7862 50.3125C77.7862 44.0868 75.313 38.1161 70.9108 33.7138C66.5085 29.3115 60.5378 26.8384 54.312 26.8384Z" fill="#EEEEEE"/>
<path d="M54.312 26.8384C49.6693 26.8384 45.1308 28.2151 41.2705 30.7945C37.4102 33.3739 34.4015 37.04 32.6248 41.3294C30.8481 45.6187 30.3832 50.3386 31.289 54.8921C32.1947 59.4456 34.4304 63.6283 37.7133 66.9112C40.9962 70.1942 45.1789 72.4299 49.7325 73.3356C54.286 74.2414 59.0059 73.7765 63.2952 71.9998C67.5845 70.2231 71.2507 67.2144 73.8301 63.3541C76.4094 59.4938 77.7862 54.9553 77.7862 50.3125C77.7862 47.2299 77.179 44.1774 75.9993 41.3294C74.8196 38.4813 73.0905 35.8936 70.9108 33.7138C68.731 31.534 66.1432 29.8049 63.2952 28.6252C60.4472 27.4456 57.3947 26.8384 54.312 26.8384ZM54.312 68.7565C51.2978 68.757 48.3293 68.0187 45.6664 66.6062C43.0036 65.1937 40.7275 63.1502 39.0373 60.6543C37.3472 58.1584 36.2945 55.2864 35.9714 52.2895C35.6483 49.2926 36.0647 46.2621 37.184 43.4634C38.3034 40.6646 40.0916 38.1829 42.3922 36.2353C44.6928 34.2878 47.4357 32.9337 50.3809 32.2917C53.326 31.6497 56.3836 31.7394 59.286 32.5527C62.1885 33.3661 64.8474 34.8784 67.03 36.9574L67.6001 37.5191C67.8181 37.7427 68.0276 37.9718 68.2289 38.2066C70.5518 40.8766 72.0575 44.1586 72.5663 47.6609C73.0751 51.1632 72.5655 54.7379 71.0984 57.9586C69.6312 61.1792 67.2685 63.9097 64.292 65.8244C61.3156 67.739 57.8511 68.7568 54.312 68.7565Z" fill="white"/>
<path d="M54.3127 68.7565C49.4211 68.7565 44.7298 66.8133 41.2709 63.3544C37.812 59.8955 35.8688 55.2042 35.8688 50.3125H34.4771C33.9853 50.3109 33.4993 50.4174 33.0533 50.6245C32.6073 50.8316 32.2123 51.1343 31.8963 51.5111C31.5803 51.8879 31.351 52.3295 31.2248 52.8048C31.0985 53.2801 31.0783 53.7773 31.1656 54.2612C32.0936 59.7275 34.9265 64.6889 39.1625 68.2663C43.3985 71.8437 48.764 73.8063 54.3085 73.8063C59.8531 73.8063 65.2186 71.8437 69.4546 68.2663C73.6906 64.6889 76.5235 59.7275 77.4515 54.2612C77.5387 53.778 77.5187 53.2815 77.3929 52.8068C77.2671 52.3322 77.0386 51.8909 76.7235 51.5143C76.4084 51.1377 76.0145 50.8348 75.5695 50.6272C75.1246 50.4195 74.6394 50.3121 74.1484 50.3125H72.7567C72.7567 55.2042 70.8135 59.8955 67.3546 63.3544C63.8957 66.8133 59.2044 68.7565 54.3127 68.7565Z" fill="white"/>
<path d="M54.3125 26C49.504 26 44.8034 27.4259 40.8052 30.0974C36.807 32.7689 33.6908 36.566 31.8507 41.0085C30.0105 45.451 29.5291 50.3395 30.4672 55.0556C31.4053 59.7718 33.7208 64.1039 37.121 67.504C40.5211 70.9042 44.8532 73.2197 49.5694 74.1578C54.2855 75.096 59.174 74.6145 63.6165 72.7743C68.059 70.9342 71.8561 67.818 74.5276 63.8198C77.1991 59.8216 78.625 55.1211 78.625 50.3125C78.625 47.1197 77.9962 43.9582 76.7743 41.0085C75.5525 38.0588 73.7617 35.3786 71.504 33.121C69.2464 30.8633 66.5662 29.0725 63.6165 27.8507C60.6668 26.6289 57.5053 26 54.3125 26ZM54.3125 72.9483C49.8356 72.9483 45.4592 71.6207 41.7367 69.1335C38.0143 66.6462 35.113 63.111 33.3998 58.9748C31.6865 54.8387 31.2383 50.2874 32.1117 45.8965C32.9851 41.5056 35.1409 37.4723 38.3066 34.3066C41.4723 31.1409 45.5056 28.9851 49.8965 28.1117C54.2874 27.2383 58.8387 27.6865 62.9748 29.3998C67.111 31.113 70.6462 34.0143 73.1335 37.7367C75.6207 41.4592 76.9483 45.8356 76.9483 50.3125C76.9483 56.3159 74.5635 62.0734 70.3184 66.3184C66.0734 70.5634 60.3159 72.9483 54.3125 72.9483Z" fill="#27450E"/>
<path d="M51.7976 57.8575C51.5752 57.8575 51.362 57.9459 51.2048 58.1031C51.0475 58.2603 50.9592 58.4736 50.9592 58.6959C50.9474 58.8089 50.9609 58.9231 50.9988 59.0302C51.0368 59.1374 51.0982 59.2346 51.1785 59.315C51.2589 59.3953 51.3561 59.4567 51.4632 59.4947C51.5703 59.5326 51.6846 59.5461 51.7976 59.5343H56.8278C57.0501 59.5343 57.2633 59.4459 57.4206 59.2887C57.5778 59.1315 57.6661 58.9183 57.6661 58.6959C57.6661 58.4736 57.5778 58.2603 57.4206 58.1031C57.2633 57.9459 57.0501 57.8575 56.8278 57.8575H55.151V46.1205H55.9894C56.2117 46.1205 56.425 46.0321 56.5822 45.8749C56.7394 45.7177 56.8278 45.5045 56.8278 45.2821C56.8278 45.0598 56.7394 44.8465 56.5822 44.6893C56.425 44.5321 56.2117 44.4437 55.9894 44.4437H52.6359C52.4136 44.4437 52.2004 44.5321 52.0431 44.6893C51.8859 44.8465 51.7976 45.0598 51.7976 45.2821C51.7857 45.3951 51.7993 45.5093 51.8372 45.6165C51.8751 45.7236 51.9365 45.8208 52.0169 45.9012C52.0972 45.9815 52.1945 46.0429 52.3016 46.0809C52.4087 46.1188 52.5229 46.1323 52.6359 46.1205H53.4743V57.8575H51.7976ZM54.3127 39.4136C53.868 39.4136 53.4415 39.5902 53.127 39.9047C52.8126 40.2191 52.6359 40.6456 52.6359 41.0903C52.6359 41.535 52.8126 41.9615 53.127 42.2759C53.4415 42.5904 53.868 42.767 54.3127 42.767C54.7574 42.767 55.1838 42.5904 55.4983 42.2759C55.8127 41.9615 55.9894 41.535 55.9894 41.0903C55.9894 40.6456 55.8127 40.2191 55.4983 39.9047C55.1838 39.5902 54.7574 39.4136 54.3127 39.4136ZM38.3838 50.3123V51.989C38.3838 52.2114 38.4721 52.4246 38.6293 52.5818C38.7866 52.739 38.9998 52.8274 39.2222 52.8274C39.4445 52.8274 39.6577 52.739 39.815 52.5818C39.9722 52.4246 40.0605 52.2114 40.0605 51.989V50.3123C40.0605 50.0899 39.9722 49.8767 39.815 49.7195C39.6577 49.5622 39.4445 49.4739 39.2222 49.4739C38.9998 49.4739 38.7866 49.5622 38.6293 49.7195C38.4721 49.8767 38.3838 50.0899 38.3838 50.3123ZM42.5756 50.3123V51.989C42.5756 52.2114 42.6639 52.4246 42.8212 52.5818C42.9784 52.739 43.1916 52.8274 43.414 52.8274C43.6363 52.8274 43.8496 52.739 44.0068 52.5818C44.164 52.4246 44.2523 52.2114 44.2523 51.989V50.3123C44.2523 50.0899 44.164 49.8767 44.0068 49.7195C43.8496 49.5622 43.6363 49.4739 43.414 49.4739C43.1916 49.4739 42.9784 49.5622 42.8212 49.7195C42.6639 49.8767 42.5756 50.0899 42.5756 50.3123ZM46.7674 50.3123V51.989C46.7674 52.2114 46.8557 52.4246 47.013 52.5818C47.1702 52.739 47.3834 52.8274 47.6058 52.8274C47.8281 52.8274 48.0414 52.739 48.1986 52.5818C48.3558 52.4246 48.4441 52.2114 48.4441 51.989V50.3123C48.4441 50.0899 48.3558 49.8767 48.1986 49.7195C48.0414 49.5622 47.8281 49.4739 47.6058 49.4739C47.3834 49.4739 47.1702 49.5622 47.013 49.7195C46.8557 49.8767 46.7674 50.0899 46.7674 50.3123ZM60.1812 50.3123V51.989C60.1812 52.2114 60.2695 52.4246 60.4268 52.5818C60.584 52.739 60.7972 52.8274 61.0196 52.8274C61.2419 52.8274 61.4552 52.739 61.6124 52.5818C61.7696 52.4246 61.8579 52.2114 61.8579 51.989V50.3123C61.8579 50.0899 61.7696 49.8767 61.6124 49.7195C61.4552 49.5622 61.2419 49.4739 61.0196 49.4739C60.7972 49.4739 60.584 49.5622 60.4268 49.7195C60.2695 49.8767 60.1812 50.0899 60.1812 50.3123ZM65.2114 52.8274C65.4337 52.8274 65.647 52.739 65.8042 52.5818C65.9614 52.4246 66.0497 52.2114 66.0497 51.989V50.3123C66.0497 50.0899 65.9614 49.8767 65.8042 49.7195C65.647 49.5622 65.4337 49.4739 65.2114 49.4739C64.989 49.4739 64.7758 49.5622 64.6186 49.7195C64.4613 49.8767 64.373 50.0899 64.373 50.3123V51.989C64.373 52.2114 64.4613 52.4246 64.6186 52.5818C64.7758 52.739 64.989 52.8274 65.2114 52.8274ZM70.2416 51.989V50.3123C70.2416 50.0899 70.1532 49.8767 69.996 49.7195C69.8388 49.5622 69.6255 49.4739 69.4032 49.4739C69.1808 49.4739 68.9676 49.5622 68.8104 49.7195C68.6532 49.8767 68.5648 50.0899 68.5648 50.3123V51.989C68.5648 52.2114 68.6532 52.4246 68.8104 52.5818C68.9676 52.739 69.1808 52.8274 69.4032 52.8274C69.6255 52.8274 69.8388 52.739 69.996 52.5818C70.1532 52.4246 70.2416 52.2114 70.2416 51.989Z" fill="#E27600"/>
<path d="M54.3128 69.5949C51.6649 69.5896 49.0465 69.0389 46.6208 67.9773C44.195 66.9157 42.0139 65.3658 40.2134 63.4243C38.4128 61.4828 37.0315 59.1913 36.1554 56.6925C35.2793 54.1938 34.9272 51.5414 35.1211 48.9006C35.315 46.2598 36.0507 43.6872 37.2824 41.3433C38.5141 38.9993 40.2154 36.9341 42.2802 35.2764C44.345 33.6187 46.7291 32.4041 49.2839 31.7081C51.8387 31.0122 54.5094 30.85 57.1297 31.2314C57.3521 31.2637 57.5525 31.3829 57.6869 31.563C57.8213 31.743 57.8787 31.969 57.8465 32.1914C57.8143 32.4137 57.695 32.6141 57.515 32.7486C57.335 32.883 57.1089 32.9404 56.8866 32.9082C56.0346 32.779 55.1745 32.7118 54.3128 32.707C50.1502 32.7139 46.1247 34.1955 42.9508 36.8889C39.777 39.5822 37.6601 43.313 36.976 47.419C36.2918 51.525 37.0847 55.7407 39.2138 59.3176C41.3429 62.8945 44.6706 65.6013 48.6061 66.9575C52.5416 68.3137 56.8303 68.2316 60.711 66.7258C64.5917 65.22 67.8133 62.3878 69.804 58.7321C71.7947 55.0763 72.4257 50.8335 71.5849 46.7566C70.7442 42.6798 68.4861 39.0327 65.2115 36.4628C65.037 36.325 64.9243 36.1234 64.8984 35.9025C64.8725 35.6816 64.9353 35.4595 65.0732 35.2849C65.211 35.1104 65.4126 34.9977 65.6335 34.9718C65.8544 34.9459 66.0765 35.0087 66.2511 35.1466C69.4075 37.625 71.712 41.0264 72.8434 44.8768C73.9747 48.7272 73.8764 52.8347 72.5623 56.6266C71.2482 60.4185 68.7837 63.7059 65.5124 66.0305C62.2411 68.3552 58.326 69.6012 54.3128 69.5949Z" fill="#27450E"/>
<path d="M62.6961 34.7187C62.5649 34.718 62.4357 34.6864 62.3189 34.6265C61.6907 34.3086 61.044 34.0286 60.3823 33.7882C60.1733 33.7115 60.0033 33.5549 59.9097 33.3528C59.8162 33.1508 59.8067 32.9199 59.8834 32.7109C59.9601 32.5019 60.1167 32.3319 60.3188 32.2383C60.5208 32.1448 60.7517 32.1353 60.9607 32.212C61.6858 32.4795 62.3941 32.7902 63.0818 33.1426C63.2451 33.2307 63.3746 33.3705 63.4499 33.5401C63.5253 33.7097 63.5422 33.8995 63.4981 34.0797C63.454 34.26 63.3513 34.4205 63.2062 34.5361C63.0611 34.6518 62.8817 34.716 62.6961 34.7187Z" fill="#27450E"/>
</g>
<defs>
<filter id="filter0_d_242_404" x="0" y="0" width="108.625" height="108.625" filterUnits="userSpaceOnUse" color-interpolation-filters="sRGB">
<feFlood flood-opacity="0" result="BackgroundImageFix"/>
<feColorMatrix in="SourceAlpha" type="matrix" values="0 0 0 0 0 0 0 0 0 0 0 0 0 0 0 0 0 0 127 0" result="hardAlpha"/>
<feOffset dy="4"/>
<feGaussianBlur stdDeviation="15"/>
<feComposite in2="hardAlpha" operator="out"/>
<feColorMatrix type="matrix" values="0 0 0 0 0 0 0 0 0 0 0 0 0 0 0 0 0 0 0.25 0"/>
<feBlend mode="normal" in2="BackgroundImageFix" result="effect1_dropShadow_242_404"/>
<feBlend mode="normal" in="SourceGraphic" in2="effect1_dropShadow_242_404" result="shape"/>
</filter>
</defs>
</svg>
