<svg width="46" height="41" viewBox="0 0 46 41" fill="none" xmlns="http://www.w3.org/2000/svg">
<path d="M42.0343 20.918L22.9998 5.05591L3.96533 20.918V39.9525H42.0343V20.918Z" fill="#FAEFDE"/>
<path d="M22.9998 5.05591L3.96533 20.918V22.2663C3.96533 23.1387 4.67913 23.8525 5.55154 23.8525C5.94809 23.8525 6.26533 23.6938 6.58257 23.4559L22.524 10.2111C22.8412 9.97315 23.2377 9.97315 23.555 10.2111L39.4964 23.4559C40.1308 24.0111 41.1619 23.9318 41.7171 23.218C41.955 22.9007 42.1136 22.5835 42.1136 22.1869V20.918L22.9998 5.05591Z" fill="#EFD8BE"/>
<path d="M3.96533 32.0215H42.0343V39.9525H3.96533V32.0215Z" fill="white"/>
<path d="M23.4757 5.45236L43.8585 22.1868C44.1757 22.4248 44.7309 22.4248 44.9688 22.1075C45.0481 21.9489 45.1275 21.7903 45.1275 21.6317V19.3317C45.1275 18.8558 44.8895 18.38 44.5723 18.142L24.0309 1.0903C23.4757 0.614433 22.6033 0.614433 22.0481 1.0903L1.42745 18.0627C1.0309 18.38 0.792969 18.7765 0.792969 19.3317V21.6317C0.792969 22.1075 1.18952 22.4248 1.58607 22.4248C1.74469 22.4248 1.90331 22.3455 2.06193 22.2662L22.4447 5.53167C22.7619 5.21443 23.2378 5.21443 23.4757 5.45236Z" fill="white"/>
<path d="M11.1033 34.4009C10.6275 34.4009 10.3102 34.7181 10.3102 35.194V36.7802C10.3102 37.2561 10.6275 37.5733 11.1033 37.5733C11.5792 37.5733 11.8965 37.2561 11.8965 36.7802V35.194C11.8965 34.7181 11.5792 34.4009 11.1033 34.4009ZM7.13783 34.4009C6.66197 34.4009 6.34473 34.7181 6.34473 35.194V36.7802C6.34473 37.2561 6.66197 37.5733 7.13783 37.5733C7.61369 37.5733 7.93093 37.2561 7.93093 36.7802V35.194C7.93093 34.7181 7.61369 34.4009 7.13783 34.4009ZM34.8965 34.4009C34.4206 34.4009 34.1033 34.7181 34.1033 35.194V36.7802C34.1033 37.2561 34.4206 37.5733 34.8965 37.5733C35.3723 37.5733 35.6896 37.2561 35.6896 36.7802V35.194C35.6896 34.7181 35.3723 34.4009 34.8965 34.4009ZM38.862 34.4009C38.3861 34.4009 38.0689 34.7181 38.0689 35.194V36.7802C38.0689 37.2561 38.3861 37.5733 38.862 37.5733C39.3378 37.5733 39.6551 37.2561 39.6551 36.7802V35.194C39.6551 34.7181 39.3378 34.4009 38.862 34.4009Z" fill="#27450E"/>
<path d="M23.0001 10.6077C22.1587 10.6077 21.3518 10.9419 20.7568 11.5368C20.1619 12.1318 19.8276 12.9387 19.8276 13.7801C19.8276 14.6215 20.1619 15.4284 20.7568 16.0233C21.3518 16.6183 22.1587 16.9525 23.0001 16.9525C23.8414 16.9525 24.6483 16.6183 25.2433 16.0233C25.8382 15.4284 26.1725 14.6215 26.1725 13.7801C26.1725 12.9387 25.8382 12.1318 25.2433 11.5368C24.6483 10.9419 23.8414 10.6077 23.0001 10.6077Z" fill="white"/>
<path d="M23.0002 9.8147C20.7795 9.8147 19.0347 11.5595 19.0347 13.7802C19.0347 16.0009 20.7795 17.7457 23.0002 17.7457C25.2209 17.7457 26.9657 16.0009 26.9657 13.7802C26.9657 11.5595 25.2209 9.8147 23.0002 9.8147ZM23.0002 16.3181C21.5726 16.3181 20.4623 15.2078 20.4623 13.7802C20.4623 12.3526 21.5726 11.2423 23.0002 11.2423C24.4278 11.2423 25.5381 12.3526 25.5381 13.7802C25.5381 15.2078 24.4278 16.3181 23.0002 16.3181Z" fill="#27450E"/>
<path d="M18.2412 24.0906H27.7585V39.9526H18.2412V24.0906Z" fill="#E27600"/>
<path d="M24.5861 30.4353C24.1102 30.4353 23.793 30.7525 23.793 31.2284V32.8146C23.793 33.2905 24.1102 33.6077 24.5861 33.6077C25.0619 33.6077 25.3792 33.2905 25.3792 32.8146V31.2284C25.3792 30.7525 25.0619 30.4353 24.5861 30.4353Z" fill="#27450E"/>
<path d="M43.3828 22.8216C44.0966 23.3767 45.0483 23.2974 45.6034 22.5836C45.8414 22.2664 46 21.9491 46 21.5526V19.3319C46 18.6181 45.6828 17.9043 45.1276 17.5078L24.5069 0.535345C23.6345 -0.178448 22.3655 -0.178448 21.4931 0.535345L12.6897 7.75259V5.13534C12.6897 4.65948 12.3724 4.34224 11.8966 4.34224C11.4207 4.34224 11.1034 4.65948 11.1034 5.13534V9.10086L9.51724 10.3698V1.96293C9.51724 1.48707 9.2 1.16983 8.72414 1.16983C8.24828 1.16983 7.93103 1.48707 7.93103 1.96293V11.4802C7.93103 11.5595 7.93103 11.5595 7.93103 11.6388L0.872414 17.5078C0.317241 17.9043 0 18.6181 0 19.3319V21.6319C0 22.2664 0.317241 22.8216 0.951724 23.0595C1.5069 23.2974 2.14138 23.2181 2.61724 22.8216L3.17241 22.3457V39.1595H0.793103C0.317241 39.1595 0 39.4767 0 39.9526C0 40.4284 0.317241 40.7457 0.793103 40.7457H45.2069C45.6828 40.7457 46 40.4284 46 39.9526C46 39.4767 45.6828 39.1595 45.2069 39.1595H42.8276V22.3457L43.3828 22.8216ZM15.8621 39.1595H14.2759H4.75862V32.8147H17.4483V39.1595H15.8621ZM19.0345 39.1595V24.8836H26.9655V39.1595H19.0345ZM41.2414 39.1595H31.7241H30.1379H28.5517V32.8147H41.2414V39.1595ZM41.2414 24.8836V31.2284H28.5517V24.8836C28.5517 24.0112 27.8379 23.2974 26.9655 23.2974H19.0345C18.1621 23.2974 17.4483 24.0112 17.4483 24.8836V31.2284H4.75862V24.8836V21.0767L23 6.08707L41.2414 21.0767V24.8836ZM24.031 4.89741C23.4759 4.42155 22.6034 4.42155 22.0483 4.89741L1.58621 21.6319V19.3319C1.58621 19.094 1.66552 18.856 1.90345 18.6974L22.5241 1.725C22.8414 1.48707 23.2379 1.48707 23.5552 1.725L44.1759 18.6974C44.3345 18.856 44.4931 19.094 44.4931 19.3319V21.6319L24.031 4.89741Z" fill="#27450E"/>
<path d="M15.069 34.4009C14.5931 34.4009 14.2759 34.7181 14.2759 35.194V36.7802C14.2759 37.2561 14.5931 37.5733 15.069 37.5733C15.5448 37.5733 15.8621 37.2561 15.8621 36.7802V35.194C15.8621 34.7181 15.5448 34.4009 15.069 34.4009ZM30.9311 34.4009C30.4552 34.4009 30.1379 34.7181 30.1379 35.194V36.7802C30.1379 37.2561 30.4552 37.5733 30.9311 37.5733C31.4069 37.5733 31.7242 37.2561 31.7242 36.7802V35.194C31.7242 34.7181 31.4069 34.4009 30.9311 34.4009Z" fill="#27450E"/>
</svg>
