<svg width="46" height="41" viewBox="0 0 46 41" fill="none" xmlns="http://www.w3.org/2000/svg">
<path d="M42.0345 17.7715L23.0001 1.90942L3.96558 17.7715V39.9784H42.0345V17.7715Z" fill="#FAEFDE"/>
<path d="M23.0001 3.49561L3.96558 19.3577V20.7297C3.96558 22.0748 5.53433 22.8093 6.56696 21.948L22.4925 8.67695C22.7867 8.43188 23.2142 8.43188 23.5076 8.67695L39.4332 21.948C40.4658 22.8093 42.0345 22.0748 42.0345 20.7297V19.3577L23.0001 3.49561Z" fill="white"/>
<path d="M23.0001 5.28014L43.6208 21.737C44.5567 22.4564 45.207 21.4491 45.207 20.269V18.9017C45.207 18.4599 45.0016 18.0436 44.6518 17.7739L23.0001 0.323242L0.793213 18.2014V20.0263C0.793213 21.3056 1.36504 22.5174 2.37942 21.737L23.0001 5.28014Z" fill="#E27600"/>
<path d="M16.6552 28.8749C16.6552 28.8749 17.4483 19.3577 23 19.3577C28.5517 19.3577 29.3448 28.8749 29.3448 28.8749L30.1379 31.2542L15.8621 30.4611L16.6552 28.8749Z" fill="white"/>
<path d="M17.4482 28.875L15.0688 33.6336H30.9309L28.5516 28.875H17.4482Z" fill="#E27600"/>
<path d="M43.4066 22.8711C43.8848 23.2637 44.5296 23.3454 45.0911 23.0797C45.6518 22.814 46 22.2652 46 21.6458V19.3148C46 18.6003 45.6836 17.9301 45.1308 17.4772L24.5101 0.538914C23.6345 -0.179638 22.3647 -0.179638 21.4891 0.538914L0.868448 17.4764C0.316448 17.9293 0 18.5995 0 19.314V21.645C0 22.2644 0.348172 22.814 0.908897 23.0789C1.12779 23.1828 1.36017 23.2336 1.59017 23.2336C1.94866 23.2336 2.30159 23.1098 2.59345 22.8703L3.17241 22.3953V39.1853H0.793103C0.354517 39.1853 0 39.5398 0 39.9784C0 40.4169 0.354517 40.7715 0.793103 40.7715H3.17241H42.8276H45.2069C45.6455 40.7715 46 40.4169 46 39.9784C46 39.5398 45.6455 39.1853 45.2069 39.1853H42.8276V22.3953L43.4066 22.8711ZM1.58621 21.6458V19.3148C1.58621 19.0769 1.69169 18.8533 1.87569 18.7026L22.4964 1.76426C22.6423 1.64529 22.8208 1.58422 23 1.58422C23.1792 1.58422 23.3577 1.6445 23.5036 1.76426L44.1243 18.7034C44.3083 18.8525 44.4138 19.0769 44.4138 19.314V21.645L24.0072 4.88274L24.0064 4.88195C23.4259 4.40529 22.5789 4.40291 21.9936 4.88274L1.58621 21.6458ZM41.2414 39.1853H4.75862V21.0922L22.9992 6.10888L23 6.10809L41.2414 21.0922V39.1853Z" fill="#27450E"/>
<path d="M37.2758 28.0817C37.2758 30.5197 36.3375 32.8625 34.6347 34.6763C34.3349 34.9959 34.3516 35.498 34.6704 35.7978C34.8235 35.9413 35.0186 36.0127 35.2129 36.0127C35.4246 36.0127 35.6348 35.9294 35.7911 35.7629C37.7714 33.6524 38.862 30.9249 38.862 28.0817C38.862 25.2384 37.7722 22.5117 35.7927 20.4005C35.4921 20.0824 34.9916 20.0666 34.6712 20.3648C34.3524 20.6646 34.3357 21.1666 34.6355 21.4862C36.3375 23.3016 37.2758 25.6437 37.2758 28.0817Z" fill="#27450E"/>
<path d="M34.087 28.0734C34.087 28.7221 33.8784 29.3431 33.4668 29.9181C33.2122 30.2742 33.2939 30.7699 33.65 31.0253C33.7904 31.1252 33.9514 31.1736 34.1108 31.1736C34.3583 31.1736 34.6018 31.0578 34.7564 30.8421C35.356 30.0038 35.6724 29.0465 35.6724 28.0742C35.6724 27.0717 35.337 26.089 34.7017 25.2317C34.4408 24.8796 33.9443 24.805 33.5929 25.0659C33.2408 25.3261 33.1662 25.8233 33.4272 26.1747C33.8658 26.7656 34.087 27.4048 34.087 28.0734ZM8.6863 28.0821C8.6863 25.6433 9.62455 23.3013 11.3265 21.4874C11.6263 21.1678 11.6097 20.6658 11.2909 20.366C10.9704 20.0662 10.4692 20.0813 10.1694 20.4017C8.19061 22.5106 7.1001 25.2388 7.1001 28.0829C7.1001 30.9262 8.19062 33.6537 10.1702 35.7641C10.3272 35.9299 10.5374 36.0131 10.7492 36.0131C10.9435 36.0131 11.1386 35.9418 11.2924 35.7982C11.6113 35.4984 11.6279 34.9964 11.3281 34.6768C9.62455 32.8629 8.6863 30.5201 8.6863 28.0821Z" fill="#27450E"/>
<path d="M12.3681 25.065C12.0175 24.8049 11.5203 24.8786 11.2593 25.2308C10.6241 26.0881 10.2886 27.0708 10.2886 28.0733C10.2886 29.0464 10.605 30.0037 11.2046 30.8412C11.3593 31.0569 11.6035 31.1727 11.8502 31.1727C12.0096 31.1727 12.1706 31.1243 12.311 31.0244C12.6671 30.7698 12.7496 30.2741 12.4942 29.9172C12.0818 29.3414 11.874 28.7212 11.874 28.0725C11.874 27.4031 12.0953 26.7646 12.5331 26.173C12.7948 25.8224 12.7202 25.3252 12.3681 25.065ZM22.2065 16.1854V18.5996C19.7725 18.8582 17.7683 20.6887 17.3321 23.1473L16.5152 27.7552C16.4439 28.155 16.3289 28.5475 16.1734 28.9211L14.3366 33.33C14.2343 33.575 14.2612 33.8542 14.4087 34.0747C14.5563 34.2952 14.8037 34.4268 15.0686 34.4268H21.4134C21.4134 35.3016 22.1249 36.013 22.9996 36.013C23.8744 36.013 24.5859 35.3016 24.5859 34.4268H30.9307C31.1956 34.4268 31.443 34.2944 31.5905 34.0739C31.7381 33.8534 31.765 33.5734 31.6627 33.3292L29.8187 28.9029C29.6673 28.5372 29.5539 28.1565 29.4825 27.7695L28.6291 23.1148C28.1842 20.6871 26.1966 18.8931 23.7927 18.6203V16.1854C23.7927 15.7469 23.4382 15.3923 22.9996 15.3923C22.5611 15.3923 22.2065 15.7469 22.2065 16.1854ZM27.0691 23.4011L27.9224 28.0558C28.0129 28.5523 28.1588 29.0424 28.3547 29.5127L29.741 32.8406H16.2583L17.5796 29.6682H26.1721C26.6106 29.6682 26.9652 29.3137 26.9652 28.8751C26.9652 28.4365 26.6106 28.082 26.1721 28.082H18.065C18.0681 28.0653 18.0737 28.0487 18.0768 28.032L18.8937 23.4241C19.23 21.527 20.8717 20.151 22.7982 20.151H23.1686C25.0831 20.151 26.7233 21.5183 27.0691 23.4011Z" fill="#27450E"/>
</svg>
