<svg width="40" height="40" viewBox="0 0 40 40" fill="none" xmlns="http://www.w3.org/2000/svg">
<circle cx="20" cy="20" r="19" fill="#E27600" stroke="#E27600" stroke-width="2"/>
<path d="M20 8C16.5301 8 13.7 10.9026 13.7 14.4615V17.2308H11V32H29V17.2308H26.3V14.4615C26.3 10.9026 23.4699 8 20 8ZM20 9.84615C22.4961 9.84615 24.5 11.9014 24.5 14.4615V17.2308H15.5V14.4615C15.5 11.9014 17.5039 9.84615 20 9.84615ZM12.8 19.0769H27.2V30.1538H12.8V19.0769ZM16.4 23.6923C15.9043 23.6923 15.5 24.107 15.5 24.6154C15.5 25.1238 15.9043 25.5385 16.4 25.5385C16.8957 25.5385 17.3 25.1238 17.3 24.6154C17.3 24.107 16.8957 23.6923 16.4 23.6923ZM20 23.6923C19.5043 23.6923 19.1 24.107 19.1 24.6154C19.1 25.1238 19.5043 25.5385 20 25.5385C20.4957 25.5385 20.9 25.1238 20.9 24.6154C20.9 24.107 20.4957 23.6923 20 23.6923ZM23.6 23.6923C23.1043 23.6923 22.7 24.107 22.7 24.6154C22.7 25.1238 23.1043 25.5385 23.6 25.5385C24.0957 25.5385 24.5 25.1238 24.5 24.6154C24.5 24.107 24.0957 23.6923 23.6 23.6923Z" fill="white"/>
</svg>
