<svg width="100" height="100" viewBox="0 0 100 100" fill="none" xmlns="http://www.w3.org/2000/svg">
<path d="M1.5625 57.8125V20.3125C1.5625 18.5859 2.96094 17.1875 4.6875 17.1875H95.3125C97.0391 17.1875 98.4375 18.5859 98.4375 20.3125V57.8125C98.4375 59.5391 97.0391 60.9375 95.3125 60.9375H4.6875C2.96094 60.9375 1.5625 59.5391 1.5625 57.8125Z" fill="white"/>
<path d="M98.4375 60.9375H87.5C84.9109 60.9375 82.8125 58.8391 82.8125 56.25V21.875C82.8125 19.2859 84.9109 17.1875 87.5 17.1875H98.4375V60.9375ZM51.5625 51.5625C46.5897 51.5625 41.8206 53.5379 38.3042 57.0542C34.7879 60.5706 32.8125 65.3397 32.8125 70.3125C32.8125 75.2853 34.7879 80.0544 38.3042 83.5708C41.8206 87.0871 46.5897 89.0625 51.5625 89.0625C56.5353 89.0625 61.3044 87.0871 64.8208 83.5708C68.3371 80.0544 70.3125 75.2853 70.3125 70.3125C70.3125 65.3397 68.3371 60.5706 64.8208 57.0542C61.3044 53.5379 56.5353 51.5625 51.5625 51.5625Z" fill="white"/>
<path d="M95.3125 15.625H4.6875C2.10938 15.625 0 17.7344 0 20.3125V57.8125C0 60.3906 2.10938 62.5 4.6875 62.5H32.8125C31.8125 64.9062 31.25 67.5469 31.25 70.3125C31.25 81.5156 40.3594 90.625 51.5625 90.625C62.7656 90.625 71.875 81.5156 71.875 70.3125C71.875 67.5469 71.3125 64.9062 70.3125 62.5H95.3125C97.8906 62.5 100 60.3906 100 57.8125V20.3125C100 17.7344 97.8906 15.625 95.3125 15.625ZM68.75 70.3125C68.75 79.7969 61.0469 87.5 51.5625 87.5C42.0781 87.5 34.375 79.7969 34.375 70.3125C34.375 67.5 35.0469 64.8438 36.25 62.5C36.8125 61.3906 37.5 60.3438 38.2969 59.375C41.4531 55.5625 46.2344 53.125 51.5625 53.125C56.8906 53.125 61.6719 55.5625 64.8281 59.375C65.625 60.3438 66.3125 61.3906 66.875 62.5C68.0781 64.8438 68.75 67.5 68.75 70.3125ZM96.875 57.8125C96.875 58.6719 96.1719 59.375 95.3125 59.375H68.6719C65.0625 53.7344 58.75 50 51.5625 50C44.375 50 38.0625 53.7344 34.4531 59.375H4.6875C3.82812 59.375 3.125 58.6719 3.125 57.8125V20.3125C3.125 19.4531 3.82812 18.75 4.6875 18.75H95.3125C96.1719 18.75 96.875 19.4531 96.875 20.3125V57.8125Z" fill="#27450E"/>
<path d="M26.5625 35.9375C25.7337 35.9375 24.9388 36.2667 24.3528 36.8528C23.7667 37.4388 23.4375 38.2337 23.4375 39.0625C23.4375 39.8913 23.7667 40.6862 24.3528 41.2722C24.9388 41.8583 25.7337 42.1875 26.5625 42.1875C27.3913 42.1875 28.1862 41.8583 28.7722 41.2722C29.3583 40.6862 29.6875 39.8913 29.6875 39.0625C29.6875 38.2337 29.3583 37.4388 28.7722 36.8528C28.1862 36.2667 27.3913 35.9375 26.5625 35.9375ZM40.625 35.9375C39.7962 35.9375 39.0013 36.2667 38.4153 36.8528C37.8292 37.4388 37.5 38.2337 37.5 39.0625C37.5 39.8913 37.8292 40.6862 38.4153 41.2722C39.0013 41.8583 39.7962 42.1875 40.625 42.1875C41.4538 42.1875 42.2487 41.8583 42.8347 41.2722C43.4208 40.6862 43.75 39.8913 43.75 39.0625C43.75 38.2337 43.4208 37.4388 42.8347 36.8528C42.2487 36.2667 41.4538 35.9375 40.625 35.9375ZM54.6875 35.9375C53.8587 35.9375 53.0638 36.2667 52.4778 36.8528C51.8917 37.4388 51.5625 38.2337 51.5625 39.0625C51.5625 39.8913 51.8917 40.6862 52.4778 41.2722C53.0638 41.8583 53.8587 42.1875 54.6875 42.1875C55.5163 42.1875 56.3112 41.8583 56.8972 41.2722C57.4833 40.6862 57.8125 39.8913 57.8125 39.0625C57.8125 38.2337 57.4833 37.4388 56.8972 36.8528C56.3112 36.2667 55.5163 35.9375 54.6875 35.9375ZM68.75 35.9375C67.9212 35.9375 67.1263 36.2667 66.5403 36.8528C65.9542 37.4388 65.625 38.2337 65.625 39.0625C65.625 39.8913 65.9542 40.6862 66.5403 41.2722C67.1263 41.8583 67.9212 42.1875 68.75 42.1875C69.5788 42.1875 70.3737 41.8583 70.9597 41.2722C71.5458 40.6862 71.875 39.8913 71.875 39.0625C71.875 38.2337 71.5458 37.4388 70.9597 36.8528C70.3737 36.2667 69.5788 35.9375 68.75 35.9375Z" fill="#E27600"/>
<path d="M92.1875 53.125H89.0625C88.1984 53.125 87.5 53.8234 87.5 54.6875C87.5 55.5516 88.1984 56.25 89.0625 56.25H92.1875C93.0516 56.25 93.75 55.5516 93.75 54.6875C93.75 53.8234 93.0516 53.125 92.1875 53.125ZM92.1875 45.3125H89.0625C88.1984 45.3125 87.5 46.0109 87.5 46.875C87.5 47.7391 88.1984 48.4375 89.0625 48.4375H92.1875C93.0516 48.4375 93.75 47.7391 93.75 46.875C93.75 46.0109 93.0516 45.3125 92.1875 45.3125ZM92.1875 37.5H89.0625C88.1984 37.5 87.5 38.1984 87.5 39.0625C87.5 39.9266 88.1984 40.625 89.0625 40.625H92.1875C93.0516 40.625 93.75 39.9266 93.75 39.0625C93.75 38.1984 93.0516 37.5 92.1875 37.5ZM92.1875 29.6875H89.0625C88.1984 29.6875 87.5 30.3859 87.5 31.25C87.5 32.1141 88.1984 32.8125 89.0625 32.8125H92.1875C93.0516 32.8125 93.75 32.1141 93.75 31.25C93.75 30.3859 93.0516 29.6875 92.1875 29.6875ZM92.1875 21.875H89.0625C88.1984 21.875 87.5 22.5734 87.5 23.4375C87.5 24.3016 88.1984 25 89.0625 25H92.1875C93.0516 25 93.75 24.3016 93.75 23.4375C93.75 22.5734 93.0516 21.875 92.1875 21.875Z" fill="#27450E"/>
<path d="M59.8327 62.9582L48.4374 74.3535L43.2921 69.2082C42.6812 68.5973 41.6937 68.5973 41.0827 69.2082C40.4718 69.8191 40.4718 70.8066 41.0827 71.4176L47.3327 77.6676C47.6374 77.9723 48.0374 78.1254 48.4374 78.1254C48.8374 78.1254 49.2374 77.9723 49.5421 77.6676L62.0421 65.1676C62.653 64.5566 62.653 63.5691 62.0421 62.9582C61.4312 62.3473 60.4437 62.3473 59.8327 62.9582Z" fill="#E27600"/>
</svg>
