<svg width="74" height="74" viewBox="0 0 74 74" fill="none" xmlns="http://www.w3.org/2000/svg">
<path d="M1.15625 42.7812V15.0312C1.15625 13.7536 2.19109 12.7188 3.46875 12.7188H70.5312C71.8089 12.7188 72.8438 13.7536 72.8438 15.0312V42.7812C72.8438 44.0589 71.8089 45.0938 70.5312 45.0938H3.46875C2.19109 45.0938 1.15625 44.0589 1.15625 42.7812Z" fill="white"/>
<path d="M72.8438 45.0938H64.75C62.8341 45.0938 61.2812 43.5409 61.2812 41.625V16.1875C61.2812 14.2716 62.8341 12.7188 64.75 12.7188H72.8438V45.0938ZM38.1562 38.1562C34.4764 38.1562 30.9472 39.6181 28.3451 42.2201C25.7431 44.8222 24.2812 48.3514 24.2812 52.0312C24.2812 55.7111 25.7431 59.2403 28.3451 61.8424C30.9472 64.4444 34.4764 65.9062 38.1562 65.9062C41.8361 65.9062 45.3653 64.4444 47.9674 61.8424C50.5694 59.2403 52.0312 55.7111 52.0312 52.0312C52.0312 48.3514 50.5694 44.8222 47.9674 42.2201C45.3653 39.6181 41.8361 38.1562 38.1562 38.1562Z" fill="white"/>
<path d="M70.5312 11.5625H3.46875C1.56094 11.5625 0 13.1234 0 15.0312V42.7812C0 44.6891 1.56094 46.25 3.46875 46.25H24.2812C23.5413 48.0306 23.125 49.9847 23.125 52.0312C23.125 60.3216 29.8659 67.0625 38.1562 67.0625C46.4466 67.0625 53.1875 60.3216 53.1875 52.0312C53.1875 49.9847 52.7713 48.0306 52.0312 46.25H70.5312C72.4391 46.25 74 44.6891 74 42.7812V15.0312C74 13.1234 72.4391 11.5625 70.5312 11.5625ZM50.875 52.0312C50.875 59.0497 45.1747 64.75 38.1562 64.75C31.1378 64.75 25.4375 59.0497 25.4375 52.0312C25.4375 49.95 25.9347 47.9844 26.825 46.25C27.2413 45.4291 27.75 44.6544 28.3397 43.9375C30.6753 41.1162 34.2134 39.3125 38.1562 39.3125C42.0991 39.3125 45.6372 41.1162 47.9728 43.9375C48.5625 44.6544 49.0713 45.4291 49.4875 46.25C50.3778 47.9844 50.875 49.95 50.875 52.0312ZM71.6875 42.7812C71.6875 43.4172 71.1672 43.9375 70.5312 43.9375H50.8172C48.1463 39.7634 43.475 37 38.1562 37C32.8375 37 28.1662 39.7634 25.4953 43.9375H3.46875C2.83281 43.9375 2.3125 43.4172 2.3125 42.7812V15.0312C2.3125 14.3953 2.83281 13.875 3.46875 13.875H70.5312C71.1672 13.875 71.6875 14.3953 71.6875 15.0312V42.7812Z" fill="#27450E"/>
<path d="M19.6562 26.5938C19.0429 26.5938 18.4547 26.8374 18.0211 27.2711C17.5874 27.7047 17.3438 28.2929 17.3438 28.9062C17.3438 29.5196 17.5874 30.1078 18.0211 30.5414C18.4547 30.9751 19.0429 31.2188 19.6562 31.2188C20.2696 31.2188 20.8578 30.9751 21.2914 30.5414C21.7251 30.1078 21.9688 29.5196 21.9688 28.9062C21.9688 28.2929 21.7251 27.7047 21.2914 27.2711C20.8578 26.8374 20.2696 26.5938 19.6562 26.5938ZM30.0625 26.5938C29.4492 26.5938 28.861 26.8374 28.4273 27.2711C27.9936 27.7047 27.75 28.2929 27.75 28.9062C27.75 29.5196 27.9936 30.1078 28.4273 30.5414C28.861 30.9751 29.4492 31.2188 30.0625 31.2188C30.6758 31.2188 31.264 30.9751 31.6977 30.5414C32.1314 30.1078 32.375 29.5196 32.375 28.9062C32.375 28.2929 32.1314 27.7047 31.6977 27.2711C31.264 26.8374 30.6758 26.5938 30.0625 26.5938ZM40.4688 26.5938C39.8554 26.5938 39.2672 26.8374 38.8336 27.2711C38.3999 27.7047 38.1562 28.2929 38.1562 28.9062C38.1562 29.5196 38.3999 30.1078 38.8336 30.5414C39.2672 30.9751 39.8554 31.2188 40.4688 31.2188C41.0821 31.2188 41.6703 30.9751 42.1039 30.5414C42.5376 30.1078 42.7812 29.5196 42.7812 28.9062C42.7812 28.2929 42.5376 27.7047 42.1039 27.2711C41.6703 26.8374 41.0821 26.5938 40.4688 26.5938ZM50.875 26.5938C50.2617 26.5938 49.6735 26.8374 49.2398 27.2711C48.8061 27.7047 48.5625 28.2929 48.5625 28.9062C48.5625 29.5196 48.8061 30.1078 49.2398 30.5414C49.6735 30.9751 50.2617 31.2188 50.875 31.2188C51.4883 31.2188 52.0765 30.9751 52.5102 30.5414C52.9439 30.1078 53.1875 29.5196 53.1875 28.9062C53.1875 28.2929 52.9439 27.7047 52.5102 27.2711C52.0765 26.8374 51.4883 26.5938 50.875 26.5938Z" fill="#E27600"/>
<path d="M68.2188 39.3125H65.9062C65.2668 39.3125 64.75 39.8293 64.75 40.4688C64.75 41.1082 65.2668 41.625 65.9062 41.625H68.2188C68.8582 41.625 69.375 41.1082 69.375 40.4688C69.375 39.8293 68.8582 39.3125 68.2188 39.3125ZM68.2188 33.5312H65.9062C65.2668 33.5312 64.75 34.0481 64.75 34.6875C64.75 35.3269 65.2668 35.8438 65.9062 35.8438H68.2188C68.8582 35.8438 69.375 35.3269 69.375 34.6875C69.375 34.0481 68.8582 33.5312 68.2188 33.5312ZM68.2188 27.75H65.9062C65.2668 27.75 64.75 28.2668 64.75 28.9062C64.75 29.5457 65.2668 30.0625 65.9062 30.0625H68.2188C68.8582 30.0625 69.375 29.5457 69.375 28.9062C69.375 28.2668 68.8582 27.75 68.2188 27.75ZM68.2188 21.9688H65.9062C65.2668 21.9688 64.75 22.4856 64.75 23.125C64.75 23.7644 65.2668 24.2812 65.9062 24.2812H68.2188C68.8582 24.2812 69.375 23.7644 69.375 23.125C69.375 22.4856 68.8582 21.9688 68.2188 21.9688ZM68.2188 16.1875H65.9062C65.2668 16.1875 64.75 16.7043 64.75 17.3438C64.75 17.9832 65.2668 18.5 65.9062 18.5H68.2188C68.8582 18.5 69.375 17.9832 69.375 17.3438C69.375 16.7043 68.8582 16.1875 68.2188 16.1875Z" fill="#27450E"/>
<path d="M44.2763 46.5888L35.8438 55.0214L32.0362 51.2138C31.5841 50.7617 30.8534 50.7617 30.4013 51.2138C29.9492 51.6659 29.9492 52.3967 30.4013 52.8488L35.0263 57.4738C35.2517 57.6992 35.5477 57.8125 35.8438 57.8125C36.1398 57.8125 36.4358 57.6992 36.6612 57.4738L45.9112 48.2238C46.3633 47.7717 46.3633 47.0409 45.9112 46.5888C45.4591 46.1367 44.7284 46.1367 44.2763 46.5888Z" fill="#E27600"/>
</svg>
