<svg width="35" height="29" viewBox="0 0 35 29" fill="none" xmlns="http://www.w3.org/2000/svg">
<path d="M0.55127 3.85962H30.3252V25.9144H0.55127V3.85962Z" fill="white"/>
<path d="M29.2225 0.551514H1.65401C1.04498 0.551514 0.55127 1.04523 0.55127 1.65425V2.75699C0.55127 3.36602 1.04498 3.85973 1.65401 3.85973H29.2225C29.8315 3.85973 30.3252 3.36602 30.3252 2.75699V1.65425C30.3252 1.04523 29.8315 0.551514 29.2225 0.551514Z" fill="#E27600"/>
<path d="M18.7465 23.3065C18.5843 23.1091 18.4956 22.8616 18.4956 22.6062C18.4956 22.3508 18.5843 22.1033 18.7465 21.906C19.9429 20.4007 23.0361 17.0925 26.4656 17.0925C29.8951 17.0925 32.9883 20.4007 34.1848 21.906C34.347 22.1033 34.4357 22.3508 34.4357 22.6062C34.4357 22.8616 34.347 23.1091 34.1848 23.3065C32.9883 24.8117 29.8951 28.1199 26.4656 28.1199C23.0361 28.1199 19.9429 24.8117 18.7465 23.3065Z" fill="white"/>
<path d="M18.7465 23.3065C18.5843 23.1091 18.4956 22.8616 18.4956 22.6062C18.4956 22.3508 18.5843 22.1033 18.7465 21.906C19.9429 20.4007 23.0361 17.0925 26.4656 17.0925C29.8951 17.0925 32.9883 20.4007 34.1848 21.906C34.347 22.1033 34.4357 22.3508 34.4357 22.6062C34.4357 22.8616 34.347 23.1091 34.1848 23.3065C32.9883 24.8117 29.8951 28.1199 26.4656 28.1199C23.0361 28.1199 19.9429 24.8117 18.7465 23.3065Z" fill="white"/>
<path d="M34.1849 22.3636V22.3305C34.1849 22.3305 31.3399 17.0925 26.4657 17.0925C21.5916 17.0925 18.7466 22.3305 18.7466 22.3305V22.3636C21.2868 22.8842 23.8727 23.1502 26.4657 23.1576C29.0588 23.1502 31.6447 22.8842 34.1849 22.3636Z" fill="white"/>
<path d="M26.4658 19.8494C25.7347 19.8494 25.0335 20.1398 24.5164 20.6568C23.9994 21.1738 23.709 21.875 23.709 22.6062C23.709 23.3374 23.9994 24.0386 24.5164 24.5556C25.0335 25.0726 25.7347 25.3631 26.4658 25.3631C27.197 25.3631 27.8982 25.0726 28.4152 24.5556C28.9322 24.0386 29.2227 23.3374 29.2227 22.6062C29.2227 21.875 28.9322 21.1738 28.4152 20.6568C27.8982 20.1398 27.197 19.8494 26.4658 19.8494Z" fill="#E27600"/>
<path d="M10.4761 8.82196H12.6816C12.8278 8.82196 12.968 8.76387 13.0714 8.66047C13.1748 8.55706 13.2329 8.41682 13.2329 8.27059C13.2329 8.12436 13.1748 7.98411 13.0714 7.88071C12.968 7.77731 12.8278 7.71922 12.6816 7.71922H10.4761C10.3298 7.71922 10.1896 7.77731 10.0862 7.88071C9.9828 7.98411 9.92471 8.12436 9.92471 8.27059C9.92471 8.41682 9.9828 8.55706 10.0862 8.66047C10.1896 8.76387 10.3298 8.82196 10.4761 8.82196ZM14.887 8.82196H24.2603C24.4065 8.82196 24.5468 8.76387 24.6502 8.66047C24.7536 8.55706 24.8117 8.41682 24.8117 8.27059C24.8117 8.12436 24.7536 7.98411 24.6502 7.88071C24.5468 7.77731 24.4065 7.71922 24.2603 7.71922H14.887C14.7408 7.71922 14.6006 7.77731 14.4972 7.88071C14.3937 7.98411 14.3357 8.12436 14.3357 8.27059C14.3357 8.41682 14.3937 8.55706 14.4972 8.66047C14.6006 8.76387 14.7408 8.82196 14.887 8.82196ZM10.4761 13.2329H24.2603C24.4065 13.2329 24.5468 13.1748 24.6502 13.0714C24.7536 12.968 24.8117 12.8278 24.8117 12.6815C24.8117 12.5353 24.7536 12.3951 24.6502 12.2917C24.5468 12.1883 24.4065 12.1302 24.2603 12.1302H10.4761C10.3298 12.1302 10.1896 12.1883 10.0862 12.2917C9.9828 12.3951 9.92471 12.5353 9.92471 12.6815C9.92471 12.8278 9.9828 12.968 10.0862 13.0714C10.1896 13.1748 10.3298 13.2329 10.4761 13.2329ZM18.7466 17.6439C18.8928 17.6439 19.0331 17.5858 19.1365 17.4824C19.2399 17.379 19.298 17.2387 19.298 17.0925C19.298 16.9463 19.2399 16.806 19.1365 16.7026C19.0331 16.5992 18.8928 16.5411 18.7466 16.5411H10.4761C10.3298 16.5411 10.1896 16.5992 10.0862 16.7026C9.9828 16.806 9.92471 16.9463 9.92471 17.0925C9.92471 17.2387 9.9828 17.379 10.0862 17.4824C10.1896 17.5858 10.3298 17.6439 10.4761 17.6439H18.7466ZM7.87913 6.77638L6.06512 8.5959L5.35386 7.87912C5.24838 7.78879 5.1127 7.74159 4.97394 7.74695C4.83517 7.75231 4.70354 7.80983 4.60534 7.90803C4.50714 8.00622 4.44962 8.13786 4.44426 8.27662C4.4389 8.41539 4.4861 8.55107 4.57643 8.65655L5.67917 9.75929C5.78247 9.86198 5.92222 9.91962 6.06788 9.91962C6.21355 9.91962 6.35329 9.86198 6.4566 9.75929L8.66207 7.55381C8.7524 7.44833 8.7996 7.31265 8.79424 7.17389C8.78888 7.03512 8.73136 6.90349 8.63316 6.80529C8.53496 6.70709 8.40333 6.64957 8.26456 6.64421C8.1258 6.63885 7.99012 6.68605 7.88464 6.77638H7.87913ZM7.87913 11.1873L6.06512 13.0068L5.35386 12.2901C5.24838 12.1997 5.1127 12.1525 4.97394 12.1579C4.83517 12.1633 4.70354 12.2208 4.60534 12.319C4.50714 12.4172 4.44962 12.5488 4.44426 12.6876C4.4389 12.8263 4.4861 12.962 4.57643 13.0675L5.67917 14.1702C5.78247 14.2729 5.92222 14.3306 6.06788 14.3306C6.21355 14.3306 6.35329 14.2729 6.4566 14.1702L8.66207 11.9648C8.7524 11.8593 8.7996 11.7236 8.79424 11.5848C8.78888 11.4461 8.73136 11.3144 8.63316 11.2162C8.53496 11.118 8.40333 11.0605 8.26456 11.0552C8.1258 11.0498 7.99012 11.097 7.88464 11.1873H7.87913ZM7.87913 15.5983L6.06512 17.4178L5.35386 16.701C5.24838 16.6107 5.1127 16.5635 4.97394 16.5689C4.83517 16.5742 4.70354 16.6317 4.60534 16.7299C4.50714 16.8281 4.44962 16.9598 4.44426 17.0985C4.4389 17.2373 4.4861 17.373 4.57643 17.4785L5.67917 18.5812C5.78247 18.6839 5.92222 18.7415 6.06788 18.7415C6.21355 18.7415 6.35329 18.6839 6.4566 18.5812L8.66207 16.3757C8.7524 16.2702 8.7996 16.1346 8.79424 15.9958C8.78888 15.857 8.73136 15.7254 8.63316 15.6272C8.53496 15.529 8.40333 15.4715 8.26456 15.4661C8.1258 15.4608 7.99012 15.508 7.88464 15.5983H7.87913Z" fill="#27450E"/>
<path d="M7.88075 22.2164C7.98415 22.113 8.12439 22.0549 8.27063 22.0549C8.41686 22.0549 8.5571 22.113 8.6605 22.2164C8.7639 22.3198 8.82199 22.4601 8.82199 22.6063V23.709C8.82199 23.8553 8.7639 23.9955 8.6605 24.0989C8.5571 24.2023 8.41686 24.2604 8.27063 24.2604C8.12439 24.2604 7.98415 24.2023 7.88075 24.0989C7.77735 23.9955 7.71926 23.8553 7.71926 23.709V22.6063C7.71926 22.4601 7.77735 22.3198 7.88075 22.2164Z" fill="#E27600"/>
<path d="M5.1239 22.2164C5.22731 22.113 5.36755 22.0549 5.51378 22.0549C5.66001 22.0549 5.80026 22.113 5.90366 22.2164C6.00706 22.3198 6.06515 22.4601 6.06515 22.6063V23.709C6.06515 23.8553 6.00706 23.9955 5.90366 24.0989C5.80026 24.2023 5.66001 24.2604 5.51378 24.2604C5.36755 24.2604 5.22731 24.2023 5.1239 24.0989C5.0205 23.9955 4.96241 23.8553 4.96241 23.709V22.6063C4.96241 22.4601 5.0205 22.3198 5.1239 22.2164Z" fill="#E27600"/>
<path d="M2.36706 22.2164C2.47046 22.113 2.6107 22.0549 2.75694 22.0549C2.90317 22.0549 3.04341 22.113 3.14681 22.2164C3.25021 22.3198 3.3083 22.4601 3.3083 22.6063V23.709C3.3083 23.8553 3.25021 23.9955 3.14681 24.0989C3.04341 24.2023 2.90317 24.2604 2.75694 24.2604C2.6107 24.2604 2.47046 24.2023 2.36706 24.0989C2.26366 23.9955 2.20557 23.8553 2.20557 23.709V22.6063C2.20557 22.4601 2.26366 22.3198 2.36706 22.2164Z" fill="#E27600"/>
<path d="M10.6376 22.2164C10.741 22.113 10.8812 22.0549 11.0275 22.0549C11.1737 22.0549 11.3139 22.113 11.4173 22.2164C11.5207 22.3198 11.5788 22.4601 11.5788 22.6063V23.709C11.5788 23.8553 11.5207 23.9955 11.4173 24.0989C11.3139 24.2023 11.1737 24.2604 11.0275 24.2604C10.8812 24.2604 10.741 24.2023 10.6376 24.0989C10.5342 23.9955 10.4761 23.8553 10.4761 23.709V22.6063C10.4761 22.4601 10.5342 22.3198 10.6376 22.2164Z" fill="#E27600"/>
<path d="M13.3944 22.2164C13.4978 22.113 13.6381 22.0549 13.7843 22.0549C13.9305 22.0549 14.0708 22.113 14.1742 22.2164C14.2776 22.3198 14.3357 22.4601 14.3357 22.6063V23.709C14.3357 23.8553 14.2776 23.9955 14.1742 24.0989C14.0708 24.2023 13.9305 24.2604 13.7843 24.2604C13.6381 24.2604 13.4978 24.2023 13.3944 24.0989C13.291 23.9955 13.2329 23.8553 13.2329 23.709V22.6063C13.2329 22.4601 13.291 22.3198 13.3944 22.2164Z" fill="#E27600"/>
<path d="M16.1513 22.2164C16.2547 22.113 16.3949 22.0549 16.5412 22.0549C16.6874 22.0549 16.8276 22.113 16.931 22.2164C17.0344 22.3198 17.0925 22.4601 17.0925 22.6063V23.709C17.0925 23.8553 17.0344 23.9955 16.931 24.0989C16.8276 24.2023 16.6874 24.2604 16.5412 24.2604C16.3949 24.2604 16.2547 24.2023 16.1513 24.0989C16.0479 23.9955 15.9898 23.8553 15.9898 23.709V22.6063C15.9898 22.4601 16.0479 22.3198 16.1513 22.2164Z" fill="#E27600"/>
<path d="M34.626 21.5585C33.5498 20.2215 32.2872 19.0461 30.8767 18.0684V1.65411C30.8767 1.21541 30.7024 0.794682 30.3922 0.484477C30.082 0.174272 29.6613 0 29.2226 0H1.65411C1.21541 0 0.794682 0.174272 0.484477 0.484477C0.174271 0.794682 0 1.21541 0 1.65411L0 24.8116C0 25.2503 0.174271 25.671 0.484477 25.9812C0.794682 26.2914 1.21541 26.4657 1.65411 26.4657H21.1285C22.6061 27.6456 24.4753 28.6712 26.4657 28.6712C30.1433 28.6712 33.3964 25.1645 34.626 23.6537C34.8678 23.3582 35 22.988 35 22.6061C35 22.2242 34.8678 21.8541 34.626 21.5585ZM1.10274 1.65411C1.10274 1.50787 1.16083 1.36763 1.26423 1.26423C1.36763 1.16083 1.50787 1.10274 1.65411 1.10274H29.2226C29.3688 1.10274 29.509 1.16083 29.6124 1.26423C29.7158 1.36763 29.7739 1.50787 29.7739 1.65411V3.30821H1.10274V1.65411ZM1.65411 25.363C1.50787 25.363 1.36763 25.3049 1.26423 25.2015C1.16083 25.0981 1.10274 24.9578 1.10274 24.8116V4.41095H29.7739V17.4177C28.7571 16.8653 27.6227 16.5647 26.4657 16.5411C22.7881 16.5411 19.535 20.0478 18.3055 21.5585C18.0636 21.8541 17.9314 22.2242 17.9314 22.6061C17.9314 22.988 18.0636 23.3582 18.3055 23.6537C18.7865 24.2529 19.302 24.8236 19.8493 25.363H1.65411ZM33.7713 22.959C32.641 24.3429 29.6692 27.5684 26.4657 27.5684C25.1295 27.5093 23.839 27.065 22.7495 26.2893C22.3162 26.0054 21.9001 25.6961 21.5034 25.363C20.6486 24.6333 19.8607 23.8288 19.149 22.959C19.0665 22.8599 19.0213 22.7351 19.0213 22.6061C19.0213 22.4772 19.0665 22.3523 19.149 22.2533C20.2904 20.8693 23.2623 17.6438 26.4657 17.6438C29.6692 17.6438 32.641 20.8693 33.7713 22.2533C33.8539 22.3523 33.8991 22.4772 33.8991 22.6061C33.8991 22.7351 33.8539 22.8599 33.7713 22.959Z" fill="#27450E"/>
<path d="M26.4659 19.2981C25.8116 19.2981 25.172 19.4921 24.628 19.8556C24.084 20.2191 23.6599 20.7358 23.4095 21.3403C23.1591 21.9448 23.0936 22.61 23.2213 23.2517C23.3489 23.8934 23.664 24.4829 24.1267 24.9456C24.5893 25.4082 25.1788 25.7233 25.8205 25.851C26.4623 25.9786 27.1274 25.9131 27.7319 25.6627C28.3364 25.4123 28.8531 24.9883 29.2166 24.4443C29.5801 23.9002 29.7741 23.2606 29.7741 22.6063C29.7741 21.7289 29.4256 20.8875 28.8052 20.267C28.1848 19.6466 27.3433 19.2981 26.4659 19.2981ZM26.4659 24.8118C26.0297 24.8118 25.6033 24.6824 25.2406 24.4401C24.8779 24.1978 24.5953 23.8533 24.4283 23.4503C24.2614 23.0473 24.2177 22.6039 24.3028 22.176C24.3879 21.7482 24.598 21.3552 24.9064 21.0468C25.2149 20.7384 25.6078 20.5283 26.0357 20.4432C26.4635 20.3581 26.9069 20.4018 27.3099 20.5687C27.7129 20.7356 28.0574 21.0183 28.2997 21.381C28.5421 21.7437 28.6714 22.1701 28.6714 22.6063C28.6714 23.1912 28.439 23.7522 28.0254 24.1658C27.6118 24.5794 27.0509 24.8118 26.4659 24.8118Z" fill="#27450E"/>
</svg>
