<svg width="74" height="74" viewBox="0 0 74 74" fill="none" xmlns="http://www.w3.org/2000/svg">
<g clip-path="url(#clip0_424_751)">
<path d="M63.8366 56.6562H3.59595C2.98263 56.6562 2.39444 56.4126 1.96076 55.9789C1.52708 55.5453 1.28345 54.9571 1.28345 54.3438V12.7188C1.28345 12.1054 1.52708 11.5172 1.96076 11.0836C2.39444 10.6499 2.98263 10.4062 3.59595 10.4062H63.7209C64.3343 10.4062 64.9225 10.6499 65.3561 11.0836C65.7898 11.5172 66.0334 12.1054 66.0334 12.7188L66.1606 54.3438C66.1606 54.6484 66.1004 54.9501 65.9835 55.2314C65.8666 55.5127 65.6952 55.7682 65.4792 55.983C65.2633 56.1979 65.007 56.368 64.7251 56.4836C64.4432 56.5991 64.1412 56.6578 63.8366 56.6562Z" fill="white"/>
<path d="M66.0334 14.7653L33.6584 37.8903L1.28345 15.0312V13.875C1.28345 12.6031 2.32407 10.4062 3.59595 10.4062H63.7209C64.9928 10.4062 66.0334 12.3372 66.0334 13.6091V14.7653Z" fill="white"/>
<path d="M64.8772 56.6562H2.4397C1.80376 56.6562 1.28345 56.4019 1.28345 55.7659V55.5C1.28345 54.2734 1.77072 53.097 2.63808 52.2296C3.50543 51.3623 4.68182 50.875 5.90845 50.875H61.5241C62.7507 50.875 63.9271 51.3623 64.7944 52.2296C65.6618 53.097 66.1491 54.2734 66.1491 55.5V55.7659C66.1491 56.4019 65.5131 56.6562 64.8772 56.6562Z" fill="#E27600"/>
<path d="M59.0266 40.4688C57.2045 40.4687 55.4002 40.8276 53.7168 41.5249C52.0334 42.2222 50.5039 43.2442 49.2154 44.5326C47.927 45.8211 46.905 47.3506 46.2077 49.034C45.5104 50.7174 45.1516 52.5217 45.1516 54.3438C45.1516 56.1658 45.5104 57.9701 46.2077 59.6535C46.905 61.3369 47.927 62.8664 49.2154 64.1549C50.5039 65.4433 52.0334 66.4653 53.7168 67.1626C55.4002 67.8599 57.2045 68.2188 59.0266 68.2188C60.8486 68.2188 62.6529 67.8599 64.3363 67.1626C66.0197 66.4653 67.5492 65.4433 68.8377 64.1549C70.1261 62.8664 71.1481 61.3369 71.8454 59.6535C72.5427 57.9701 72.9016 56.1658 72.9016 54.3438C72.9016 52.5217 72.5427 50.7174 71.8454 49.034C71.1481 47.3506 70.1261 45.8211 68.8377 44.5326C67.5492 43.2442 66.0197 42.2222 64.3363 41.5249C62.6529 40.8276 60.8486 40.4687 59.0266 40.4688Z" fill="white"/>
<path d="M3.46875 10.1403H63.7209C64.3342 10.1403 64.9224 10.3839 65.3561 10.8176C65.7898 11.2513 66.0334 11.8394 66.0334 12.4528C66.0421 13.0944 65.8091 13.7158 65.3807 14.1935C64.9522 14.6713 64.3597 14.9703 63.7209 15.0312H3.59594C2.94311 14.9773 2.33314 14.6844 1.88293 14.2086C1.43273 13.7328 1.17397 13.1076 1.15625 12.4528C1.15625 11.8394 1.39989 11.2513 1.83357 10.8176C2.26724 10.3839 2.85544 10.1403 3.46875 10.1403Z" fill="white"/>
<path d="M10.4641 48.759C10.1574 48.759 9.8633 48.8809 9.64646 49.0977C9.42962 49.3145 9.3078 49.6086 9.3078 49.9153V52.2278C9.3078 52.5344 9.42962 52.8285 9.64646 53.0454C9.8633 53.2622 10.1574 53.384 10.4641 53.384C10.7707 53.384 11.0648 53.2622 11.2816 53.0454C11.4985 52.8285 11.6203 52.5344 11.6203 52.2278V49.9153C11.6203 49.6086 11.4985 49.3145 11.2816 49.0977C11.0648 48.8809 10.7707 48.759 10.4641 48.759ZM4.6828 48.759C4.37614 48.759 4.08205 48.8809 3.86521 49.0977C3.64837 49.3145 3.52655 49.6086 3.52655 49.9153V52.2278C3.52655 52.5344 3.64837 52.8285 3.86521 53.0454C4.08205 53.2622 4.37614 53.384 4.6828 53.384C4.98946 53.384 5.28355 53.2622 5.50039 53.0454C5.71723 52.8285 5.83905 52.5344 5.83905 52.2278V49.9153C5.83905 49.6086 5.71723 49.3145 5.50039 49.0977C5.28355 48.8809 4.98946 48.759 4.6828 48.759ZM16.2453 48.759C15.9386 48.759 15.6445 48.8809 15.4277 49.0977C15.2109 49.3145 15.0891 49.6086 15.0891 49.9153V52.2278C15.0891 52.5344 15.2109 52.8285 15.4277 53.0454C15.6445 53.2622 15.9386 53.384 16.2453 53.384C16.552 53.384 16.8461 53.2622 17.0629 53.0454C17.2797 52.8285 17.4016 52.5344 17.4016 52.2278V49.9153C17.4016 49.6086 17.2797 49.3145 17.0629 49.0977C16.8461 48.8809 16.552 48.759 16.2453 48.759ZM22.0265 48.759C21.7199 48.759 21.4258 48.8809 21.209 49.0977C20.9921 49.3145 20.8703 49.6086 20.8703 49.9153V52.2278C20.8703 52.5344 20.9921 52.8285 21.209 53.0454C21.4258 53.2622 21.7199 53.384 22.0265 53.384C22.3332 53.384 22.6273 53.2622 22.8441 53.0454C23.061 52.8285 23.1828 52.5344 23.1828 52.2278V49.9153C23.1828 49.6086 23.061 49.3145 22.8441 49.0977C22.6273 48.8809 22.3332 48.759 22.0265 48.759ZM27.8078 48.759C27.5011 48.759 27.207 48.8809 26.9902 49.0977C26.7734 49.3145 26.6516 49.6086 26.6516 49.9153V52.2278C26.6516 52.5344 26.7734 52.8285 26.9902 53.0454C27.207 53.2622 27.5011 53.384 27.8078 53.384C28.1145 53.384 28.4086 53.2622 28.6254 53.0454C28.8422 52.8285 28.9641 52.5344 28.9641 52.2278V49.9153C28.9641 49.6086 28.8422 49.3145 28.6254 49.0977C28.4086 48.8809 28.1145 48.759 27.8078 48.759ZM33.5891 48.759C33.2824 48.759 32.9883 48.8809 32.7715 49.0977C32.5546 49.3145 32.4328 49.6086 32.4328 49.9153V52.2278C32.4328 52.5344 32.5546 52.8285 32.7715 53.0454C32.9883 53.2622 33.2824 53.384 33.5891 53.384C33.8957 53.384 34.1898 53.2622 34.4066 53.0454C34.6235 52.8285 34.7453 52.5344 34.7453 52.2278V49.9153C34.7453 49.6086 34.6235 49.3145 34.4066 49.0977C34.1898 48.8809 33.8957 48.759 33.5891 48.759ZM39.3703 48.759C39.0636 48.759 38.7695 48.8809 38.5527 49.0977C38.3359 49.3145 38.2141 49.6086 38.2141 49.9153V52.2278C38.2141 52.5344 38.3359 52.8285 38.5527 53.0454C38.7695 53.2622 39.0636 53.384 39.3703 53.384C39.677 53.384 39.9711 53.2622 40.1879 53.0454C40.4047 52.8285 40.5266 52.5344 40.5266 52.2278V49.9153C40.5266 49.6086 40.4047 49.3145 40.1879 49.0977C39.9711 48.8809 39.677 48.759 39.3703 48.759Z" fill="#27450E"/>
<path d="M67.1203 41.6943V12.9153C67.1203 11.9953 66.7548 11.113 66.1043 10.4625C65.4538 9.81199 64.5715 9.44653 63.6516 9.44653H3.52655C2.60658 9.44653 1.72429 9.81199 1.07377 10.4625C0.423257 11.113 0.0578003 11.9953 0.0578003 12.9153V54.5403C0.0578003 55.4603 0.423257 56.3425 1.07377 56.9931C1.72429 57.6436 2.60658 58.009 3.52655 58.009H44.4462C45.0417 60.3897 46.211 62.5883 47.852 64.4129C49.493 66.2375 51.5557 67.6326 53.8601 68.4763C56.1645 69.3201 58.6404 69.5868 61.0716 69.2532C63.5028 68.9196 65.8153 67.9958 67.8073 66.5626C69.7992 65.1293 71.4099 63.2302 72.4988 61.031C73.5876 58.8318 74.1215 56.3995 74.0537 53.9464C73.986 51.4934 73.3186 49.0942 72.11 46.9585C70.9014 44.8228 69.1883 43.0154 67.1203 41.6943ZM3.52655 11.759H63.6516C63.9582 11.759 64.2523 11.8809 64.4691 12.0977C64.686 12.3145 64.8078 12.6086 64.8078 12.9153V14.3259L34.9534 35.9478C34.5585 36.2345 34.0829 36.389 33.5948 36.389C33.1068 36.389 32.6312 36.2345 32.2362 35.9478L2.3703 14.3259V12.9153C2.3703 12.6086 2.49212 12.3145 2.70896 12.0977C2.9258 11.8809 3.21989 11.759 3.52655 11.759ZM3.52655 55.6965C3.21989 55.6965 2.9258 55.5747 2.70896 55.3579C2.49212 55.141 2.3703 54.8469 2.3703 54.5403V48.2618L22.6972 35.8437C22.9164 35.671 23.0657 35.4248 23.1176 35.1507C23.1695 34.8765 23.1205 34.5927 22.9797 34.3518C22.8388 34.1109 22.6155 33.9291 22.3511 33.8399C22.0867 33.7507 21.7989 33.7602 21.5409 33.8665L2.3703 45.5447V17.1818L30.8834 37.8209C31.6723 38.3917 32.6211 38.6991 33.5948 38.6991C34.5685 38.6991 35.5174 38.3917 36.3062 37.8209L64.8078 17.1818V40.4687C61.8057 39.2178 58.4788 38.9744 55.3265 39.775L45.695 33.9012C45.4341 33.7429 45.1211 33.6941 44.8243 33.7656C44.5276 33.8371 44.2711 34.023 44.1109 34.2828C43.9598 34.5417 43.9151 34.8491 43.9862 35.1404C44.0574 35.4316 44.2389 35.6838 44.4925 35.8437L52.5862 40.7462C50.0134 41.9663 47.84 43.892 46.3191 46.2992C44.7982 48.7065 43.9923 51.4963 43.9953 54.3437C43.9954 54.7955 44.0185 55.2471 44.0647 55.6965H3.52655ZM59.0266 67.0625C56.2918 67.0641 53.6294 66.1843 51.4342 64.5535C49.2389 62.9227 47.6278 60.6277 46.8397 58.009C46.6119 57.2554 46.4608 56.4806 46.3887 55.6965C46.333 55.2478 46.306 54.7959 46.3078 54.3437C46.3082 51.677 47.1468 49.0779 48.705 46.9138C50.2633 44.7497 52.4623 43.1301 54.9912 42.284C56.0866 41.9162 57.2257 41.6946 58.3791 41.625H59.0266C61.0366 41.6207 63.0186 42.0964 64.8078 43.0125C65.6348 43.4259 66.4109 43.9342 67.1203 44.5272C69.1429 46.1934 70.6014 48.4437 71.2964 50.9703C71.9914 53.497 71.8891 56.1766 71.0033 58.6429C70.1175 61.1091 68.4916 63.2416 66.3478 64.7487C64.204 66.2557 61.6471 67.0638 59.0266 67.0625Z" fill="#27450E"/>
<path d="M62.16 47.7415C61.9388 47.5521 61.6543 47.4531 61.3633 47.4644C61.0723 47.4756 60.7962 47.5962 60.5903 47.8022C60.3844 48.0081 60.2638 48.2841 60.2525 48.5751C60.2413 48.8661 60.3403 49.1507 60.5297 49.3718L64.3337 53.1875H60.1828C58.0362 53.1875 55.9775 54.0402 54.4597 55.5581C52.9418 57.0759 52.0891 59.1346 52.0891 61.2812C52.0891 61.5879 52.2109 61.882 52.4277 62.0988C52.6445 62.3156 52.9386 62.4375 53.2453 62.4375C53.552 62.4375 53.8461 62.3156 54.0629 62.0988C54.2797 61.882 54.4016 61.5879 54.4016 61.2812C54.4016 59.7479 55.0106 58.2774 56.0948 57.1933C57.179 56.1091 58.6495 55.5 60.1828 55.5H64.3337L60.5297 59.304C60.4086 59.4077 60.3103 59.5352 60.2409 59.6787C60.1715 59.8221 60.1325 59.9784 60.1264 60.1376C60.1202 60.2969 60.1471 60.4557 60.2052 60.604C60.2633 60.7524 60.3515 60.8872 60.4642 60.9998C60.5769 61.1125 60.7116 61.2007 60.86 61.2588C61.0084 61.317 61.1672 61.3438 61.3264 61.3376C61.4856 61.3315 61.6419 61.2925 61.7853 61.2231C61.9288 61.1537 62.0563 61.0554 62.16 60.9343L67.9412 55.1531C68.1566 54.9365 68.2775 54.6434 68.2775 54.3379C68.2775 54.0325 68.1566 53.7394 67.9412 53.5228L62.16 47.7415Z" fill="#E27600"/>
</g>
<defs>
<clipPath id="clip0_424_751">
<rect width="74" height="74" fill="white"/>
</clipPath>
</defs>
</svg>
