<svg width="26" height="26" viewBox="0 0 26 26" fill="none" xmlns="http://www.w3.org/2000/svg">
<path fill-rule="evenodd" clip-rule="evenodd" d="M13 0C20.2161 0 26 5.83898 26 13C26 20.2161 20.161 26 13 26C5.7839 26 0 20.161 0 13C0 5.7839 5.83898 0 13 0ZM9.63983 5.61864C9.63983 5.61864 10.9619 4.84746 11.2924 5.94915C11.6229 7.10593 12.2839 8.75847 11.8983 9.19915C11.5127 9.63983 10.8517 10.5763 11.2924 12.2839C11.7331 13.9915 13.0551 16.1949 14.7627 16.1949C16.5254 16.1949 16.1398 16.0297 17.0212 17.2966C17.9025 18.5636 18.0127 19.1695 18.0127 19.1695C18.0127 19.1695 16.8008 21.7585 13.661 20.0508C10.5212 18.3432 5.34322 8.53814 9.63983 5.56356V5.61864ZM13 1.10169C19.6102 1.10169 24.9534 6.44492 24.9534 13.0551C24.9534 19.6653 19.6102 25.0085 13 25.0085C6.38983 25.0085 1.04661 19.6653 1.04661 13.0551C1.04661 6.44492 6.38983 1.10169 13 1.10169Z" fill="#27450E"/>
</svg>
