<svg width="26" height="26" viewBox="0 0 26 26" fill="none" xmlns="http://www.w3.org/2000/svg">
<path d="M7.03809 23.9941C6.90861 23.9239 6.78191 23.8491 6.65527 23.7744C6.78176 23.8493 6.90876 23.9236 7.03809 23.9941ZM13 0.5C19.9386 0.5 25.5 6.11374 25.5 13C25.5 17.3404 23.3024 21.1405 19.9717 23.3789C23.2806 21.1422 25.4531 17.3561 25.4531 13.0547C25.4529 6.16856 19.8862 0.601562 13 0.601562C6.11382 0.601562 0.547089 6.16856 0.546875 13.0547C0.546875 17.5674 2.93737 21.514 6.52344 23.6982C2.90442 21.5047 0.5 17.5276 0.5 13C0.5 6.06142 6.11374 0.5 13 0.5ZM10.415 5.86523C10.5473 5.84563 10.631 5.86063 10.6768 5.88281C10.6966 5.89246 10.7364 5.91475 10.7754 5.99316L10.8135 6.09277C10.8982 6.38878 11.0034 6.71614 11.1035 7.0332C11.2059 7.3576 11.3043 7.67546 11.3799 7.96777C11.4564 8.26401 11.5035 8.51012 11.5137 8.69531C11.5207 8.8227 11.5079 8.87745 11.5049 8.89062C11.2888 9.14048 10.9906 9.5386 10.8086 10.1162C10.6204 10.7135 10.5663 11.4705 10.8086 12.4092C11.0436 13.3198 11.5118 14.3625 12.1592 15.1885C12.798 16.0035 13.6842 16.6953 14.7627 16.6953C15.2324 16.6953 15.5008 16.6842 15.7256 16.6885C15.944 16.6926 15.99 16.7133 15.999 16.7178C16.0012 16.7187 16.0327 16.7322 16.1367 16.8789C16.1885 16.9519 16.2468 17.0412 16.3262 17.1611C16.4039 17.2785 16.4968 17.4188 16.6104 17.582C17.0354 18.193 17.2674 18.6338 17.3906 18.9111C17.4257 18.99 17.4512 19.0559 17.4707 19.1084C17.4445 19.1489 17.413 19.1957 17.375 19.2461C17.2382 19.4278 17.0317 19.6504 16.75 19.8262C16.2236 20.1545 15.3293 20.3884 13.9004 19.6113C13.2156 19.2389 12.3559 18.3796 11.5107 17.1943C10.6752 16.0225 9.88832 14.5822 9.3291 13.1055C8.76793 11.6236 8.44875 10.1376 8.51367 8.86719C8.57111 7.74431 8.92415 6.82724 9.64258 6.19531L9.89062 6.05078V6.05176C9.89137 6.05134 9.89352 6.04949 9.89648 6.04785C9.90246 6.04457 9.91237 6.03913 9.92578 6.03223C9.95372 6.01785 9.99611 5.99767 10.0479 5.97559C10.1548 5.92993 10.2868 5.88428 10.415 5.86523Z" fill="#27450E" stroke="black"/>
</svg>
