<svg width="28" height="26" viewBox="0 0 28 26" fill="none" xmlns="http://www.w3.org/2000/svg">
<path d="M10.5 0C4.74491 0 0 4.01502 0 9.04348C0 11.4846 1.15798 13.674 2.96566 15.2907C2.42349 16.9621 0.321289 18.1885 0.321289 18.1885C0.244708 18.2291 0.178503 18.2858 0.127554 18.3545C0.0766043 18.4232 0.0422087 18.5021 0.026902 18.5853C0.0115953 18.6686 0.0157677 18.7541 0.0391117 18.8356C0.0624557 18.9171 0.104376 18.9925 0.161784 19.0562C0.161784 19.0562 0.398268 19.2959 0.779297 19.4647C1.16033 19.6335 1.72878 19.7826 2.52474 19.7826C6.29763 19.7826 7.99241 18.3203 8.43213 17.8805C9.10144 17.9977 9.78539 18.087 10.5 18.087C16.2551 18.087 21 14.0719 21 9.04348C21 4.01502 16.2551 0 10.5 0ZM10.5 1.13043C15.6987 1.13043 19.8333 4.70742 19.8333 9.04348C19.8333 13.3795 15.6987 16.9565 10.5 16.9565C9.77457 16.9565 9.0695 16.8792 8.38542 16.7446C8.29373 16.7264 8.19887 16.7298 8.10885 16.7546C8.01882 16.7794 7.93627 16.8248 7.86816 16.887L7.78499 16.9642C7.77272 16.9752 7.76094 16.9866 7.74967 16.9985C7.62033 17.1391 6.18764 18.6522 2.52474 18.6522C2.16546 18.6522 2.04178 18.5818 1.8252 18.5329C2.6768 17.9527 3.80374 17.0141 4.1984 15.3492C4.19965 15.3429 4.20079 15.3367 4.20182 15.3304L4.21436 15.2664C4.23435 15.1678 4.22684 15.0657 4.19259 14.9708C4.15835 14.876 4.09861 14.7916 4.01953 14.7266C2.25166 13.277 1.16667 11.2704 1.16667 9.04348C1.16667 4.70742 5.30126 1.13043 10.5 1.13043ZM5.83333 6.78261C5.75603 6.78155 5.67929 6.79539 5.60756 6.82332C5.53583 6.85125 5.47054 6.89271 5.41549 6.9453C5.36044 6.99789 5.31673 7.06056 5.28689 7.12966C5.25706 7.19876 5.24169 7.27292 5.24169 7.34783C5.24169 7.42273 5.25706 7.49689 5.28689 7.56599C5.31673 7.63509 5.36044 7.69776 5.41549 7.75035C5.47054 7.80294 5.53583 7.84441 5.60756 7.87234C5.67929 7.90027 5.75603 7.9141 5.83333 7.91304H15.1667C15.244 7.9141 15.3207 7.90027 15.3924 7.87234C15.4642 7.84441 15.5295 7.80294 15.5845 7.75035C15.6396 7.69776 15.6833 7.63509 15.7131 7.56599C15.7429 7.49689 15.7583 7.42273 15.7583 7.34783C15.7583 7.27292 15.7429 7.19876 15.7131 7.12966C15.6833 7.06056 15.6396 6.99789 15.5845 6.9453C15.5295 6.89271 15.4642 6.85125 15.3924 6.82332C15.3207 6.79539 15.244 6.78155 15.1667 6.78261H5.83333ZM21.9434 7.07846C22.0402 7.50859 22.0964 7.95056 22.1291 8.39878C24.9349 9.76491 26.8333 12.3263 26.8333 15.2609C26.8333 17.4177 25.8203 19.4365 23.9805 20.944C23.8189 21.0762 23.7448 21.2837 23.7856 21.4849L23.8027 21.5666C24.1562 23.0582 25.3521 24.1758 26.2078 24.8088C26.0089 24.845 25.7675 24.8696 25.4753 24.8696C21.8708 24.8696 20.4063 23.3857 20.215 23.1805L20.1318 23.1044C20.0228 23.0043 19.8784 22.9509 19.7308 22.9509C19.6923 22.9509 19.6542 22.9546 19.6157 22.962C18.9 23.1027 18.1877 23.1739 17.5 23.1739C14.0274 23.1739 10.9974 21.5542 9.3903 19.1622C9.19663 19.1452 9.00408 19.1308 8.80924 19.1048C8.64708 19.2263 8.44638 19.3578 8.22705 19.4912C9.9928 22.3512 13.4849 24.3043 17.5 24.3043C18.1656 24.3043 18.8494 24.2447 19.5371 24.1266C20.1088 24.6624 21.8953 26 25.4753 26C27.1016 26 27.7291 25.3962 27.8382 25.2747C27.9549 25.1458 28.0036 24.9723 27.9727 24.8033C27.9423 24.6349 27.835 24.489 27.6798 24.407C27.6577 24.3951 25.5762 23.2695 25.0116 21.571C26.9418 19.8714 28 17.6444 28 15.2609C28 11.6435 25.5151 8.52373 21.9434 7.07846ZM5.83333 10.1739C5.75603 10.1729 5.67929 10.1867 5.60756 10.2146C5.53583 10.2425 5.47054 10.284 5.41549 10.3366C5.36044 10.3892 5.31673 10.4519 5.28689 10.521C5.25706 10.5901 5.24169 10.6642 5.24169 10.7391C5.24169 10.814 5.25706 10.8882 5.28689 10.9573C5.31673 11.0264 5.36044 11.0891 5.41549 11.1417C5.47054 11.1942 5.53583 11.2357 5.60756 11.2636C5.67929 11.2916 5.75603 11.3054 5.83333 11.3043H11.0833C11.1606 11.3054 11.2374 11.2916 11.3091 11.2636C11.3808 11.2357 11.4461 11.1942 11.5012 11.1417C11.5562 11.0891 11.5999 11.0264 11.6298 10.9573C11.6596 10.8882 11.675 10.814 11.675 10.7391C11.675 10.6642 11.6596 10.5901 11.6298 10.521C11.5999 10.4519 11.5562 10.3892 11.5012 10.3366C11.4461 10.284 11.3808 10.2425 11.3091 10.2146C11.2374 10.1867 11.1606 10.1729 11.0833 10.1739H5.83333ZM13.4167 10.1739C13.3394 10.1729 13.2626 10.1867 13.1909 10.2146C13.1192 10.2425 13.0539 10.284 12.9988 10.3366C12.9438 10.3892 12.9001 10.4519 12.8702 10.521C12.8404 10.5901 12.825 10.6642 12.825 10.7391C12.825 10.814 12.8404 10.8882 12.8702 10.9573C12.9001 11.0264 12.9438 11.0891 12.9988 11.1417C13.0539 11.1942 13.1192 11.2357 13.1909 11.2636C13.2626 11.2916 13.3394 11.3054 13.4167 11.3043H15.1667C15.244 11.3054 15.3207 11.2916 15.3924 11.2636C15.4642 11.2357 15.5295 11.1942 15.5845 11.1417C15.6396 11.0891 15.6833 11.0264 15.7131 10.9573C15.7429 10.8882 15.7583 10.814 15.7583 10.7391C15.7583 10.6642 15.7429 10.5901 15.7131 10.521C15.6833 10.4519 15.6396 10.3892 15.5845 10.3366C15.5295 10.284 15.4642 10.2425 15.3924 10.2146C15.3207 10.1867 15.244 10.1729 15.1667 10.1739H13.4167Z" fill="#27450E"/>
</svg>
