<svg width="24" height="28" viewBox="0 0 24 28" fill="none" xmlns="http://www.w3.org/2000/svg">
<path d="M10.5996 24.1846C10.5998 25.0024 11.2008 25.6562 12 25.6562C12.7992 25.6562 13.4002 25.0024 13.4004 24.1846V23.9844H10.5996V24.1846ZM11.9326 4.91992C7.85479 4.96065 4.59961 8.43272 4.59961 12.7373V16.5527C4.59959 18.6139 3.97148 20.3088 3.32227 21.5479L3.16797 21.8408H20.832L20.6777 21.5479C20.0285 20.3088 19.4004 18.6139 19.4004 16.5527V12.7373C19.4004 8.56825 16.3471 5.18076 12.4502 4.93457L12.0703 4.91992L12.0566 4.9209C12.02 4.92306 11.9829 4.92306 11.9463 4.9209V4.91992H11.9326ZM11 1.28711C10.9963 0.999539 11.1001 0.723551 11.2861 0.520508C11.4718 0.317952 11.7234 0.204571 11.9844 0.200195C12.1164 0.19801 12.248 0.223632 12.3711 0.276367C12.4941 0.329129 12.6069 0.40814 12.7021 0.508789C12.7974 0.609573 12.8735 0.730578 12.9248 0.864258C12.9761 0.998028 13.0019 1.1421 13 1.28711V2.99414L13.1729 3.01758C17.771 3.65867 21.4004 7.6817 21.4004 12.7373V16.5527C21.4004 18.2199 21.9257 19.6174 22.4482 20.5957C22.7097 21.0852 22.971 21.4718 23.168 21.7363C23.2664 21.8685 23.3489 21.9705 23.4072 22.04C23.4364 22.0748 23.4595 22.1019 23.4756 22.1201C23.4836 22.1292 23.4907 22.1358 23.4951 22.1406C23.4973 22.143 23.4988 22.1451 23.5 22.1465L23.501 22.1484H23.502L23.6484 22.0127L23.502 22.1494L23.5029 22.1504C23.6437 22.2997 23.7409 22.4911 23.7803 22.7012C23.8196 22.9112 23.7997 23.1289 23.7227 23.3262C23.6456 23.5233 23.5158 23.6902 23.3516 23.8066C23.1874 23.923 22.9949 23.9843 22.7998 23.9844H15.4004V24.1846C15.4002 26.1774 13.8526 27.7998 12 27.7998C10.1474 27.7998 8.5998 26.1774 8.59961 24.1846V23.9844H1.2002C1.00513 23.9843 0.812618 23.923 0.648438 23.8066C0.484179 23.6902 0.35438 23.5233 0.277344 23.3262C0.200283 23.1289 0.180353 22.9112 0.219727 22.7012C0.259121 22.4911 0.356338 22.2997 0.49707 22.1504L0.498047 22.1494V22.1484H0.499023L0.5 22.1465C0.501223 22.1451 0.50274 22.143 0.504883 22.1406C0.509289 22.1358 0.516373 22.1292 0.524414 22.1201C0.540509 22.1019 0.563622 22.0748 0.592773 22.04C0.651057 21.9705 0.733635 21.8685 0.832031 21.7363C1.02897 21.4718 1.29029 21.0852 1.55176 20.5957C2.07431 19.6174 2.59959 18.2199 2.59961 16.5527V12.7373C2.59961 7.6817 6.22903 3.65867 10.8271 3.01758L11 2.99414V1.28711Z" fill="#27450E" stroke="white" stroke-width="0.4"/>
</svg>
