<svg width="33" height="31" viewBox="0 0 33 31" fill="none" xmlns="http://www.w3.org/2000/svg">
<path d="M16.5015 1.72901e-07C15.748 -0.000243165 14.9929 0.256366 14.3886 0.770422L0.596643 12.5038C0.595617 12.5043 0.594593 12.5048 0.593569 12.5053C0.0183305 12.9977 -0.125781 13.7813 0.104897 14.3913C0.335576 15.0013 0.968516 15.5008 1.73227 15.5008H3.91131H25.9415C26.0458 15.5022 26.1493 15.4832 26.246 15.4449C26.3428 15.4066 26.4308 15.3498 26.5051 15.2777C26.5793 15.2056 26.6383 15.1197 26.6785 15.0249C26.7188 14.9302 26.7395 14.8285 26.7395 14.7258C26.7395 14.6231 26.7188 14.5214 26.6785 14.4267C26.6383 14.3319 26.5793 14.246 26.5051 14.1739C26.4308 14.1018 26.3428 14.0449 26.246 14.0066C26.1493 13.9684 26.0458 13.9494 25.9415 13.9508H3.91131H1.73227C1.61481 13.9508 1.60516 13.9156 1.58013 13.8494C1.5551 13.7832 1.54057 13.7487 1.62623 13.6754L15.4182 1.94346C16.0443 1.4108 16.9578 1.41083 17.5834 1.94346L22.2795 5.94239C22.3936 6.03951 22.5335 6.10233 22.6827 6.12337C22.8319 6.14442 22.9842 6.12281 23.1213 6.0611C23.2584 5.9994 23.3746 5.9002 23.4561 5.77531C23.5377 5.65042 23.581 5.5051 23.5811 5.35662V3.10136C23.5811 2.67161 23.9316 2.3264 24.3679 2.3264H25.9415C26.3778 2.3264 26.7283 2.67161 26.7283 3.10136V9.37068C26.7281 9.48208 26.7523 9.5922 26.7993 9.69354C26.8462 9.79488 26.9148 9.88507 27.0003 9.95796L31.3738 13.6754C31.4594 13.7487 31.4449 13.7832 31.4199 13.8494C31.3948 13.9156 31.3852 13.9508 31.2677 13.9508H29.0887C28.88 13.9509 28.6799 14.0325 28.5324 14.1778C28.3848 14.3232 28.3019 14.5203 28.3019 14.7258V27.1252C28.3019 28.4074 27.2433 29.4501 25.9415 29.4501H7.05849C5.7567 29.4501 4.69811 28.4074 4.69811 27.1252V17.8256C4.69958 17.7229 4.68032 17.621 4.64144 17.5257C4.60256 17.4304 4.54484 17.3437 4.47164 17.2705C4.39843 17.1974 4.3112 17.1393 4.21501 17.0997C4.11881 17.0601 4.01558 17.0396 3.91131 17.0396C3.80704 17.0396 3.70381 17.0601 3.60762 17.0997C3.51143 17.1393 3.4242 17.1974 3.35099 17.2705C3.27779 17.3437 3.22007 17.4304 3.18119 17.5257C3.14231 17.621 3.12305 17.7229 3.12452 17.8256V27.1252C3.12452 29.2528 4.89838 31 7.05849 31H25.9415C28.1016 31 29.8755 29.2528 29.8755 27.1252V15.5008H31.2677C32.0315 15.5008 32.6644 15.0013 32.8951 14.3913C33.1258 13.7813 32.9817 12.9977 32.4064 12.5053C32.4054 12.5048 32.4044 12.5043 32.4034 12.5038L28.3019 9.0165V3.10136C28.3019 1.8262 27.2361 0.776476 25.9415 0.776476H24.3679C23.0733 0.776476 22.0075 1.8262 22.0075 3.10136V3.66291L18.6114 0.771935C18.0076 0.257863 17.2551 0.000243511 16.5015 1.72901e-07Z" fill="white"/>
</svg>
