<svg width="24" height="20" viewBox="0 0 24 20" fill="none" xmlns="http://www.w3.org/2000/svg">
<path d="M2.9434 0C1.31321 0 0 1.31818 0 2.95455V17.0455C0 18.6818 1.31321 20 2.9434 20H21.0566C22.6189 20 24 18.7273 24 17.2727V2.95455C24 1.31818 22.6868 0 21.0566 0H2.9434ZM2.9434 1.36364H21.0566C21.9396 1.36364 22.6415 2.06818 22.6415 2.95455V17.2727C22.6415 17.9091 21.9396 18.6364 21.0566 18.6364H2.9434C2.06038 18.6364 1.35849 17.9318 1.35849 17.0455V2.95455C1.35849 2.06818 2.06038 1.36364 2.9434 1.36364ZM3.69649 5.629C3.56709 5.63094 3.44094 5.66995 3.33288 5.74143C3.22482 5.81291 3.13935 5.91389 3.08653 6.03248C3.03371 6.15107 3.01573 6.28234 3.03471 6.41084C3.0537 6.53933 3.10885 6.65972 3.19369 6.75781C3.19369 6.75781 4.37996 8.17181 6.04157 9.58807C7.70318 11.0043 9.82781 12.5 12 12.5C14.1722 12.5 16.2968 11.0043 17.9584 9.58807C19.62 8.17181 20.8063 6.75781 20.8063 6.75781C20.8648 6.68948 20.9093 6.61019 20.9371 6.52453C20.9649 6.43886 20.9755 6.34851 20.9683 6.2587C20.9611 6.16889 20.9362 6.0814 20.8951 6.00129C20.8541 5.92118 20.7976 5.85003 20.729 5.79196C20.6603 5.73389 20.5809 5.69005 20.4953 5.66298C20.4097 5.6359 20.3196 5.62612 20.2302 5.6342C20.1408 5.64229 20.0539 5.66808 19.9745 5.71008C19.8951 5.75208 19.8247 5.80946 19.7675 5.87891C19.7675 5.87891 18.6441 7.21473 17.0793 8.54847C15.5145 9.88222 13.4957 11.1364 12 11.1364C10.5043 11.1364 8.4855 9.88222 6.9207 8.54847C5.35589 7.21473 4.23246 5.87891 4.23246 5.87891C4.16764 5.79942 4.08577 5.73566 3.99297 5.69238C3.90016 5.64911 3.79881 5.62744 3.69649 5.629Z" fill="#27450E"/>
</svg>
