<svg width="23" height="26" viewBox="0 0 23 26" fill="none" xmlns="http://www.w3.org/2000/svg">
<path d="M6.83782 0C5.12867 0 3.72972 1.32983 3.72972 2.95455V3.54545H3.1081C1.39895 3.54545 0 4.87529 0 6.5V23.0455C0 24.6702 1.39895 26 3.1081 26H15.5405C16.6793 26 17.683 25.4137 18.2224 24.5389C18.2664 24.4719 18.2958 24.3972 18.3089 24.3192C18.322 24.2413 18.3185 24.1616 18.2986 24.0849C18.2788 24.0082 18.243 23.9361 18.1933 23.8728C18.1437 23.8095 18.0812 23.7563 18.0095 23.7164C17.9379 23.6764 17.8585 23.6505 17.7762 23.6402C17.6939 23.6299 17.6102 23.6354 17.5301 23.6563C17.45 23.6773 17.3751 23.7133 17.3099 23.7622C17.2447 23.8111 17.1905 23.8719 17.1504 23.941C16.827 24.4655 16.2317 24.8182 15.5405 24.8182H3.1081C2.07094 24.8182 1.24324 24.0314 1.24324 23.0455V6.5C1.24324 5.51408 2.07094 4.72727 3.1081 4.72727H3.72972V19.5C3.72972 21.1247 5.12867 22.4545 6.83782 22.4545H19.8918C21.601 22.4545 22.9999 21.1247 22.9999 19.5V9.45455C23.0011 9.37624 22.9859 9.2985 22.9552 9.22584C22.9245 9.15317 22.8788 9.08704 22.821 9.03127C22.7632 8.97551 22.6943 8.93123 22.6183 8.90101C22.5423 8.87078 22.4607 8.85522 22.3783 8.85522C22.2959 8.85522 22.2144 8.87078 22.1384 8.90101C22.0624 8.93123 21.9935 8.97551 21.9356 9.03127C21.8778 9.08704 21.8322 9.15317 21.8015 9.22584C21.7708 9.2985 21.7555 9.37624 21.7567 9.45455V19.5C21.7567 20.4859 20.929 21.2727 19.8918 21.2727H6.83782C5.80066 21.2727 4.97296 20.4859 4.97296 19.5V4.23562C4.98406 4.1718 4.98406 4.10669 4.97296 4.04288V2.95455C4.97296 1.96862 5.80066 1.18182 6.83782 1.18182H14.7683C14.8249 1.18182 14.8635 1.23352 14.9189 1.24068V5.31818C14.9189 6.61661 16.0395 7.68182 17.4054 7.68182H22.3783C22.5012 7.68177 22.6214 7.64709 22.7236 7.58215C22.8258 7.51722 22.9054 7.42494 22.9524 7.31699C22.9995 7.20904 23.0118 7.09026 22.9878 6.97565C22.9639 6.86105 22.9047 6.75577 22.8178 6.67312L16.5263 0.692472C16.0604 0.248774 15.4277 0 14.7683 0H6.83782ZM16.1621 2.0174L20.8777 6.5H17.4054C16.7112 6.5 16.1621 5.97803 16.1621 5.31818V2.0174ZM8.70268 10.6364C8.62031 10.6353 8.53852 10.6497 8.46209 10.6789C8.38565 10.7081 8.31607 10.7515 8.25741 10.8064C8.19875 10.8614 8.15217 10.9269 8.12037 10.9992C8.08858 11.0714 8.07221 11.149 8.07221 11.2273C8.07221 11.3056 8.08858 11.3831 8.12037 11.4554C8.15217 11.5276 8.19875 11.5931 8.25741 11.6481C8.31607 11.7031 8.38565 11.7464 8.46209 11.7756C8.53852 11.8048 8.62031 11.8193 8.70268 11.8182H18.027C18.1094 11.8193 18.1911 11.8048 18.2676 11.7756C18.344 11.7464 18.4136 11.7031 18.4722 11.6481C18.5309 11.5931 18.5775 11.5276 18.6093 11.4554C18.6411 11.3831 18.6575 11.3056 18.6575 11.2273C18.6575 11.149 18.6411 11.0714 18.6093 10.9992C18.5775 10.9269 18.5309 10.8614 18.4722 10.8064C18.4136 10.7515 18.344 10.7081 18.2676 10.6789C18.1911 10.6497 18.1094 10.6353 18.027 10.6364H8.70268ZM8.70268 13.5909C8.62031 13.5898 8.53852 13.6043 8.46209 13.6335C8.38565 13.6627 8.31607 13.706 8.25741 13.761C8.19875 13.816 8.15217 13.8815 8.12037 13.9537C8.08858 14.026 8.07221 14.1035 8.07221 14.1818C8.07221 14.2601 8.08858 14.3377 8.12037 14.4099C8.15217 14.4821 8.19875 14.5477 8.25741 14.6026C8.31607 14.6576 8.38565 14.701 8.46209 14.7302C8.53852 14.7594 8.62031 14.7738 8.70268 14.7727H18.027C18.1094 14.7738 18.1911 14.7594 18.2676 14.7302C18.344 14.701 18.4136 14.6576 18.4722 14.6026C18.5309 14.5477 18.5775 14.4821 18.6093 14.4099C18.6411 14.3377 18.6575 14.2601 18.6575 14.1818C18.6575 14.1035 18.6411 14.026 18.6093 13.9537C18.5775 13.8815 18.5309 13.816 18.4722 13.761C18.4136 13.706 18.344 13.6627 18.2676 13.6335C18.1911 13.6043 18.1094 13.5898 18.027 13.5909H8.70268ZM8.70268 16.5455C8.62031 16.5443 8.53852 16.5588 8.46209 16.588C8.38565 16.6172 8.31607 16.6606 8.25741 16.7155C8.19875 16.7705 8.15217 16.836 8.12037 16.9083C8.08858 16.9805 8.07221 17.0581 8.07221 17.1364C8.07221 17.2147 8.08858 17.2922 8.12037 17.3644C8.15217 17.4367 8.19875 17.5022 8.25741 17.5572C8.31607 17.6122 8.38565 17.6555 8.46209 17.6847C8.53852 17.7139 8.62031 17.7284 8.70268 17.7273H14.2973C14.3796 17.7284 14.4614 17.7139 14.5379 17.6847C14.6143 17.6555 14.6839 17.6122 14.7425 17.5572C14.8012 17.5022 14.8478 17.4367 14.8796 17.3644C14.9114 17.2922 14.9277 17.2147 14.9277 17.1364C14.9277 17.0581 14.9114 16.9805 14.8796 16.9083C14.8478 16.836 14.8012 16.7705 14.7425 16.7155C14.6839 16.6606 14.6143 16.6172 14.5379 16.588C14.4614 16.5588 14.3796 16.5443 14.2973 16.5455H8.70268Z" fill="#27450E"/>
</svg>
