<svg width="26" height="26" viewBox="0 0 26 26" fill="none" xmlns="http://www.w3.org/2000/svg">
<path d="M24.1429 0H1.85714C1.3646 0 0.892227 0.195663 0.543945 0.543945C0.195663 0.892227 0 1.3646 0 1.85714V24.1429C0 24.6354 0.195663 25.1078 0.543945 25.4561C0.892227 25.8043 1.3646 26 1.85714 26H24.1429C24.6354 26 25.1078 25.8043 25.4561 25.4561C25.8043 25.1078 26 24.6354 26 24.1429V1.85714C26 1.3646 25.8043 0.892227 25.4561 0.543945C25.1078 0.195663 24.6354 0 24.1429 0ZM24.7619 1.85714V12.381H13.619V1.2381H24.1429C24.307 1.2381 24.4645 1.30332 24.5806 1.41941C24.6967 1.5355 24.7619 1.69296 24.7619 1.85714ZM1.85714 1.2381H12.381V12.381H1.2381V1.85714C1.2381 1.69296 1.30332 1.5355 1.41941 1.41941C1.5355 1.30332 1.69296 1.2381 1.85714 1.2381ZM1.2381 24.1429V13.619H12.381V24.7619H1.85714C1.69296 24.7619 1.5355 24.6967 1.41941 24.5806C1.30332 24.4645 1.2381 24.307 1.2381 24.1429ZM24.1429 24.7619H13.619V13.619H24.7619V24.1429C24.7619 24.307 24.6967 24.4645 24.5806 24.5806C24.4645 24.6967 24.307 24.7619 24.1429 24.7619ZM3.71429 6.80952C3.71429 6.64534 3.77951 6.48789 3.8956 6.37179C4.01169 6.2557 4.16915 6.19048 4.33333 6.19048H6.19048V4.33333C6.19048 4.16915 6.2557 4.01169 6.37179 3.8956C6.48789 3.77951 6.64534 3.71429 6.80952 3.71429C6.97371 3.71429 7.13116 3.77951 7.24726 3.8956C7.36335 4.01169 7.42857 4.16915 7.42857 4.33333V6.19048H9.28572C9.4499 6.19048 9.60735 6.2557 9.72345 6.37179C9.83954 6.48789 9.90476 6.64534 9.90476 6.80952C9.90476 6.97371 9.83954 7.13116 9.72345 7.24726C9.60735 7.36335 9.4499 7.42857 9.28572 7.42857H7.42857V9.28572C7.42857 9.4499 7.36335 9.60735 7.24726 9.72345C7.13116 9.83954 6.97371 9.90476 6.80952 9.90476C6.64534 9.90476 6.48789 9.83954 6.37179 9.72345C6.2557 9.60735 6.19048 9.4499 6.19048 9.28572V7.42857H4.33333C4.16915 7.42857 4.01169 7.36335 3.8956 7.24726C3.77951 7.13116 3.71429 6.97371 3.71429 6.80952ZM16.999 5.49714C16.8825 5.38057 16.817 5.22247 16.817 5.05762C16.817 4.89277 16.8825 4.73466 16.999 4.6181C17.1156 4.50153 17.2737 4.43604 17.4386 4.43604C17.6034 4.43604 17.7615 4.50153 17.8781 4.6181L19.1905 5.93048L20.5029 4.6181C20.6194 4.50153 20.7775 4.43604 20.9424 4.43604C21.1072 4.43604 21.2653 4.50153 21.3819 4.6181C21.4985 4.73466 21.564 4.89277 21.564 5.05762C21.564 5.22247 21.4985 5.38057 21.3819 5.49714L20.0695 6.80952L21.3819 8.12191C21.4961 8.23971 21.56 8.39735 21.56 8.56143C21.56 8.72551 21.4961 8.88315 21.3819 9.00095C21.3228 9.05796 21.253 9.10264 21.1765 9.1324C21.0999 9.16216 21.0183 9.17639 20.9362 9.17429C20.8561 9.17543 20.7766 9.16071 20.7022 9.13096C20.6278 9.10121 20.5601 9.05702 20.5029 9.00095L19.1905 7.68857L17.8781 9.00095C17.8209 9.05702 17.7531 9.10121 17.6788 9.13096C17.6044 9.16071 17.5249 9.17543 17.4448 9.17429C17.3627 9.17639 17.281 9.16216 17.2045 9.1324C17.128 9.10264 17.0581 9.05796 16.999 9.00095C16.8848 8.88315 16.821 8.72551 16.821 8.56143C16.821 8.39735 16.8848 8.23971 16.999 8.12191L18.3114 6.80952L16.999 5.49714ZM6.37619 17.1476C6.31697 17.092 6.26977 17.0249 6.23751 16.9504C6.20524 16.8759 6.1886 16.7955 6.1886 16.7143C6.1886 16.6331 6.20524 16.5527 6.23751 16.4782C6.26977 16.4037 6.31697 16.3365 6.37619 16.281C6.45527 16.1853 6.56176 16.1163 6.6813 16.0831C6.80085 16.0499 6.9277 16.0541 7.04476 16.0952C7.12202 16.1216 7.19055 16.1687 7.24286 16.2314C7.30208 16.287 7.34928 16.3541 7.38154 16.4287C7.41381 16.5032 7.43045 16.5835 7.43045 16.6648C7.43045 16.746 7.41381 16.8263 7.38154 16.9009C7.34928 16.9754 7.30208 17.0425 7.24286 17.0981C7.19055 17.1608 7.12202 17.2079 7.04476 17.2343C6.96733 17.2518 6.88696 17.2518 6.80952 17.2343C6.6593 17.2635 6.50362 17.2324 6.37619 17.1476ZM7.24286 21.2333C7.30233 21.2886 7.34958 21.3557 7.38157 21.4303C7.41355 21.505 7.42956 21.5855 7.42857 21.6667C7.44699 21.744 7.44699 21.8246 7.42857 21.9019C7.36255 22.051 7.24338 22.1702 7.09429 22.2362C7.01685 22.2537 6.93648 22.2537 6.85905 22.2362C6.77786 22.2372 6.69736 22.2212 6.62273 22.1892C6.5481 22.1572 6.48099 22.11 6.42571 22.0505C6.33346 22.0273 6.25103 21.9753 6.19048 21.9019C6.17206 21.8246 6.17206 21.744 6.19048 21.6667C6.18949 21.5855 6.2055 21.505 6.23748 21.4303C6.26947 21.3557 6.31672 21.2886 6.37619 21.2333C6.45527 21.1377 6.56176 21.0687 6.6813 21.0355C6.80085 21.0022 6.9277 21.0065 7.04476 21.0476C7.1285 21.0874 7.19775 21.1523 7.24286 21.2333ZM9.90476 19.1905C9.90476 19.3547 9.83954 19.5121 9.72345 19.6282C9.60735 19.7443 9.4499 19.8095 9.28572 19.8095H4.33333C4.16915 19.8095 4.01169 19.7443 3.8956 19.6282C3.77951 19.5121 3.71429 19.3547 3.71429 19.1905C3.71429 19.0263 3.77951 18.8688 3.8956 18.7527C4.01169 18.6367 4.16915 18.5714 4.33333 18.5714H9.28572C9.4499 18.5714 9.60735 18.6367 9.72345 18.7527C9.83954 18.8688 9.90476 19.0263 9.90476 19.1905ZM22.2857 19.1905C22.2857 19.3547 22.2205 19.5121 22.1044 19.6282C21.9883 19.7443 21.8308 19.8095 21.6667 19.8095H16.7143C16.5501 19.8095 16.3926 19.7443 16.2766 19.6282C16.1605 19.5121 16.0952 19.3547 16.0952 19.1905C16.0952 19.0263 16.1605 18.8688 16.2766 18.7527C16.3926 18.6367 16.5501 18.5714 16.7143 18.5714H21.6667C21.8308 18.5714 21.9883 18.6367 22.1044 18.7527C22.2205 18.8688 22.2857 19.0263 22.2857 19.1905Z" fill="#27450E"/>
</svg>
