<svg width="26" height="26" viewBox="0 0 26 26" fill="none" xmlns="http://www.w3.org/2000/svg">
<path d="M13 0C5.84356 0 0 5.84356 0 13C0 20.1564 5.84356 26 13 26C20.1564 26 26 20.1564 26 13C26 5.84356 20.1564 0 13 0ZM13 1.54455C19.3069 1.54455 24.4554 6.69307 24.4554 13C24.4554 19.3069 19.3069 24.4554 13 24.4554C6.69307 24.4554 1.54455 19.3069 1.54455 13C1.54455 6.69307 6.69307 1.54455 13 1.54455ZM13 4.50495C12.5624 4.50495 12.2277 4.8396 12.2277 5.27723V11.6616C11.7644 11.919 11.4554 12.4337 11.4554 13C11.4554 13.8495 12.1505 14.5446 13 14.5446C13.5663 14.5446 14.081 14.2356 14.3384 13.7723H18.1485C18.5861 13.7723 18.9208 13.4376 18.9208 13C18.9208 12.5624 18.5861 12.2277 18.1485 12.2277H14.3384C14.2097 11.996 14.004 11.7903 13.7723 11.6616V5.27723C13.7723 4.8396 13.4376 4.50495 13 4.50495ZM11.7129 18.6634C11.2752 18.6634 10.9406 18.998 10.9406 19.4356C10.9406 19.8733 11.2752 20.2079 11.7129 20.2079H14.2871C14.7248 20.2079 15.0594 19.8733 15.0594 19.4356C15.0594 18.998 14.7248 18.6634 14.2871 18.6634H11.7129Z" fill="#27450E"/>
</svg>
