<svg width="24" height="25" viewBox="0 0 24 25" fill="none" xmlns="http://www.w3.org/2000/svg">
<path d="M3.28421 15.8854C5.10316 15.8854 6.56842 14.375 6.56842 12.5C6.56842 10.625 5.10316 9.11458 3.28421 9.11458C1.46526 9.11458 0 10.625 0 12.5C0 14.375 1.46526 15.8854 3.28421 15.8854ZM3.28421 10.6771C4.26947 10.6771 5.05263 11.4844 5.05263 12.5C5.05263 13.5156 4.26947 14.3229 3.28421 14.3229C2.29895 14.3229 1.51579 13.5156 1.51579 12.5C1.51579 11.4844 2.29895 10.6771 3.28421 10.6771ZM3.28421 25C5.10316 25 6.56842 23.4896 6.56842 21.6146C6.56842 19.7396 5.10316 18.2292 3.28421 18.2292C1.46526 18.2292 0 19.7396 0 21.6146C0 23.4896 1.46526 25 3.28421 25ZM3.28421 19.7917C4.26947 19.7917 5.05263 20.599 5.05263 21.6146C5.05263 22.6302 4.26947 23.4375 3.28421 23.4375C2.29895 23.4375 1.51579 22.6302 1.51579 21.6146C1.51579 20.599 2.29895 19.7917 3.28421 19.7917ZM3.28421 6.77083C5.10316 6.77083 6.56842 5.26042 6.56842 3.38542C6.56842 1.51042 5.10316 0 3.28421 0C1.46526 0 0 1.51042 0 3.38542C0 5.26042 1.46526 6.77083 3.28421 6.77083ZM3.28421 1.5625C4.26947 1.5625 5.05263 2.36979 5.05263 3.38542C5.05263 4.40104 4.26947 5.20833 3.28421 5.20833C2.29895 5.20833 1.51579 4.40104 1.51579 3.38542C1.51579 2.36979 2.29895 1.5625 3.28421 1.5625ZM9.6 4.16667H23.2421C23.6716 4.16667 24 3.82812 24 3.38542C24 2.94271 23.6716 2.60417 23.2421 2.60417H9.6C9.17053 2.60417 8.8421 2.94271 8.8421 3.38542C8.8421 3.82812 9.17053 4.16667 9.6 4.16667ZM9.6 13.2812H23.2421C23.6716 13.2812 24 12.9427 24 12.5C24 12.0573 23.6716 11.7188 23.2421 11.7188H9.6C9.17053 11.7188 8.8421 12.0573 8.8421 12.5C8.8421 12.9427 9.17053 13.2812 9.6 13.2812ZM9.6 22.3958H23.2421C23.6716 22.3958 24 22.0573 24 21.6146C24 21.1719 23.6716 20.8333 23.2421 20.8333H9.6C9.17053 20.8333 8.8421 21.1719 8.8421 21.6146C8.8421 22.0573 9.17053 22.3958 9.6 22.3958Z" fill="#27450E"/>
</svg>
