<svg width="106" height="106" viewBox="0 0 106 106" fill="none" xmlns="http://www.w3.org/2000/svg">
<g clip-path="url(#clip0_431_164)">
<path d="M68.1028 88.8748L23.9236 77.037L30.6394 65.3832C33.0219 61.2421 36.8892 58.1612 41.458 56.7646L45.0658 55.6701C45.5031 55.5364 45.899 55.2935 46.2163 54.9642C46.5336 54.635 46.7617 54.2303 46.8792 53.7884L48.2126 48.8118C48.3314 48.3575 48.3293 47.8801 48.2064 47.4269C48.0835 46.9738 47.8441 46.5607 47.5121 46.2287L45.2281 43.8898C41.7767 40.3528 39.8537 35.601 39.874 30.6591L39.9395 17.2651L84.1187 29.1029L77.3941 40.8936C74.9674 45.149 70.9782 48.2914 66.2729 49.654L63.0361 50.6111C62.5847 50.732 62.1727 50.9684 61.8404 51.297C61.5082 51.6255 61.2672 52.0349 61.1413 52.4849L59.8635 57.2537C59.7504 57.7047 59.7562 58.1774 59.8801 58.6255C60.0041 59.0737 60.2422 59.4821 60.571 59.8108L62.9743 62.4324C66.2954 65.9427 68.1402 70.5954 68.1267 75.4279L68.1028 88.8748Z" fill="#F9E3AE"/>
<path d="M68.1028 88.8751L23.9236 77.0373L26.9958 71.7049L27.5706 70.703L30.6393 65.3835C33.018 61.2436 36.8804 58.1618 41.445 56.7614C54.3693 51.7709 40.2413 84.2785 59.2994 59.359L63.0427 62.4371C64.1171 63.5999 65.0435 64.8913 65.8006 66.2817C66.4674 67.493 66.9975 68.7748 67.3809 70.1033C67.8786 71.83 68.1308 73.6182 68.1302 75.4152L68.1064 87.3023L68.1028 88.8751Z" fill="white"/>
<path d="M90.7102 25.298L36.1359 10.6749C34.7006 10.2903 33.2253 11.142 32.8408 12.5773C32.4562 14.0126 33.3079 15.4878 34.7432 15.8724L89.3175 30.4956C90.7528 30.8801 92.2281 30.0284 92.6127 28.5931C92.9972 27.1579 92.1455 25.6826 90.7102 25.298Z" fill="#E27600"/>
<path d="M73.3001 90.2677L18.7257 75.6446C17.2905 75.26 15.8152 76.1118 15.4306 77.547C15.046 78.9823 15.8978 80.4576 17.333 80.8421L71.9074 95.4653C73.3426 95.8499 74.8179 94.9981 75.2025 93.5628C75.5871 92.1276 74.7353 90.6523 73.3001 90.2677Z" fill="#E27600"/>
<path d="M73.6499 88.9682L69.4529 87.8436L69.4825 75.4149C69.5023 70.2355 67.5204 65.2488 63.9507 61.496L61.4756 58.883C61.3168 58.7167 61.2034 58.5125 61.146 58.2899C61.0886 58.0673 61.0892 57.8337 61.1478 57.6114L62.4291 52.8297C62.4879 52.6051 62.6038 52.3995 62.7655 52.233C62.9273 52.0664 63.1294 51.9446 63.3522 51.8793L66.6679 50.8876C71.7033 49.4455 75.9755 46.0921 78.5723 41.5433L84.7724 30.6705L88.9694 31.795C90.0033 32.0721 91.1048 31.927 92.0318 31.3919C92.9587 30.8567 93.6351 29.9752 93.9121 28.9414C94.1891 27.9075 94.0441 26.806 93.5089 25.879C92.9738 24.9521 92.0923 24.2757 91.0584 23.9987L36.4841 9.37557C35.4502 9.09854 34.3487 9.24357 33.4218 9.77873C32.4948 10.3139 31.8184 11.1954 31.5414 12.2292C31.2644 13.2631 31.4094 14.3646 31.9446 15.2916C32.4798 16.2185 33.3612 16.8949 34.3951 17.1719L38.5921 18.2965L38.5409 30.6498C38.4873 35.9662 40.5466 41.0864 44.2664 44.8852L46.5504 47.2241C46.7136 47.3911 46.8305 47.5976 46.8896 47.8235C46.9487 48.0493 46.9481 48.2867 46.8877 48.5122L45.5507 53.5018C45.492 53.7228 45.3779 53.9251 45.2193 54.0897C45.0607 54.2543 44.8627 54.3758 44.6441 54.4427L41.0362 55.5371C36.1475 57.0334 32.009 60.3296 29.4569 64.7597L23.2726 75.4696L19.0756 74.345C18.0417 74.068 16.9402 74.213 16.0132 74.7482C15.0863 75.2833 14.4099 76.1648 14.1329 77.1987C13.8559 78.2325 14.0009 79.3341 14.5361 80.261C15.0712 81.1879 15.9527 81.8643 16.9866 82.1413L71.5609 96.7645C72.5948 97.0415 73.6963 96.8965 74.6233 96.3613C75.5502 95.8262 76.2266 94.9447 76.5036 93.9108C76.7806 92.877 76.6356 91.7754 76.1004 90.8485C75.5652 89.9215 74.6838 89.2452 73.6499 88.9682ZM34.1402 12.9256C34.2325 12.5809 34.458 12.2871 34.767 12.1087C35.076 11.9303 35.4431 11.882 35.7878 11.9743L90.3621 26.5975C90.7067 26.6898 91.0005 26.9153 91.1789 27.2243C91.3573 27.5332 91.4057 27.9004 91.3133 28.245C91.221 28.5897 90.9955 28.8835 90.6865 29.0619C90.3776 29.2403 90.0104 29.2886 89.6658 29.1963L35.0914 14.5731C34.7468 14.4808 34.453 14.2553 34.2746 13.9463C34.0962 13.6374 34.0479 13.2702 34.1402 12.9256ZM46.2081 42.9404C42.9962 39.664 41.2101 35.2506 41.2393 30.6625L41.2535 24.5803L65.4871 31.0737C65.8317 31.166 66.1989 31.1177 66.5079 30.9393C66.8169 30.7609 67.0423 30.4671 67.1347 30.1225C67.227 29.7779 67.1787 29.4107 67.0003 29.1017C66.8219 28.7927 66.5281 28.5673 66.1835 28.4749L41.4951 21.8597C41.4234 21.8333 41.3494 21.8135 41.2742 21.8005L41.2689 19.0137L82.0827 29.9497L76.2256 40.2181C73.9803 44.1774 70.2726 47.0988 65.898 48.3555L62.6222 49.3022C61.954 49.4952 61.347 49.8576 60.8601 50.3542C60.3732 50.8509 60.023 51.4649 59.8433 52.1368L59.7214 52.5916C56.098 52.4114 52.5544 51.4619 49.3263 49.8062L49.5039 49.1435C49.685 48.467 49.687 47.755 49.5096 47.0775C49.3322 46.3999 48.9815 45.7802 48.4921 45.2793L46.2081 42.9404ZM27.3604 73.7795C27.4281 73.8036 27.4976 73.8223 27.5683 73.8352C27.9129 73.9276 28.2801 73.8792 28.5891 73.7009C28.898 73.5225 29.1235 73.2287 29.2158 72.884L29.9122 70.2853C29.9762 70.0091 29.9514 69.7197 29.8412 69.4585L31.7976 66.0553C34.0101 62.2157 37.5978 59.3592 41.8356 58.0632L45.4435 56.9687C46.1015 56.7675 46.6972 56.4013 47.1738 55.905C47.6505 55.4087 47.9924 54.7988 48.1669 54.1332L48.6126 52.47C51.8671 54.056 55.3962 55.0016 59.0077 55.2553L58.5655 56.9056C58.3859 57.5725 58.3805 58.2743 58.5498 58.9439C58.7191 59.6135 59.0574 60.2284 59.5323 60.7299L62.0075 63.3428C65.0922 66.6005 66.807 70.9191 66.7971 75.4056L66.7898 79.331C66.5524 79.5049 66.3786 79.7519 66.2951 80.034L65.5987 82.6328C65.5064 82.9774 65.5547 83.3446 65.7331 83.6536C65.9115 83.9626 66.2053 84.188 66.5499 84.2804C66.6176 84.3044 66.6872 84.3231 66.7578 84.3361L66.7632 87.1229L25.9624 76.1903L27.3604 73.7795ZM72.2572 94.1657L17.6829 79.5426C17.3383 79.4502 17.0445 79.2248 16.8661 78.9158C16.6877 78.6068 16.6394 78.2396 16.7317 77.895C16.824 77.5504 17.0495 77.2566 17.3585 77.0782C17.6674 76.8998 18.0346 76.8514 18.3793 76.9438L72.9536 91.5669C73.2982 91.6593 73.592 91.8847 73.7704 92.1937C73.9488 92.5027 73.9971 92.8699 73.9048 93.2145C73.8125 93.5591 73.587 93.8529 73.278 94.0313C72.9691 94.2097 72.6019 94.258 72.2572 94.1657Z" fill="#27450E"/>
<path d="M58.7111 53.0651L58.2546 54.7687L49.3581 52.9712L50.1078 50.1734L58.7111 53.0651Z" fill="#F9E3AE" stroke="#F9E3AE" stroke-width="1.70312"/>
<path d="M35.4567 70.3786C35.112 70.2863 34.7449 70.3346 34.4359 70.513C34.1269 70.6914 33.9015 70.9852 33.8091 71.3298L33.1128 73.9286C33.0204 74.2732 33.0688 74.6404 33.2472 74.9494C33.4255 75.2584 33.7194 75.4838 34.064 75.5762C34.4086 75.6685 34.7758 75.6202 35.0848 75.4418C35.3937 75.2634 35.6192 74.9696 35.7115 74.6249L36.4079 72.0262C36.5002 71.6815 36.4519 71.3144 36.2735 71.0054C36.0951 70.6964 35.8013 70.4709 35.4567 70.3786ZM41.9536 72.1195C41.609 72.0271 41.2418 72.0755 40.9328 72.2538C40.6239 72.4322 40.3984 72.7261 40.3061 73.0707L39.6097 75.6695C39.5174 76.0141 39.5657 76.3813 39.7441 76.6902C39.9225 76.9992 40.2163 77.2247 40.5609 77.317C40.9056 77.4094 41.2727 77.361 41.5817 77.1826C41.8907 77.0042 42.1162 76.7104 42.2085 76.3658L42.9048 73.767C42.9972 73.4224 42.9488 73.0552 42.7704 72.7462C42.5921 72.4373 42.2982 72.2118 41.9536 72.1195ZM48.4506 73.8603C48.1059 73.768 47.7387 73.8163 47.4298 73.9947C47.1208 74.1731 46.8953 74.4669 46.803 74.8115L46.1067 77.4103C46.0143 77.7549 46.0627 78.1221 46.241 78.4311C46.4194 78.7401 46.7133 78.9655 47.0579 79.0579C47.4025 79.1502 47.7697 79.1019 48.0787 78.9235C48.3876 78.7451 48.6131 78.4513 48.7054 78.1066L49.4018 75.5079C49.4941 75.1632 49.4458 74.7961 49.2674 74.4871C49.089 74.1781 48.7952 73.9527 48.4506 73.8603ZM54.9475 75.6012C54.6029 75.5088 54.2357 75.5572 53.9267 75.7355C53.6177 75.9139 53.3923 76.2078 53.2999 76.5524L52.6036 79.1512C52.5113 79.4958 52.5596 79.863 52.738 80.1719C52.9164 80.4809 53.2102 80.7064 53.5548 80.7987C53.8994 80.8911 54.2666 80.8427 54.5756 80.6643C54.8846 80.4859 55.11 80.1921 55.2024 79.8475L55.8987 77.2487C55.9911 76.9041 55.9427 76.5369 55.7643 76.2279C55.5859 75.919 55.2921 75.6935 54.9475 75.6012ZM61.4444 77.342C61.0998 77.2497 60.7326 77.298 60.4237 77.4764C60.1147 77.6548 59.8892 77.9486 59.7969 78.2932L59.1005 80.892C59.0082 81.2366 59.0565 81.6038 59.2349 81.9128C59.4133 82.2218 59.7071 82.4472 60.0518 82.5396C60.3964 82.6319 60.7636 82.5836 61.0725 82.4052C61.3815 82.2268 61.607 81.933 61.6993 81.5883L62.3957 78.9896C62.488 78.645 62.4397 78.2778 62.2613 77.9688C62.0829 77.6598 61.7891 77.4344 61.4444 77.342ZM70.6835 32.4665L75.881 33.8591C76.2256 33.9515 76.5928 33.9031 76.9018 33.7247C77.2108 33.5464 77.4362 33.2525 77.5286 32.9079C77.6209 32.5633 77.5726 32.1961 77.3942 31.8871C77.2158 31.5782 76.922 31.3527 76.5773 31.2604L71.3798 29.8677C71.0352 29.7753 70.668 29.8237 70.359 30.0021C70.05 30.1805 69.8246 30.4743 69.7322 30.8189C69.6399 31.1635 69.6882 31.5307 69.8666 31.8397C70.045 32.1487 70.3388 32.3741 70.6835 32.4665Z" fill="#27450E"/>
</g>
<defs>
<clipPath id="clip0_431_164">
<rect width="86.0945" height="86.0945" fill="white" transform="translate(22.2832) rotate(15)"/>
</clipPath>
</defs>
</svg>
