<svg width="77" height="67" viewBox="0 0 77 67" fill="none" xmlns="http://www.w3.org/2000/svg">
<path d="M67.6042 55.3126H4.91675C3.93876 55.3126 3.00083 54.9241 2.30929 54.2325C1.61775 53.541 1.22925 52.6031 1.22925 51.6251V4.91675C1.22925 3.93876 1.61775 3.00083 2.30929 2.30929C3.00083 1.61775 3.93876 1.22925 4.91675 1.22925H23.3542L34.4167 8.60425H63.9167C64.8947 8.60425 65.8327 8.99275 66.5242 9.68429C67.2157 10.3758 67.6042 11.3138 67.6042 12.2917V55.3126Z" fill="white"/>
<path d="M4.91675 1.22925H24.5834L33.1876 9.83342H1.22925V4.91675C1.22925 3.93876 1.61775 3.00083 2.30929 2.30929C3.00083 1.61775 3.93876 1.22925 4.91675 1.22925Z" fill="white"/>
<path d="M67.6042 13.5208H72.5209C73.1729 13.5208 73.7982 13.7798 74.2592 14.2408C74.7202 14.7018 74.9792 15.3271 74.9792 15.9791V51.6249C74.9792 52.6029 74.5907 53.5408 73.8992 54.2324C73.2077 54.9239 72.2697 55.3124 71.2917 55.3124H67.6042V13.5208Z" fill="#FCFCFC"/>
<path d="M1.22925 43.0208H67.6042V55.3124H4.91675C3.93876 55.3124 3.00083 54.9239 2.30929 54.2324C1.61775 53.5408 1.22925 52.6029 1.22925 51.6249V43.0208Z" fill="#E27600"/>
<path d="M72.5208 12.2917H68.8333V11.0625C68.8333 10.0845 68.4448 9.14658 67.7533 8.45504C67.0618 7.7635 66.1238 7.375 65.1458 7.375H34.0602C33.0886 7.37416 32.1565 6.98986 31.4667 6.30563L26.8819 1.78229C25.7341 0.643902 24.1841 0.0035631 22.5675 0H3.6875C2.70951 0 1.77158 0.388503 1.08004 1.08004C0.388503 1.77158 0 2.70951 0 3.6875V51.625C0 52.929 0.518005 54.1796 1.44006 55.1016C2.36211 56.0237 3.61269 56.5417 4.91667 56.5417H71.2917C72.5956 56.5417 73.8462 56.0237 74.7683 55.1016C75.6903 54.1796 76.2083 52.929 76.2083 51.625V15.9792C76.2083 15.0012 75.8198 14.0633 75.1283 13.3717C74.4368 12.6802 73.4988 12.2917 72.5208 12.2917ZM4.91667 54.0833C4.26468 54.0833 3.63939 53.8243 3.17836 53.3633C2.71734 52.9023 2.45833 52.277 2.45833 51.625V44.25H28.2708C28.5968 44.25 28.9095 44.1205 29.14 43.89C29.3705 43.6595 29.5 43.3468 29.5 43.0208C29.5 42.6948 29.3705 42.3822 29.14 42.1517C28.9095 41.9212 28.5968 41.7917 28.2708 41.7917H2.45833V3.6875C2.45833 3.36151 2.58783 3.04886 2.81835 2.81835C3.04886 2.58783 3.36151 2.45833 3.6875 2.45833H22.5675C23.5391 2.45918 24.4712 2.84348 25.161 3.52771L29.7335 8.06333C30.8863 9.20021 32.4411 9.83628 34.0602 9.83333H65.1458C65.4718 9.83333 65.7845 9.96283 66.015 10.1933C66.2455 10.4239 66.375 10.7365 66.375 11.0625V41.7917H45.4792C45.1532 41.7917 44.8405 41.9212 44.61 42.1517C44.3795 42.3822 44.25 42.6948 44.25 43.0208C44.25 43.3468 44.3795 43.6595 44.61 43.89C44.8405 44.1205 45.1532 44.25 45.4792 44.25H66.375V51.625C66.4063 52.4994 66.6739 53.3489 67.1494 54.0833H4.91667ZM73.75 51.625C73.75 52.277 73.491 52.9023 73.03 53.3633C72.5689 53.8243 71.9437 54.0833 71.2917 54.0833C70.6634 54.0144 70.0773 53.7332 69.6304 53.2863C69.1834 52.8393 68.9023 52.2533 68.8333 51.625V14.75H72.5208C72.8468 14.75 73.1595 14.8795 73.39 15.11C73.6205 15.3405 73.75 15.6532 73.75 15.9792V51.625Z" fill="#27450E"/>
<path d="M4.91667 46.7083C4.59067 46.7083 4.27803 46.8378 4.04751 47.0683C3.817 47.2988 3.6875 47.6114 3.6875 47.9374V50.3958C3.6875 50.7217 3.817 51.0344 4.04751 51.2649C4.27803 51.4954 4.59067 51.6249 4.91667 51.6249C5.24266 51.6249 5.55531 51.4954 5.78582 51.2649C6.01633 51.0344 6.14583 50.7217 6.14583 50.3958V47.9374C6.14583 47.6114 6.01633 47.2988 5.78582 47.0683C5.55531 46.8378 5.24266 46.7083 4.91667 46.7083ZM11.0625 46.7083C10.7365 46.7083 10.4239 46.8378 10.1933 47.0683C9.96284 47.2988 9.83333 47.6114 9.83333 47.9374V50.3958C9.83333 50.7217 9.96284 51.0344 10.1933 51.2649C10.4239 51.4954 10.7365 51.6249 11.0625 51.6249C11.3885 51.6249 11.7011 51.4954 11.9317 51.2649C12.1622 51.0344 12.2917 50.7217 12.2917 50.3958V47.9374C12.2917 47.6114 12.1622 47.2988 11.9317 47.0683C11.7011 46.8378 11.3885 46.7083 11.0625 46.7083ZM17.2083 46.7083C16.8823 46.7083 16.5697 46.8378 16.3392 47.0683C16.1087 47.2988 15.9792 47.6114 15.9792 47.9374V50.3958C15.9792 50.7217 16.1087 51.0344 16.3392 51.2649C16.5697 51.4954 16.8823 51.6249 17.2083 51.6249C17.5343 51.6249 17.847 51.4954 18.0775 51.2649C18.308 51.0344 18.4375 50.7217 18.4375 50.3958V47.9374C18.4375 47.6114 18.308 47.2988 18.0775 47.0683C17.847 46.8378 17.5343 46.7083 17.2083 46.7083ZM23.3542 46.7083C23.0282 46.7083 22.7155 46.8378 22.485 47.0683C22.2545 47.2988 22.125 47.6114 22.125 47.9374V50.3958C22.125 50.7217 22.2545 51.0344 22.485 51.2649C22.7155 51.4954 23.0282 51.6249 23.3542 51.6249C23.6802 51.6249 23.9928 51.4954 24.2233 51.2649C24.4538 51.0344 24.5833 50.7217 24.5833 50.3958V47.9374C24.5833 47.6114 24.4538 47.2988 24.2233 47.0683C23.9928 46.8378 23.6802 46.7083 23.3542 46.7083ZM29.5 46.7083C29.174 46.7083 28.8614 46.8378 28.6308 47.0683C28.4003 47.2988 28.2708 47.6114 28.2708 47.9374V50.3958C28.2708 50.7217 28.4003 51.0344 28.6308 51.2649C28.8614 51.4954 29.174 51.6249 29.5 51.6249C29.826 51.6249 30.1386 51.4954 30.3692 51.2649C30.5997 51.0344 30.7292 50.7217 30.7292 50.3958V47.9374C30.7292 47.6114 30.5997 47.2988 30.3692 47.0683C30.1386 46.8378 29.826 46.7083 29.5 46.7083ZM44.25 46.7083C43.924 46.7083 43.6114 46.8378 43.3808 47.0683C43.1503 47.2988 43.0208 47.6114 43.0208 47.9374V50.3958C43.0208 50.7217 43.1503 51.0344 43.3808 51.2649C43.6114 51.4954 43.924 51.6249 44.25 51.6249C44.576 51.6249 44.8886 51.4954 45.1192 51.2649C45.3497 51.0344 45.4792 50.7217 45.4792 50.3958V47.9374C45.4792 47.6114 45.3497 47.2988 45.1192 47.0683C44.8886 46.8378 44.576 46.7083 44.25 46.7083ZM50.3958 46.7083C50.0698 46.7083 49.7572 46.8378 49.5267 47.0683C49.2962 47.2988 49.1667 47.6114 49.1667 47.9374V50.3958C49.1667 50.7217 49.2962 51.0344 49.5267 51.2649C49.7572 51.4954 50.0698 51.6249 50.3958 51.6249C50.7218 51.6249 51.0345 51.4954 51.265 51.2649C51.4955 51.0344 51.625 50.7217 51.625 50.3958V47.9374C51.625 47.6114 51.4955 47.2988 51.265 47.0683C51.0345 46.8378 50.7218 46.7083 50.3958 46.7083ZM56.5417 46.7083C56.2157 46.7083 55.903 46.8378 55.6725 47.0683C55.442 47.2988 55.3125 47.6114 55.3125 47.9374V50.3958C55.3125 50.7217 55.442 51.0344 55.6725 51.2649C55.903 51.4954 56.2157 51.6249 56.5417 51.6249C56.8677 51.6249 57.1803 51.4954 57.4108 51.2649C57.6413 51.0344 57.7708 50.7217 57.7708 50.3958V47.9374C57.7708 47.6114 57.6413 47.2988 57.4108 47.0683C57.1803 46.8378 56.8677 46.7083 56.5417 46.7083ZM62.6875 46.7083C62.3615 46.7083 62.0489 46.8378 61.8184 47.0683C61.5878 47.2988 61.4583 47.6114 61.4583 47.9374V50.3958C61.4583 50.7217 61.5878 51.0344 61.8184 51.2649C62.0489 51.4954 62.3615 51.6249 62.6875 51.6249C63.0135 51.6249 63.3261 51.4954 63.5567 51.2649C63.7872 51.0344 63.9167 50.7217 63.9167 50.3958V47.9374C63.9167 47.6114 63.7872 47.2988 63.5567 47.0683C63.3261 46.8378 63.0135 46.7083 62.6875 46.7083Z" fill="#27450E"/>
<path d="M33.1876 65.1458V31.9583L28.2709 36.875L23.3542 31.9583L36.8751 18.4375L50.3959 31.9583L45.4792 36.875L40.5626 31.9583V65.1458H33.1876Z" fill="white"/>
<path d="M36.0023 17.5647L22.4815 31.0855C22.2525 31.3158 22.124 31.6274 22.124 31.9521C22.124 32.2768 22.2525 32.5884 22.4815 32.8187L27.3981 37.7353C27.6284 37.9643 27.94 38.0928 28.2647 38.0928C28.5894 38.0928 28.9009 37.9643 29.1312 37.7353L31.9583 34.9205V65.1458C31.9583 65.4717 32.0878 65.7844 32.3183 66.0149C32.5489 66.2454 32.8615 66.3749 33.1875 66.3749H40.5625C40.8885 66.3749 41.2011 66.2454 41.4317 66.0149C41.6622 65.7844 41.7917 65.4717 41.7917 65.1458V34.9205L44.6065 37.7353C44.8368 37.9643 45.1483 38.0928 45.473 38.0928C45.7977 38.0928 46.1093 37.9643 46.3396 37.7353L51.2562 32.8187C51.4852 32.5884 51.6137 32.2768 51.6137 31.9521C51.6137 31.6274 51.4852 31.3158 51.2562 31.0855L37.7354 17.5647C37.5051 17.3358 37.1936 17.2073 36.8689 17.2073C36.5441 17.2073 36.2326 17.3358 36.0023 17.5647ZM48.6627 31.9583L45.4792 35.1418L41.4352 31.0978C41.264 30.9252 41.0455 30.8073 40.8073 30.7589C40.569 30.7104 40.3218 30.7338 40.0968 30.8259C39.8718 30.918 39.6792 31.0747 39.5433 31.2763C39.4074 31.4778 39.3344 31.7152 39.3333 31.9583V63.9166H34.4167V31.9583C34.4181 31.7141 34.3468 31.4751 34.2118 31.2716C34.0768 31.0682 33.8843 30.9095 33.6589 30.8159C33.4334 30.7223 33.1851 30.6979 32.9457 30.746C32.7064 30.794 32.4867 30.9122 32.3148 31.0855L28.2708 35.1418L25.0873 31.9583L36.875 20.1705L48.6627 31.9583Z" fill="#27450E"/>
</svg>
