<svg width="26" height="26" viewBox="0 0 26 26" fill="none" xmlns="http://www.w3.org/2000/svg">
<path d="M13 0C5.83203 0 0 5.83203 0 13C0 20.168 5.83203 26 13 26C20.168 26 26 20.168 26 13C26 5.83203 20.168 0 13 0ZM13 2C19.0859 2 24 6.91406 24 13C24 19.0859 19.0859 24 13 24C6.91406 24 2 19.0859 2 13C2 6.91406 6.91406 2 13 2ZM13 5C10.25 5 8 7.25 8 10C8 11.5156 8.70703 12.8633 9.78125 13.7812C7.53125 14.9492 6 17.3008 6 20H8C8 17.2266 10.2266 15 13 15C15.7734 15 18 17.2266 18 20H20C20 17.3008 18.4688 14.9492 16.2188 13.7812C17.293 12.8633 18 11.5156 18 10C18 7.25 15.75 5 13 5ZM13 7C14.668 7 16 8.33203 16 10C16 11.668 14.668 13 13 13C11.332 13 10 11.668 10 10C10 8.33203 11.332 7 13 7Z" fill="#27450E"/>
</svg>
