<svg width="30" height="30" viewBox="0 0 30 30" fill="none" xmlns="http://www.w3.org/2000/svg">
<path fill-rule="evenodd" clip-rule="evenodd" d="M25.4917 4.357C22.685 1.54874 18.9518 0.00148703 14.9792 0C6.78861 0 0.122242 6.66339 0.118525 14.8547C0.117781 17.3581 0.74977 19.8251 1.94832 22.0088L0.026329 29.0269C-0.0435615 29.2834 0.027816 29.557 0.215182 29.7458C0.35645 29.8886 0.547534 29.9667 0.743822 29.9667C0.807021 29.9667 0.870219 29.9585 0.932675 29.9421L8.13511 28.0536C10.2378 29.1451 12.5947 29.7213 14.9732 29.722C23.1697 29.722 29.8361 23.0579 29.8398 14.8666C29.8413 10.897 28.297 7.16452 25.4917 4.357Z" fill="url(#paint0_linear_409_649)"/>
<path fill-rule="evenodd" clip-rule="evenodd" d="M23.2794 6.56695C21.0637 4.34978 18.1186 3.12818 14.984 3.12744C8.51242 3.12744 3.24907 8.38856 3.24609 14.8557C3.24535 17.0721 3.86544 19.2298 5.0402 21.0982L5.31976 21.5421L4.13385 25.8701L8.57487 24.7058L9.00388 24.96C10.8047 26.0292 12.8702 26.5943 14.9758 26.595H14.9803C21.4474 26.595 26.7107 21.3332 26.7129 14.8653C26.7137 11.7314 25.4951 8.78411 23.2794 6.56695Z" fill="url(#paint1_linear_409_649)"/>
<path opacity="0.05" fill-rule="evenodd" clip-rule="evenodd" d="M18.835 22.2157C18.0952 22.2157 17.0848 22.0268 15.0527 21.226C12.7776 20.3279 10.5426 18.3784 8.75961 15.7359L8.70236 15.6519C8.22503 15.0147 7.11719 13.3418 7.11719 11.5626C7.11719 9.64429 8.07484 8.62344 8.48377 8.187L8.54697 8.11934C9.1113 7.50148 9.776 7.4353 10.0355 7.4353C10.3098 7.43828 10.5426 7.4353 10.7441 7.44422C11.2303 7.46356 11.7842 7.60408 12.1835 8.49184C12.3694 8.90672 12.6861 9.68518 12.9337 10.2956C13.0921 10.6874 13.2207 11.0057 13.2601 11.0904C13.4787 11.5261 13.4891 11.9581 13.2869 12.3648L13.2386 12.4637C13.1434 12.6585 13.0445 12.86 12.8341 13.1054L12.6594 13.315C12.5389 13.4615 12.4177 13.6072 12.3099 13.7202C12.5991 14.1968 13.2066 15.1002 14.043 15.8467C15.0795 16.7694 15.9673 17.1553 16.4439 17.3627C16.5383 17.4036 16.6171 17.4386 16.6795 17.4683C16.9807 17.1189 17.4766 16.5233 17.6476 16.2683C18.2201 15.4088 19.0432 15.7069 19.3131 15.8058C19.7361 15.959 21.7838 16.9776 21.8039 16.9873L21.9935 17.0802C22.305 17.2311 22.5979 17.3731 22.7831 17.681C23.0768 18.1724 22.9139 19.2223 22.6396 19.9896C22.2425 21.1071 20.5369 22.0751 19.6254 22.1569L19.4573 22.1748C19.2603 22.1978 19.0603 22.2157 18.835 22.2157ZM10.153 8.92233C10.0489 8.92233 9.86671 8.87921 9.64291 9.12308L9.56782 9.20413C9.231 9.56325 8.60348 10.2324 8.60348 11.5626C8.60348 12.9329 9.58938 14.3559 9.89125 14.7597C9.91132 14.7864 9.94404 14.8348 9.99162 14.9039C11.6088 17.3003 13.5999 19.0542 15.5985 19.8424C18.1145 20.8349 18.7606 20.7599 19.2833 20.6981L19.49 20.6758C19.9428 20.6349 21.0678 19.9688 21.238 19.4907C21.3934 19.0557 21.4433 18.6825 21.4514 18.4691C21.4187 18.4535 21.383 18.4371 21.3451 18.4193L21.1347 18.3159C20.6611 18.078 19.0685 17.3003 18.8067 17.2044C18.4781 17.6564 17.8684 18.368 17.7071 18.5531C17.4045 18.9003 16.8691 19.229 16.0498 18.8163C16.0007 18.7918 15.9338 18.7635 15.8505 18.7271C15.3368 18.5033 14.2668 18.0386 13.0527 16.9575C11.9604 15.9828 11.2132 14.7983 10.9426 14.3336C10.6117 13.7678 10.7032 13.2221 11.2147 12.7128C11.3039 12.6236 11.4058 12.4964 11.5099 12.3708L11.7047 12.1373C11.7924 12.0354 11.8244 11.9693 11.9032 11.8094L11.9292 11.7566C11.8608 11.6049 11.7225 11.2666 11.556 10.8547C11.3158 10.2622 11.0087 9.50525 10.8281 9.10227C10.7797 8.9952 10.7433 8.94241 10.7255 8.9201C10.7292 8.93126 10.7039 8.932 10.6823 8.93051C10.5173 8.92233 10.3366 8.92233 10.153 8.92233Z" fill="black"/>
<path opacity="0.07" fill-rule="evenodd" clip-rule="evenodd" d="M18.8314 21.8474C18.2023 21.8474 17.2291 21.6839 15.1889 20.8794C12.9829 20.0095 10.8088 18.1083 9.06751 15.5276L9.00282 15.4324C8.54482 14.8212 7.48828 13.2301 7.48828 11.5616C7.48828 9.79058 8.3753 8.84483 8.75449 8.44036L8.82066 8.36898C9.28536 7.86116 9.82515 7.80688 10.0356 7.80688C10.3159 7.80912 10.5315 7.80688 10.7278 7.81581C11.0936 7.83068 11.5137 7.908 11.8445 8.64408C12.0297 9.05599 12.3434 9.82925 12.5888 10.4352C12.7561 10.8479 12.8899 11.1802 12.9249 11.2509C12.9858 11.3735 13.1762 11.752 12.9539 12.1988L12.9041 12.3C12.8111 12.4895 12.7308 12.6539 12.5509 12.8635L12.371 13.0784C12.2423 13.2346 12.1137 13.3899 12.0022 13.5015C11.8416 13.6613 11.8416 13.6613 11.9055 13.7706C12.1494 14.1892 12.8215 15.2562 13.7948 16.1239C14.8751 17.0867 15.7993 17.4875 16.2952 17.7031C16.4023 17.7492 16.4878 17.7871 16.551 17.8191C16.7688 17.9276 16.7912 17.9053 16.8685 17.8176C17.0826 17.5737 17.7369 16.8034 17.9562 16.474C18.3681 15.8569 18.8998 16.0502 19.186 16.1536C19.5622 16.2904 21.4456 17.222 21.6366 17.3179L21.8314 17.4131C22.114 17.5499 22.337 17.6577 22.4649 17.8696C22.6538 18.1864 22.5757 19.0615 22.2902 19.863C21.9274 20.8824 20.3229 21.7196 19.5927 21.785L19.415 21.8043C19.2418 21.8251 19.0596 21.8474 18.8314 21.8474ZM10.1411 8.5504C10.1218 8.5504 10.1025 8.5504 10.0832 8.5504C9.94709 8.5504 9.64076 8.57345 9.36789 8.8716L9.29577 8.94892C8.95003 9.31771 8.23105 10.085 8.23105 11.5616C8.23105 13.0063 9.1835 14.4346 9.59317 14.9818C9.61176 15.0063 9.64076 15.0487 9.68314 15.1112C11.3419 17.5692 13.394 19.3715 15.4617 20.1879C18.0678 21.2155 18.7667 21.1329 19.3258 21.0675L19.5243 21.0459C20.0396 20.9998 21.3467 20.2927 21.5883 19.6147C21.8359 18.9217 21.8463 18.3432 21.8084 18.2191C21.8136 18.2235 21.6359 18.1462 21.5073 18.0838L21.3021 17.9826C20.8389 17.7499 19.2158 16.9558 18.9317 16.8525C18.6641 16.7558 18.6633 16.7536 18.5748 16.8867C18.3154 17.2741 17.5934 18.1187 17.4283 18.3068C16.951 18.8533 16.3993 18.5737 16.2172 18.4823C16.1636 18.4555 16.09 18.4243 15.9993 18.3849C15.5026 18.1685 14.4699 17.7194 13.3003 16.6778C12.2475 15.7395 11.5256 14.5937 11.2639 14.1446C10.9099 13.5394 11.3077 13.1431 11.4772 12.9743C11.5739 12.8777 11.6854 12.7416 11.7977 12.6048L11.9873 12.3773C12.1055 12.239 12.1553 12.1379 12.2371 11.9706L12.2892 11.8643C12.3256 11.7914 12.3323 11.7237 12.2594 11.5795C12.2208 11.5022 12.0773 11.1497 11.9003 10.7118C11.6579 10.1148 11.3494 9.35191 11.1665 8.9467C10.9962 8.56825 10.8966 8.56378 10.6966 8.55635C10.5248 8.5504 10.3345 8.5504 10.1411 8.5504Z" fill="black"/>
<path fill-rule="evenodd" clip-rule="evenodd" d="M11.5048 8.79659C11.2409 8.20921 10.9628 8.19731 10.7108 8.1869C10.5048 8.17798 10.2699 8.17873 10.0349 8.17873C9.79995 8.17873 9.41778 8.2672 9.09436 8.62037C8.77093 8.97354 7.85938 9.82636 7.85938 11.5617C7.85938 13.2971 9.12335 14.9745 9.29957 15.2094C9.47578 15.4444 11.7398 19.1196 15.325 20.5337C18.3043 21.7085 18.911 21.475 19.5579 21.4163C20.2047 21.3575 21.6449 20.5635 21.9386 19.7397C22.2323 18.9158 22.2323 18.2102 22.1445 18.063C22.0561 17.9158 21.8211 17.8281 21.4687 17.6511C21.1163 17.4742 19.3816 16.6213 19.0582 16.5039C18.7348 16.3864 18.4998 16.3277 18.2641 16.6808C18.0292 17.0333 17.3533 17.8281 17.1474 18.063C16.9414 18.2987 16.7355 18.3285 16.383 18.1515C16.0306 17.9745 14.8945 17.6028 13.5465 16.4013C12.4982 15.4667 11.7903 14.312 11.5844 13.9588C11.3784 13.6064 11.5621 13.4153 11.739 13.2391C11.8974 13.0807 12.0915 12.8272 12.2684 12.6212C12.4446 12.4153 12.5034 12.2681 12.6209 12.0331C12.7383 11.7974 12.6796 11.5915 12.5911 11.4153C12.5041 11.2383 11.8186 9.49401 11.5048 8.79659Z" fill="white"/>
<defs>
<linearGradient id="paint0_linear_409_649" x1="2.3461" y1="6.54368" x2="23.4463" y2="27.6439" gradientUnits="userSpaceOnUse">
<stop stop-color="#DFE9F2"/>
<stop offset="0.391" stop-color="#D6E0E9"/>
<stop offset="1" stop-color="#BFC8D1"/>
</linearGradient>
<linearGradient id="paint1_linear_409_649" x1="8.79421" y1="5.0011" x2="18.8123" y2="26.2203" gradientUnits="userSpaceOnUse">
<stop stop-color="#2ECC75"/>
<stop offset="1" stop-color="#0B964A"/>
</linearGradient>
</defs>
</svg>
