<svg width="74" height="74" viewBox="0 0 74 74" fill="none" xmlns="http://www.w3.org/2000/svg">
<path fill-rule="evenodd" clip-rule="evenodd" d="M63.0646 10.7333C56.1209 3.81525 46.8852 0.00366323 37.0573 0C16.7945 0 0.302418 16.4149 0.293221 36.5938C0.291382 42.7609 1.85487 48.8382 4.81999 54.2176L0.0651359 71.5063C-0.107768 72.1382 0.0688146 72.8122 0.532344 73.2774C0.88183 73.6291 1.35456 73.8214 1.84016 73.8214C1.99651 73.8214 2.15286 73.8013 2.30737 73.761L20.1256 69.1087C25.3275 71.7975 31.1584 73.217 37.0426 73.2188C57.3202 73.2188 73.8122 56.8021 73.8214 36.6231C73.8251 26.8442 70.0047 17.6494 63.0646 10.7333Z" fill="url(#paint0_linear_4_3083)"/>
<path fill-rule="evenodd" clip-rule="evenodd" d="M57.5852 16.1767C52.1038 10.7148 44.818 7.70544 37.063 7.70361C21.0529 7.70361 8.03177 20.6641 8.02442 36.5955C8.02258 42.0556 9.55664 47.3709 12.4629 51.9738L13.1545 53.0672L10.2207 63.7291L21.2074 60.8608L22.2687 61.4872C26.7238 64.121 31.8336 65.5131 37.0428 65.5149H37.0538C53.0529 65.5149 66.0741 52.5525 66.0796 36.6193C66.0814 28.8991 63.0666 21.6385 57.5852 16.1767Z" fill="url(#paint1_linear_4_3083)"/>
<path opacity="0.05" fill-rule="evenodd" clip-rule="evenodd" d="M46.5895 54.7273C44.7593 54.7273 42.2596 54.2621 37.2325 52.2895C31.6039 50.0769 26.0747 45.2744 21.6638 38.7648L21.5222 38.5578C20.3413 36.9881 17.6006 32.867 17.6006 28.4839C17.6006 23.7584 19.9697 21.2436 20.9814 20.1684L21.1378 20.0017C22.5339 18.4797 24.1783 18.3167 24.8202 18.3167C25.499 18.324 26.0747 18.3167 26.5732 18.3386C27.7761 18.3863 29.1465 18.7324 30.1343 20.9194C30.5941 21.9414 31.3777 23.8591 31.9902 25.3629C32.382 26.3281 32.7002 27.1121 32.7977 27.3209C33.3385 28.3942 33.3642 29.4584 32.8639 30.4603L32.7444 30.7039C32.5089 31.1838 32.2643 31.6801 31.7437 32.2845L31.3115 32.8011C31.0135 33.1619 30.7137 33.5209 30.447 33.7993C31.1625 34.9734 32.6653 37.1988 34.7346 39.0377C37.2987 41.3108 39.495 42.2614 40.674 42.7724C40.9076 42.8731 41.1026 42.9592 41.2571 43.0325C42.0021 42.1716 43.229 40.7045 43.652 40.0762C45.0684 37.9589 47.1046 38.6934 47.7723 38.937C48.8189 39.3143 53.8846 41.8236 53.9343 41.8474L54.4033 42.0764C55.174 42.4482 55.8988 42.798 56.3568 43.5563C57.0833 44.767 56.6805 47.3533 56.0018 49.2435C55.0195 51.9964 50.7999 54.3812 48.5448 54.5826L48.1291 54.6266C47.6417 54.6834 47.1469 54.7273 46.5895 54.7273ZM25.1109 21.9799C24.8533 21.9799 24.4027 21.8736 23.849 22.4744L23.6633 22.6741C22.83 23.5587 21.2775 25.2072 21.2775 28.4839C21.2775 31.8596 23.7166 35.3653 24.4634 36.3599C24.5131 36.4258 24.594 36.5449 24.7117 36.7152C28.7124 42.6185 33.6383 46.9393 38.5826 48.8808C44.8072 51.326 46.4056 51.141 47.6987 50.989L48.2101 50.9341C49.3302 50.8333 52.1133 49.1922 52.5345 48.0145C52.9189 46.943 53.0422 46.0235 53.0624 45.4978C52.9815 45.4594 52.8932 45.4191 52.7994 45.3751L52.2788 45.1205C51.1071 44.5344 47.1671 42.6185 46.5196 42.3822C45.7066 43.4959 44.1983 45.2487 43.7992 45.7048C43.0505 46.5602 41.7262 47.3697 39.6991 46.3532C39.5777 46.2927 39.4122 46.2231 39.2062 46.1334C37.9352 45.5821 35.2883 44.4373 32.2845 41.7741C29.5824 39.3729 27.7338 36.4551 27.0643 35.3104C26.2458 33.9165 26.472 32.5721 27.7375 31.3175C27.9582 31.0977 28.2102 30.7845 28.4678 30.4749L28.9497 29.8998C29.1667 29.6489 29.2458 29.4858 29.4408 29.092L29.5052 28.962C29.336 28.5884 28.9938 27.755 28.5818 26.7403C27.9877 25.2805 27.228 23.4159 26.781 22.4231C26.6615 22.1594 26.5713 22.0293 26.5272 21.9744C26.5364 22.0019 26.4739 22.0037 26.4205 22C26.0122 21.9799 25.5652 21.9799 25.1109 21.9799Z" fill="black"/>
<path opacity="0.07" fill-rule="evenodd" clip-rule="evenodd" d="M46.5873 53.8197C45.0312 53.8197 42.6234 53.4167 37.5761 51.4349C32.1186 49.2919 26.7402 44.6085 22.4323 38.2509L22.2722 38.0165C21.1392 36.5109 18.5254 32.5912 18.5254 28.4811C18.5254 24.1182 20.7198 21.7884 21.6579 20.792L21.8216 20.6161C22.9712 19.3652 24.3066 19.2314 24.8272 19.2314C25.5206 19.2369 26.0541 19.2314 26.5397 19.2534C27.4446 19.2901 28.4839 19.4805 29.3024 21.2938C29.7605 22.3086 30.5367 24.2134 31.1437 25.7062C31.5575 26.7228 31.8886 27.5415 31.9751 27.7155C32.1259 28.0177 32.5968 28.95 32.0468 30.0508L31.9236 30.2999C31.6937 30.767 31.495 31.1717 31.0499 31.6883L30.6047 32.2176C30.2865 32.6022 29.9683 32.985 29.6924 33.2598C29.2951 33.6536 29.2951 33.6536 29.4533 33.9228C30.0566 34.954 31.7194 37.5824 34.1272 39.7199C36.7998 42.0918 39.0862 43.0791 40.3131 43.6102C40.578 43.7238 40.7895 43.8172 40.9458 43.896C41.4848 44.1634 41.54 44.1084 41.7313 43.8923C42.261 43.2915 43.8797 41.394 44.4223 40.5826C45.4413 39.0623 46.7565 39.5386 47.4647 39.7932C48.3954 40.1302 53.0546 42.4252 53.5273 42.6615L54.0093 42.8959C54.7082 43.2329 55.2601 43.4985 55.5764 44.0205C56.0437 44.8008 55.8505 46.9566 55.1442 48.9311C54.2466 51.4422 50.2771 53.5046 48.4708 53.6658L48.0312 53.7134C47.6026 53.7647 47.152 53.8197 46.5873 53.8197ZM25.0884 21.0631C25.0405 21.0631 24.9927 21.0631 24.9449 21.0631C24.6083 21.0631 23.8505 21.1198 23.1754 21.8543L22.997 22.0448C22.1417 22.9533 20.363 24.8435 20.363 28.4811C20.363 32.0399 22.7192 35.5585 23.7327 36.9065C23.7787 36.967 23.8505 37.0714 23.9553 37.2252C28.059 43.2806 33.1358 47.7204 38.2511 49.7315C44.6982 52.2628 46.4273 52.0595 47.8105 51.8983L48.3016 51.8452C49.5763 51.7316 52.81 49.9898 53.4078 48.3193C54.0203 46.6123 54.0461 45.1873 53.9523 44.8814C53.9651 44.8924 53.5255 44.7019 53.2073 44.548L52.6996 44.2989C51.5537 43.7256 47.5383 41.7695 46.8356 41.5149C46.1734 41.2768 46.1716 41.2713 45.9527 41.5991C45.3107 42.5534 43.5247 44.6341 43.1163 45.0975C41.9354 46.4438 40.5706 45.7551 40.12 45.5298C39.9875 45.4638 39.8054 45.3869 39.581 45.2898C38.3523 44.7568 35.7974 43.6505 32.904 41.0844C30.2994 38.7729 28.5133 35.9504 27.8659 34.8441C26.9903 33.3532 27.9744 32.377 28.3938 31.9612C28.6329 31.7231 28.9088 31.3879 29.1866 31.0509L29.6556 30.4904C29.9481 30.1497 30.0713 29.9006 30.2736 29.4885L30.4024 29.2266C30.4925 29.0471 30.5091 28.8804 30.3288 28.5251C30.2332 28.3346 29.8782 27.4664 29.4404 26.3876C28.8407 24.9168 28.0774 23.0375 27.6249 22.0393C27.2037 21.107 26.9572 21.096 26.4624 21.0777C26.0375 21.0631 25.5666 21.0631 25.0884 21.0631Z" fill="black"/>
<path fill-rule="evenodd" clip-rule="evenodd" d="M28.4639 21.6703C27.8109 20.2233 27.123 20.194 26.4994 20.1684C25.9899 20.1464 25.4087 20.1482 24.8274 20.1482C24.2462 20.1482 23.3007 20.3662 22.5006 21.2362C21.7004 22.1062 19.4453 24.2071 19.4453 28.4821C19.4453 32.7571 22.5723 36.8892 23.0082 37.468C23.4442 38.0468 29.0451 47.1005 37.9147 50.5842C45.2852 53.4781 46.7862 52.903 48.3864 52.7583C49.9867 52.6136 53.5497 50.6574 54.2762 48.628C55.0028 46.5986 55.0028 44.8604 54.7857 44.4977C54.5668 44.1351 53.9856 43.9189 53.1137 43.483C52.2418 43.0471 47.9505 40.9462 47.1504 40.6568C46.3502 40.3674 45.769 40.2227 45.1859 41.0928C44.6046 41.9609 42.9326 43.9189 42.4231 44.4977C41.9136 45.0783 41.4041 45.1516 40.5322 44.7157C39.6603 44.2798 36.8497 43.364 33.5149 40.4041C30.9213 38.1017 29.1702 35.2572 28.6607 34.3872C28.1512 33.519 28.6055 33.0483 29.0433 32.6142C29.4351 32.2241 29.9152 31.5995 30.353 31.0921C30.7889 30.5848 30.9342 30.2221 31.2248 29.6433C31.5155 29.0627 31.3702 28.5553 31.1513 28.1213C30.9361 27.6853 29.2401 23.3884 28.4639 21.6703Z" fill="white"/>
<defs>
<linearGradient id="paint0_linear_4_3083" x1="5.80407" y1="16.12" x2="57.783" y2="68.3199" gradientUnits="userSpaceOnUse">
<stop stop-color="#DFE9F2"/>
<stop offset="0.391" stop-color="#D6E0E9"/>
<stop offset="1" stop-color="#BFC8D1"/>
</linearGradient>
<linearGradient id="paint1_linear_4_3083" x1="21.75" y1="12.3193" x2="46.3626" y2="64.6724" gradientUnits="userSpaceOnUse">
<stop stop-color="#2ECC75"/>
<stop offset="1" stop-color="#0B964A"/>
</linearGradient>
</defs>
</svg>
