<svg width="26" height="17" viewBox="0 0 26 17" fill="none" xmlns="http://www.w3.org/2000/svg">
<path d="M1.18125 0C0.512182 0 0 0.520312 0 1.2V12.4C0 13.0797 0.512182 13.6 1.18125 13.6H1.575V14C1.575 14.6797 2.08718 15.2 2.75625 15.2H3.15V15.6C3.15 16.2797 3.66218 16.8 4.33125 16.8H24.0187C24.6878 16.8 25.2 16.2797 25.2 15.6V4.4C25.2 3.72031 24.6878 3.2 24.0187 3.2H23.625V2.8C23.625 2.12031 23.1128 1.6 22.4437 1.6H22.05V1.2C22.05 0.520312 21.5378 0 20.8687 0H1.18125ZM1.18125 0.8H20.8687C21.1056 0.8 21.2625 0.959375 21.2625 1.2V12.4C21.2625 12.6406 21.1056 12.8 20.8687 12.8H1.18125C0.944385 12.8 0.7875 12.6406 0.7875 12.4V1.2C0.7875 0.959375 0.944385 0.8 1.18125 0.8ZM5.90625 1.6C5.66938 1.6 5.5125 1.75938 5.5125 2V2.8C5.5125 3.04063 5.66938 3.2 5.90625 3.2C6.14312 3.2 6.3 3.04063 6.3 2.8V2C6.3 1.75938 6.14312 1.6 5.90625 1.6ZM7.875 1.6C7.63813 1.6 7.48125 1.75938 7.48125 2V2.8C7.48125 3.04063 7.63813 3.2 7.875 3.2C8.11187 3.2 8.26875 3.04063 8.26875 2.8V2C8.26875 1.75938 8.11187 1.6 7.875 1.6ZM9.84375 1.6C9.60688 1.6 9.45 1.75938 9.45 2V2.83906C8.26875 3.55938 7.48125 5.04063 7.48125 6.8C7.48125 8.55937 8.30874 10.0406 9.45 10.7609V11.6C9.45 11.8406 9.60688 12 9.84375 12C10.0806 12 10.2375 11.8406 10.2375 11.6V11.0797C10.4744 11.1594 10.7497 11.2 11.025 11.2C11.3003 11.2 11.5756 11.1594 11.8125 11.0797V11.6C11.8125 11.8406 11.9694 12 12.2062 12C12.4431 12 12.6 11.8406 12.6 11.6V10.7609C13.7812 10.0406 14.5687 8.55937 14.5687 6.8C14.5687 5.04063 13.7413 3.55938 12.6 2.83906V2C12.6 1.75938 12.4431 1.6 12.2062 1.6C11.9694 1.6 11.8125 1.75938 11.8125 2V2.52031C11.5756 2.44063 11.3003 2.4 11.025 2.4C10.7497 2.4 10.4744 2.44063 10.2375 2.52031V2C10.2375 1.75938 10.0806 1.6 9.84375 1.6ZM14.175 1.6C13.9381 1.6 13.7812 1.75938 13.7812 2V2.8C13.7812 3.04063 13.9381 3.2 14.175 3.2C14.4119 3.2 14.5687 3.04063 14.5687 2.8V2C14.5687 1.75938 14.4119 1.6 14.175 1.6ZM16.1437 1.6C15.9069 1.6 15.75 1.75938 15.75 2V2.8C15.75 3.04063 15.9069 3.2 16.1437 3.2C16.3806 3.2 16.5375 3.04063 16.5375 2.8V2C16.5375 1.75938 16.3806 1.6 16.1437 1.6ZM1.96875 2C1.73188 2 1.575 2.15937 1.575 2.4C1.575 2.64062 1.73188 2.8 1.96875 2.8H3.9375C4.17437 2.8 4.33125 2.64062 4.33125 2.4C4.33125 2.15937 4.17437 2 3.9375 2H1.96875ZM18.1125 2C17.8756 2 17.7188 2.15937 17.7188 2.4C17.7188 2.64062 17.8756 2.8 18.1125 2.8H20.0812C20.3181 2.8 20.475 2.64062 20.475 2.4C20.475 2.15937 20.3181 2 20.0812 2H18.1125ZM22.05 2.4H22.4437C22.6806 2.4 22.8375 2.55938 22.8375 2.8V14C22.8375 14.2406 22.6806 14.4 22.4437 14.4H2.75625C2.51938 14.4 2.3625 14.2406 2.3625 14V13.6H20.8687C21.5378 13.6 22.05 13.0797 22.05 12.4V2.4ZM11.025 3.12031C12.56 3.12031 13.8197 4.75938 13.8197 6.8C13.8197 8.84062 12.56 10.4797 11.025 10.4797C9.48999 10.4797 8.2303 8.84062 8.2303 6.8C8.2303 4.75938 9.48999 3.12031 11.025 3.12031ZM23.625 4H24.0187C24.2556 4 24.4125 4.15937 24.4125 4.4V15.6C24.4125 15.8406 24.2556 16 24.0187 16H4.33125C4.09438 16 3.9375 15.8406 3.9375 15.6V15.2H22.4437C23.1128 15.2 23.625 14.6797 23.625 14V4ZM3.9375 5.6C3.07156 5.6 2.3625 6.32031 2.3625 7.2C2.3625 8.07969 3.07156 8.8 3.9375 8.8C4.80344 8.8 5.5125 8.07969 5.5125 7.2C5.5125 6.32031 4.80344 5.6 3.9375 5.6ZM18.1125 5.6C17.2466 5.6 16.5375 6.32031 16.5375 7.2C16.5375 8.07969 17.2466 8.8 18.1125 8.8C18.9784 8.8 19.6875 8.07969 19.6875 7.2C19.6875 6.32031 18.9784 5.6 18.1125 5.6ZM3.9375 6.32031C4.40969 6.32031 4.80344 6.72031 4.80344 7.2C4.80344 7.67969 4.40969 8.07969 3.9375 8.07969C3.46531 8.07969 3.07156 7.67969 3.07156 7.2C3.07156 6.72031 3.46531 6.32031 3.9375 6.32031ZM18.1125 6.32031C18.5847 6.32031 18.9784 6.72031 18.9784 7.2C18.9784 7.67969 18.5847 8.07969 18.1125 8.07969C17.6403 8.07969 17.2466 7.67969 17.2466 7.2C17.2466 6.72031 17.6403 6.32031 18.1125 6.32031ZM5.90625 10.4C5.66938 10.4 5.5125 10.5594 5.5125 10.8V11.6C5.5125 11.8406 5.66938 12 5.90625 12C6.14312 12 6.3 11.8406 6.3 11.6V10.8C6.3 10.5594 6.14312 10.4 5.90625 10.4ZM7.875 10.4C7.63813 10.4 7.48125 10.5594 7.48125 10.8V11.6C7.48125 11.8406 7.63813 12 7.875 12C8.11187 12 8.26875 11.8406 8.26875 11.6V10.8C8.26875 10.5594 8.11187 10.4 7.875 10.4ZM14.175 10.4C13.9381 10.4 13.7812 10.5594 13.7812 10.8V11.6C13.7812 11.8406 13.9381 12 14.175 12C14.4119 12 14.5687 11.8406 14.5687 11.6V10.8C14.5687 10.5594 14.4119 10.4 14.175 10.4ZM16.1437 10.4C15.9069 10.4 15.75 10.5594 15.75 10.8V11.6C15.75 11.8406 15.9069 12 16.1437 12C16.3806 12 16.5375 11.8406 16.5375 11.6V10.8C16.5375 10.5594 16.3806 10.4 16.1437 10.4ZM1.96875 10.8C1.73188 10.8 1.575 10.9594 1.575 11.2C1.575 11.4406 1.73188 11.6 1.96875 11.6H3.9375C4.17437 11.6 4.33125 11.4406 4.33125 11.2C4.33125 10.9594 4.17437 10.8 3.9375 10.8H1.96875ZM18.1125 10.8C17.8756 10.8 17.7188 10.9594 17.7188 11.2C17.7188 11.4406 17.8756 11.6 18.1125 11.6H20.0812C20.3181 11.6 20.475 11.4406 20.475 11.2C20.475 10.9594 20.3181 10.8 20.0812 10.8H18.1125Z" fill="white"/>
</svg>
