<svg width="51" height="51" viewBox="0 0 51 51" fill="none" xmlns="http://www.w3.org/2000/svg">
<path d="M50.4308 13.2327C50.2813 13.053 50.2065 12.8135 50.2065 12.589C47.9937 8.68206 47.8592 3.90693 45.6464 0C39.4117 3.50276 35.1506 9.74486 31.0838 15.4331C28.6318 18.861 26.4339 22.3788 24.4155 26.0761C22.3821 29.7884 20.4086 33.5457 18.136 37.1233C17.807 37.6322 16.9548 37.8717 16.596 37.2281C15.5195 35.2372 14.3084 33.3062 12.9179 31.5099C11.7218 29.9681 10.3613 28.5909 9.13526 27.079C7.23644 24.7289 5.20306 21.9147 2.57163 20.2831C1.61474 23.4266 0.493394 26.5402 0 29.8034C3.67803 32.1835 6.48887 35.6264 9.19506 39.0244C12.3647 43.0061 15.6391 46.8083 19.1975 50.4458C21.5 47.437 23.0848 43.9342 24.9986 40.671C27.2563 36.8239 29.8877 33.2762 32.6836 29.8034C35.4795 26.3306 38.709 23.2619 41.9534 20.2382C43.4784 18.8161 45.2726 17.6485 46.9023 16.3462C48.1283 15.3583 49.3244 14.3404 50.4458 13.2476C50.4458 13.2626 50.4458 13.2476 50.4308 13.2327Z" fill="#3AB37C"/>
</svg>
