<?xml version="1.0" encoding="utf-8"?>
<!-- Generator: Adobe Illustrator 15.0.2, SVG Export Plug-In . SVG Version: 6.00 Build 0)  -->
<!DOCTYPE svg PUBLIC "-//W3C//DTD SVG 1.1//EN" "http://www.w3.org/Graphics/SVG/1.1/DTD/svg11.dtd">
<svg version="1.1" id="Layer_1" xmlns="http://www.w3.org/2000/svg" xmlns:xlink="http://www.w3.org/1999/xlink" x="0px" y="0px"
	 width="1746.457px" height="305.94px" viewBox="0 0 1746.457 305.94" enable-background="new 0 0 1746.457 305.94"
	 xml:space="preserve">
<g>
	<path fill-rule="evenodd" clip-rule="evenodd" fill="#FDB726" d="M305.369,62.863l-34.545,37.743
		c-3.835,4.687-2.349,10.658,4.474,17.916l23.674,27.5c6.823,8.107,8.096,14.717,3.837,19.828l-32.622,35.832
		c-1.713,1.699-2.349,4.472-1.926,8.309c0.426,3.411,1.926,6.823,4.485,10.234l26.863,29.434c2.136,2.125,2.986,4.046,2.56,5.745
		c-0.423,0.866-1.287,1.287-2.56,1.287l-43.504,1.278c-2.985,0-6.184-1.699-9.595-5.11l-27.498-31.346
		c-6.823-8.536-8.11-14.933-3.837-19.191l33.258-37.109c1.712-1.699,2.349-4.259,1.926-7.67c-0.438-3.835-2.136-7.247-5.124-10.232
		l-24.949-28.147c-6.821-8.533-8.096-14.93-3.835-19.191l34.545-37.107c2.562-3.412,5.761-5.11,9.596-5.11l40.292-0.648
		c1.713,0,2.986,0.861,3.849,2.56C306.008,60.951,306.219,62.013,305.369,62.863z M48.21,58.391l40.306-0.639
		c1.71,0,2.985,0.849,3.835,2.548c0.85,1.289,0.85,2.349,0,3.198l-33.895,37.746c-1.713,1.71-2.139,4.485-1.289,8.32
		c0.852,3.412,2.562,6.61,5.124,9.596l23.663,28.147c6.823,7.672,8.32,14.07,4.485,19.189l-33.271,36.457
		c-4.259,5.124-3.196,11.082,3.198,17.918l26.225,30.06c4.275,4.685,4.275,7.036,0,7.036l-42.854,1.287
		c-3.409,0-6.607-1.925-9.593-5.763l-28.15-31.346c-6.397-7.244-7.67-13.642-3.835-19.191l33.908-36.457
		c3.835-4.698,2.761-10.669-3.199-17.914L7.919,119.797c-6.823-7.67-8.109-14.067-3.837-19.191l33.897-37.107
		C41.388,60.09,44.799,58.391,48.21,58.391z M197.897,5.928c1.289,0,2.562,0.65,3.837,1.925c0.86,1.71,0.86,2.986,0,3.835
		l-33.897,37.743c-3.409,4.261-2.136,10.232,3.837,17.916l23.662,27.5c6.834,8.107,8.32,14.717,4.485,19.828l-33.271,35.832
		c-1.699,2.125-2.123,4.895-1.273,8.307c0.424,3.837,1.923,7.249,4.472,10.234l21.114,24.949c6.823,8.109,8.322,14.506,4.474,19.191
		l-33.258,36.47c-1.713,2.125-2.349,4.897-1.926,8.309c0.863,3.833,2.563,7.031,5.124,9.596l26.861,30.069
		c3.412,4.688,3.198,7.035-0.637,7.035l-42.854,1.273c-3.837,0-7.036-1.699-9.596-5.11l-28.15-31.98
		c-2.986-2.986-4.685-6.397-5.122-10.248c-0.85-3.412-0.213-6.184,1.923-8.309l33.261-37.104c3.846-4.685,2.772-10.656-3.199-17.904
		l-22.389-24.949c-6.397-8.109-7.673-14.506-3.835-19.191l33.909-37.107c1.699-1.699,2.122-4.259,1.273-7.67
		c-0.424-3.835-1.912-7.247-4.472-10.232L117.3,67.984c-6.82-8.533-8.107-14.93-3.835-19.189l33.895-37.106
		c2.562-3.412,5.974-5.11,10.246-5.11L197.897,5.928z"/>
	<path fill-rule="evenodd" clip-rule="evenodd" fill="#00529B" d="M945.569,70.365l-8.309-61.406C945.356,2.988,956.239,0,969.884,0
		c14.493,0,25.797,1.713,33.893,5.124l5.763,43.504c0.847,5.108,3.199,7.67,7.031,7.67h65.257c21.751,0,34.758,13.007,39.017,39.019
		l1.925,85.08c0.426,24.302-6.397,43.067-20.478,56.287c-12.794,12.368-30.485,18.552-53.088,18.552h-72.288
		c-0.421-6.823,0.639-14.919,3.198-24.301c2.564-10.244,5.763-17.279,9.596-21.112h37.109c17.9,0,26.861-10.447,26.861-31.346
		l-0.639-64.606c-1.287-8.533-5.971-12.794-14.081-12.794h-66.516c-6.832,0-12.794-2.985-17.918-8.957
		C949.407,86.145,946.421,78.898,945.569,70.365z M1125.316,56.298h60.771c38.817,0,60.98,21.964,66.53,65.891l14.081,104.898
		c2.546,18.766-4.06,28.148-19.839,28.148h-99.154c0-20.89,3.851-35.818,11.521-44.774h33.258c1.713,0,2.56-0.213,2.56-0.639
		c0.426-0.852,0.426-2.56,0-5.124l-10.23-79.958c-1.273-7.672-4.263-13.644-8.957-17.904c-4.689-4.272-10.234-6.397-16.631-6.397
		h-13.433c-11.942-12.794-18.765-26.662-20.478-41.579V56.298z M1262.852,56.298h69.09l12.794,100.427
		c-8.961,3.407-20.469,5.119-34.549,5.119c-14.067,0-25.583-1.712-34.545-5.119L1262.852,56.298z M334.674,56.298h69.092
		l12.794,100.427c-9.815,3.407-21.541,5.119-35.184,5.119c-13.65,0-24.95-1.712-33.909-5.119L334.674,56.298z M598.869,73.563
		c10.658,10.669,18.758,26.662,24.306,47.978l15.349,66.53c2.985,23.024-1.493,40.303-13.431,51.811
		c-10.665,10.243-25.801,15.354-45.416,15.354h-53.736c0-7.67,1.069-15.993,3.198-24.949c2.562-10.234,5.761-16.84,9.596-19.825
		l10.232-0.639c7.253,0,12.794-2.985,16.636-8.957c2.986-5.55,4.048-12.16,3.199-19.83l-13.438-56.296
		c-4.261-16.206-14.067-24.301-29.423-24.301h-12.794l-2.56,154.797h-69.085l5.117-154.797c-7.247,0-14.069-4.485-20.466-13.431
		c-5.548-8.533-9.17-18.765-10.875-30.71h134.333C570.082,56.298,586.5,62.059,598.869,73.563z M636.605,56.935h71.008
		l26.861,198.301h-71.001L636.605,56.935z M722.969,56.298h75.473l69.092,81.884h3.198l-10.882-81.884h69.092l8.318,61.406
		c4.263,33.698-7.897,54.8-36.466,63.332l62.692,74.2h-78.685l-67.168-80.597l-3.199,0.639l10.882,79.958h-69.09l-8.32-61.406
		c-1.701-14.507-0.426-27.301,3.846-38.382c5.536-13.641,15.78-22.813,30.698-27.509L722.969,56.298z M1569.895,255.235
		l-12.794-97.224c4.698-6.399,13.233-12.158,25.588-17.282c12.368-4.685,23.89-7.033,34.545-7.033h3.198l15.993,121.539H1569.895z
		 M1343.458,56.298h122.816c14.502,0,27.509,6.184,39.016,18.552c11.095,12.371,17.705,27.287,19.83,44.779l5.758,42.215
		c1.287,11.521,0.639,21.33-1.912,29.425c-3.411,9.804-9.595,15.993-18.552,18.552h40.942c3.412,20.039-0.865,35.184-12.794,45.414
		h-172.715c1.699-22.177,7.67-37.304,17.905-45.414h48.612c23.889,0,34.332-11.734,31.346-35.184l-5.11-38.38
		c-3.407-23.875-17.066-35.82-40.942-35.82h-50.537C1354.331,86.795,1346.443,72.078,1343.458,56.298z M1662.013,56.298
		c38.804,0,61.193,23.239,67.164,69.729l17.279,129.209h-69.09l-16.627-124.737c-2.985-19.615-11.946-29.423-26.874-29.423
		l-74.2-0.636c-12.368-13.218-20.464-27.935-24.302-44.141H1662.013z"/>
</g>
</svg>
