<?xml version="1.0" encoding="UTF-8" standalone="no"?>
<!-- Created with Inkscape (http://www.inkscape.org/) -->

<svg
   xmlns:dc="http://purl.org/dc/elements/1.1/"
   xmlns:cc="http://creativecommons.org/ns#"
   xmlns:rdf="http://www.w3.org/1999/02/22-rdf-syntax-ns#"
   xmlns:svg="http://www.w3.org/2000/svg"
   xmlns="http://www.w3.org/2000/svg"
   xmlns:sodipodi="http://sodipodi.sourceforge.net/DTD/sodipodi-0.dtd"
   xmlns:inkscape="http://www.inkscape.org/namespaces/inkscape"
   version="1.1"
   id="svg2"
   xml:space="preserve"
   width="200"
   height="85"
   viewBox="0 0 200 84.999999"
   sodipodi:docname="מרכנתיל.svg"
   inkscape:version="0.92.3 (2405546, 2018-03-11)"><metadata
     id="metadata8"><rdf:RDF><cc:Work
         rdf:about=""><dc:format>image/svg+xml</dc:format><dc:type
           rdf:resource="http://purl.org/dc/dcmitype/StillImage" /><dc:title></dc:title></cc:Work></rdf:RDF></metadata><defs
     id="defs6"><clipPath
       clipPathUnits="userSpaceOnUse"
       id="clipPath9554"><path
         d="M 249.802,61.356 H 363.225 V 88.419 H 249.802 Z"
         id="path9552"
         inkscape:connector-curvature="0" /></clipPath></defs><sodipodi:namedview
     pagecolor="#ffffff"
     bordercolor="#666666"
     borderopacity="1"
     objecttolerance="10"
     gridtolerance="10"
     guidetolerance="10"
     inkscape:pageopacity="0"
     inkscape:pageshadow="2"
     inkscape:window-width="1366"
     inkscape:window-height="705"
     id="namedview4"
     showgrid="false"
     inkscape:zoom="1.6819299"
     inkscape:cx="169.59887"
     inkscape:cy="63.75826"
     inkscape:window-x="-8"
     inkscape:window-y="-8"
     inkscape:window-maximized="1"
     inkscape:current-layer="g10" /><g
     id="g10"
     inkscape:groupmode="layer"
     inkscape:label="social_report_2018c-he"
     transform="matrix(1.3333333,0,0,-1.3333333,0,84.99998)"><g
       id="g9548"
       transform="matrix(2.6721494,0,0,2.6721494,-667.14959,-170.03957)"><g
         id="g9550"
         clip-path="url(#clipPath9554)"><g
           id="g9556"
           transform="translate(257.312,79.5162)"><path
             d="M 0,0 V 2.632 C 0,4.156 -0.552,4.65 -1.905,4.65 h -1.764 c -0.196,0 -0.338,0.099 -0.338,0.376 V 7.975 H -7.373 V 3.661 c 0,-1.306 0.463,-1.801 1.478,-1.801 h 2.048 c 0.356,0 0.534,-0.178 0.534,-0.574 v -1.503 c 0,-1.801 -0.926,-2.573 -2.208,-2.573 H -6.056 V -5.462 H -5.04 C -2.6,-5.462 0,-4.374 0,0"
             style="fill:#2e6633;fill-opacity:1;fill-rule:nonzero;stroke:none"
             id="path9558"
             inkscape:connector-curvature="0" /></g><g
           id="g9560"
           transform="translate(262.53,77.7154)"><path
             d="m 0,0 v 4.492 c 0,1.167 -0.534,1.959 -1.799,1.959 h -2.707 v -2.79 h 0.712 c 0.321,0 0.464,-0.138 0.464,-0.515 L -3.33,0 Z"
             style="fill:#2e6633;fill-opacity:1;fill-rule:nonzero;stroke:none"
             id="path9562"
             inkscape:connector-curvature="0" /></g><g
           id="g9564"
           transform="translate(273.132,74.0544)"><path
             d="m 0,0 v 7.124 c 0,2.117 -1.122,2.988 -2.849,2.988 h -7.018 v -2.79 h 1.461 C -8.727,7.005 -8.744,6.352 -8.744,5.877 V 3.482 c 0,-0.355 -0.125,-0.692 -0.589,-0.692 h -0.801 V 0 h 2.262 c 1.621,0 2.44,1.089 2.44,2.751 v 4.314 c 0,0.118 0.053,0.257 0.179,0.257 h 1.157 c 0.481,0 0.783,-0.198 0.783,-0.93 V 0 Z"
             style="fill:#2e6633;fill-opacity:1;fill-rule:nonzero;stroke:none"
             id="path9566"
             inkscape:connector-curvature="0" /></g><g
           id="g9568"
           transform="translate(279.097,75.8603)"><path
             d="M 0,0 V 5.303 C 0,7.896 -1.317,8.312 -2.814,8.312 H -4.951 V 5.521 h 0.909 c 0.48,0 0.694,-0.277 0.694,-0.831 V 1.385 c 0,-0.296 0.089,-0.396 -0.143,-0.396 h -1.762 v -2.79 h 4.167 C -0.231,-1.801 0,-1.108 0,0"
             style="fill:#2e6633;fill-opacity:1;fill-rule:nonzero;stroke:none"
             id="path9570"
             inkscape:connector-curvature="0" /></g><g
           id="g9572"
           transform="translate(286.933,79.0661)"><path
             d="M 0,0 C 0,3.246 -0.463,5.106 -3.936,5.106 H -7.124 V 2.315 h 2.547 c 0.73,0 1.175,-0.455 1.175,-2.335 0,-1.721 -0.427,-2.196 -1.175,-2.196 h -2.547 v -2.79 h 3.188 C -0.784,-5.006 0,-3.206 0,0"
             style="fill:#2e6633;fill-opacity:1;fill-rule:nonzero;stroke:none"
             id="path9574"
             inkscape:connector-curvature="0" /></g><g
           id="g9576"
           transform="translate(294.774,74.0595)"><path
             d="m 0,0 v 7.084 c 0,2.276 -0.909,3.028 -2.743,3.028 h -4.381 v -2.79 h 2.992 c 0.624,0 0.819,-0.317 0.819,-0.91 V 0 Z"
             style="fill:#2e6633;fill-opacity:1;fill-rule:nonzero;stroke:none"
             id="path9578"
             inkscape:connector-curvature="0" /></g><g
           id="g9580"
           transform="translate(305.652,76.5133)"><path
             d="m 0,0 v 4.73 c 0,2.493 -1.371,3.126 -2.814,3.126 -1.71,0 -2.582,-0.277 -3.33,-2.928 -0.215,0.593 -0.713,1.979 -0.873,2.73 h -2.885 c -0.143,0 -0.268,-0.059 -0.268,-0.276 v -0.02 c 0,-1.108 0.802,-3.305 1.407,-4.611 -0.302,-1.208 -0.676,-3.78 -0.89,-5.205 h 3.33 c 0.196,2.196 0.623,5.007 0.98,6.392 0.249,0.95 0.712,1.029 1.033,1.029 0.552,0 0.891,-0.317 0.891,-0.93 V 0.97 c 0,-0.476 -0.089,-0.634 -0.464,-0.634 h -0.89 v -2.79 h 3.117 C -0.285,-2.454 0,-1.563 0,0"
             style="fill:#2e6633;fill-opacity:1;fill-rule:nonzero;stroke:none"
             id="path9582"
             inkscape:connector-curvature="0" /></g><g
           id="g9584"
           transform="translate(278.084,67.333)"><path
             d="m 0,0 c 7.637,0 20.694,0.629 26.788,5.453 0.054,0.044 0.2,0.131 0.309,0.074 0.065,-0.035 0.086,-0.08 0.119,-0.145 C 27.356,5.09 27.407,4.777 27.429,4.376 27.45,3.981 27.458,3.741 27.329,3.368 27.281,3.228 27.244,3.154 27.163,3.031 27.099,2.935 27.02,2.841 26.976,2.8 26.817,2.655 26.373,2.322 26.333,2.293 19.633,-2.692 8.195,-3.699 0.008,-3.699 h -0.222 c -8.187,0 -20.244,1.511 -26.944,6.495 -0.039,0.03 -0.484,0.362 -0.643,0.509 -0.044,0.04 -0.123,0.134 -0.187,0.23 -0.079,0.123 -0.117,0.198 -0.165,0.337 -0.129,0.373 -0.122,0.614 -0.101,1.009 0.022,0.399 0.074,0.713 0.214,1.005 0.033,0.065 0.054,0.11 0.119,0.144 0.109,0.059 0.254,-0.029 0.308,-0.073 C -21.519,1.133 -7.844,0 -0.206,0 Z"
             style="fill:#2e6633;fill-opacity:1;fill-rule:nonzero;stroke:none"
             id="path9586"
             inkscape:connector-curvature="0" /></g><g
           id="g9588"
           transform="translate(329.384,86.5105)" /></g></g></g></svg>