<svg preserveAspectRatio="none" width="100%" height="100%" overflow="visible" style="display: block;" viewBox="0 0 96.0797 96.08" fill="none" xmlns="http://www.w3.org/2000/svg">
<g id="Group 1215873194">
<path id="Vector" d="M60.3047 66.0556L66.1845 60.1752L70.4299 64.421L64.5501 70.3013L60.3047 66.0556Z" fill="var(--fill-0, #DADCEC)"/>
<path id="Vector_2" d="M67.9434 67.4183L67.4234 67.9384C65.0787 70.2832 65.0787 74.085 67.4234 76.4298L82.8235 91.8312C85.1681 94.176 88.9696 94.176 91.3142 91.8312L91.8343 91.3111C94.1789 88.9662 94.1789 85.1645 91.8343 82.8196L76.4342 67.4183C74.0895 65.0734 70.2881 65.0734 67.9434 67.4183Z" fill="var(--fill-0, #E27600)"/>
<path id="Vector_3" d="M69.9281 69.937C68.6855 68.6942 66.6707 68.6942 65.428 69.937C64.1854 71.1797 64.1854 73.1947 65.428 74.4374L84.8188 93.8298C86.0615 95.0725 88.0762 95.0725 89.3189 93.8298C90.5616 92.587 90.5616 90.5721 89.3189 89.3293L69.9281 69.937Z" fill="var(--fill-0, #BE782B)"/>
<path id="Vector_4" d="M37.531 1.50777C32.8004 1.50777 28.1161 2.43962 23.7455 4.2501C19.375 6.06058 15.4038 8.71425 12.0588 12.0596C8.71371 15.4049 6.06025 19.3764 4.24992 23.7473C2.43958 28.1182 1.50781 32.8029 1.50781 37.5339C1.50781 42.2649 2.43958 46.9496 4.24992 51.3205C6.06025 55.6914 8.71371 59.6629 12.0588 63.0083C15.4038 66.3536 19.375 69.0073 23.7455 70.8177C28.1161 72.6282 32.8004 73.5601 37.531 73.5601C42.2617 73.5601 46.946 72.6282 51.3165 70.8177C55.6871 69.0073 59.6582 66.3536 63.0033 63.0083C66.3484 59.6629 69.0018 55.6914 70.8122 51.3205C72.6225 46.9496 73.5543 42.2649 73.5543 37.5339C73.5543 32.8029 72.6225 28.1182 70.8122 23.7473C69.0018 19.3764 66.3484 15.4049 63.0033 12.0596C59.6582 8.71425 55.6871 6.06058 51.3165 4.2501C46.946 2.43962 42.2617 1.50777 37.531 1.50777Z" fill="var(--fill-0, white)"/>
<path id="Vector_5" d="M16.7271 58.3393L58.3339 16.7291C58.9545 16.1083 59.7037 15.631 60.5286 15.3311C61.3536 15.0311 62.2343 14.9157 63.1086 14.993C63.983 15.0703 64.8298 15.3384 65.5894 15.7784C66.3489 16.2184 67.0028 16.8196 67.5048 17.5397C72.1635 24.469 74.2707 32.8014 73.4662 41.1125C72.6617 49.4236 68.9955 57.1971 63.0943 63.1041C57.1932 69.011 49.4236 72.6845 41.1139 73.4966C32.8042 74.3086 24.4705 72.2088 17.5376 67.556C16.81 67.0544 16.2021 66.3984 15.7573 65.6348C15.3125 64.8711 15.0417 64.0187 14.9642 63.1383C14.8868 62.258 15.0047 61.3714 15.3094 60.5418C15.6141 59.7122 16.0982 58.9602 16.7271 58.3393Z" fill="var(--fill-0, white)"/>
<path id="Vector_6" d="M37.5313 10.5147C30.3659 10.5147 23.4939 13.3614 18.4271 18.4286C13.3604 23.4958 10.5139 30.3683 10.5139 37.5344C10.5139 44.7004 13.3604 51.5729 18.4271 56.6401C23.4939 61.7073 30.3659 64.554 37.5313 64.554C44.6968 64.554 51.5688 61.7073 56.6355 56.6401C61.7023 51.5729 64.5488 44.7004 64.5488 37.5344C64.5488 30.3683 61.7023 23.4958 56.6355 18.4286C51.5688 13.3614 44.6968 10.5147 37.5313 10.5147Z" fill="var(--fill-0, #BBDEF9)"/>
<path id="Vector_7" d="M37.5312 27.0268C34.7446 27.0268 32.0722 28.1338 30.1018 30.1044C28.1314 32.075 27.0244 34.7476 27.0244 37.5344C27.0244 40.3212 28.1314 42.9939 30.1018 44.9644C32.0722 46.935 34.7446 48.042 37.5312 48.042C40.3178 48.042 42.9902 46.935 44.9606 44.9644C46.931 42.9939 48.038 40.3212 48.038 37.5344C48.038 34.7476 46.931 32.075 44.9606 30.1044C42.9902 28.1338 40.3178 27.0268 37.5312 27.0268Z" fill="var(--fill-0, #D2EDFF)"/>
<path id="Vector_8" d="M31.5268 25.5251C29.9345 25.5251 28.4074 26.1577 27.2814 27.2838C26.1555 28.4098 25.5229 29.937 25.5229 31.5295C25.5229 33.1219 26.1555 34.6492 27.2814 35.7752C28.4074 36.9012 29.9345 37.5338 31.5268 37.5338C33.1191 37.5338 34.6463 36.9012 35.7722 35.7752C36.8981 34.6492 37.5307 33.1219 37.5307 31.5295C37.5307 29.937 36.8981 28.4098 35.7722 27.2838C34.6463 26.1577 33.1191 25.5251 31.5268 25.5251ZM44.285 42.0371C43.6879 42.0371 43.1153 42.2743 42.693 42.6966C42.2708 43.1189 42.0336 43.6916 42.0336 44.2887C42.0336 44.8859 42.2708 45.4586 42.693 45.8809C43.1153 46.3031 43.6879 46.5404 44.285 46.5404C44.8822 46.5404 45.4548 46.3031 45.8771 45.8809C46.2993 45.4586 46.5365 44.8859 46.5365 44.2887C46.5365 43.6916 46.2993 43.1189 45.8771 42.6966C45.4548 42.2743 44.8822 42.0371 44.285 42.0371Z" fill="var(--fill-0, #F3F3F3)"/>
<path id="Vector_9" d="M57.7042 17.374C53.7159 13.3853 48.6344 10.6689 43.1024 9.56846C37.5703 8.46797 31.8362 9.03277 26.6252 11.1914C21.4141 13.3501 16.9601 17.0057 13.8265 21.6959C10.6928 26.3861 9.02026 31.9003 9.02026 37.5411C9.02026 43.182 10.6928 48.6962 13.8265 53.3864C16.9601 58.0766 21.4141 61.7322 26.6252 63.8908C31.8362 66.0495 37.5703 66.6143 43.1024 65.5138C48.6344 64.4133 53.7159 61.697 57.7042 57.7083C60.374 55.0721 62.4938 51.9319 63.9406 48.47C65.3874 45.0081 66.1325 41.2933 66.1325 37.5411C66.1325 33.789 65.3874 30.0742 63.9406 26.6123C62.4938 23.1503 60.374 20.0102 57.7042 17.374ZM55.5428 55.5467C51.9778 59.1244 47.4314 61.5635 42.4793 62.5553C37.5272 63.5471 32.3921 63.047 27.7245 61.1181C23.0568 59.1893 19.0665 55.9185 16.2588 51.7201C13.4511 47.5217 11.9523 42.5845 11.9523 37.5336C11.9523 32.4828 13.4511 27.5455 16.2588 23.3471C19.0665 19.1487 23.0568 15.878 27.7245 13.9491C32.3921 12.0203 37.5272 11.5201 42.4793 12.5119C47.4314 13.5037 51.9778 15.9429 55.5428 19.5206C57.9227 21.8779 59.8117 24.6835 61.101 27.7753C62.3902 30.8671 63.054 34.1838 63.054 37.5336C63.054 40.8835 62.3902 44.2001 61.101 47.2919C59.8117 50.3837 57.9227 53.1893 55.5428 55.5467Z" fill="var(--fill-0, #27450E)"/>
<path id="Vector_10" d="M92.8866 81.7561L77.3666 66.2348C76.6565 65.5302 75.8126 64.9746 74.8847 64.6008C73.9567 64.2271 72.9634 64.0426 71.9631 64.0583C71.9631 63.8481 67.8055 59.6901 67.8055 59.6901C73.3885 52.0606 75.8864 42.6048 74.7996 33.2131C73.7128 23.8214 69.1215 15.186 61.9435 9.03351C54.7656 2.88098 45.5301 -0.335312 36.0834 0.0276964C26.6368 0.390705 17.6753 4.30626 10.9906 10.9915C4.30591 17.6767 0.390673 26.639 0.0276942 36.0864C-0.335285 45.5338 2.88074 54.77 9.03278 61.9486C15.1848 69.1271 23.8195 73.7188 33.2104 74.8057C42.6013 75.8926 52.0564 73.3945 59.6852 67.811C59.6852 67.811 63.8579 71.8939 64.053 71.969C64.2482 72.044 64.053 71.969 64.053 72.0741C64.0513 73.0604 64.2439 74.0373 64.6199 74.9491C64.9959 75.8609 65.548 76.6896 66.2445 77.3879L81.7494 92.8942C83.1568 94.3012 85.0654 95.0917 87.0554 95.0917C89.0454 95.0917 90.9539 94.3012 92.3613 92.8942L92.8716 92.3838C94.2786 90.9763 95.0689 89.0676 95.0689 87.0775C95.0689 85.0873 94.2786 83.1786 92.8716 81.7711L92.8866 81.7561ZM3.00869 37.534C3.00869 30.7056 5.03339 24.0305 8.82674 18.3529C12.6201 12.6753 18.0117 8.25012 24.3199 5.637C30.628 3.02388 37.5692 2.34017 44.2659 3.67233C50.9626 5.00449 57.1138 8.29268 61.9419 13.1211C66.7699 17.9495 70.0578 24.1013 71.3899 30.7985C72.7219 37.4957 72.0383 44.4375 69.4253 50.7462C66.8124 57.0548 62.3876 62.4469 56.7105 66.2405C51.0333 70.0342 44.3588 72.0591 37.5309 72.0591C28.3751 72.0591 19.5942 68.4216 13.12 61.9469C6.64585 55.4722 3.00869 46.6906 3.00869 37.534ZM66.2294 66.7452C65.6652 67.3268 65.1989 67.9959 64.8486 68.7266L62.0417 65.9196C63.4302 64.7197 64.7294 63.4203 65.9292 62.0318L68.7511 64.8538C68.0204 65.2042 67.3513 65.6706 66.7698 66.2348L66.2294 66.7452ZM90.7553 90.2523L90.2449 90.7626C89.4006 91.606 88.2561 92.0796 87.0629 92.0796C85.8696 92.0796 84.7251 91.606 83.8808 90.7626L68.3608 75.2414C67.5176 74.397 67.0439 73.2524 67.0439 72.0591C67.0439 70.8657 67.5176 69.7211 68.3608 68.8768L68.8711 68.3664C69.7154 67.5231 70.8599 67.0494 72.0532 67.0494C73.2465 67.0494 74.3909 67.5231 75.2352 68.3664L90.7553 83.8877C91.5985 84.732 92.0721 85.8766 92.0721 87.07C92.0721 88.2633 91.5985 89.4079 90.7553 90.2523Z" fill="var(--fill-0, #27450E)"/>
<path id="Vector_11" d="M51.3248 49.2122C51.0376 48.9662 50.6683 48.8377 50.2905 48.8523C49.9128 48.8669 49.5544 49.0235 49.2871 49.2909C49.0198 49.5582 48.8632 49.9166 48.8486 50.2944C48.834 50.6722 48.9625 51.0415 49.2084 51.3287L51.3248 53.4452C51.6119 53.6912 51.9813 53.8197 52.359 53.8051C52.7368 53.7905 53.0951 53.6339 53.3624 53.3665C53.6297 53.0992 53.7863 52.7408 53.8009 52.363C53.8155 51.9852 53.687 51.6159 53.4411 51.3287L51.3248 49.2122ZM23.737 49.2122L21.6206 51.3287C21.4635 51.4633 21.3359 51.6289 21.2458 51.8151C21.1557 52.0013 21.1051 52.2042 21.0971 52.4109C21.0891 52.6176 21.1239 52.8238 21.1994 53.0164C21.2748 53.209 21.3893 53.384 21.5356 53.5303C21.6819 53.6766 21.8568 53.791 22.0494 53.8665C22.242 53.942 22.4481 53.9768 22.6549 53.9688C22.8616 53.9608 23.0644 53.9102 23.2506 53.8201C23.4368 53.73 23.6024 53.6024 23.737 53.4452L25.8533 51.3287C26.0992 51.0415 26.2277 50.6722 26.2131 50.2944C26.1986 49.9166 26.042 49.5582 25.7746 49.2909C25.5073 49.0235 25.149 48.8669 24.7712 48.8523C24.3935 48.8377 24.0241 48.9662 23.737 49.2122ZM58.5444 36.0326H55.5425C55.1444 36.0326 54.7626 36.1907 54.4811 36.4723C54.1997 36.7538 54.0415 37.1356 54.0415 37.5337C54.0415 37.9318 54.1997 38.3136 54.4811 38.5951C54.7626 38.8766 55.1444 39.0348 55.5425 39.0348H58.5444C58.9425 39.0348 59.3243 38.8766 59.6058 38.5951C59.8873 38.3136 60.0454 37.9318 60.0454 37.5337C60.0454 37.1356 59.8873 36.7538 59.6058 36.4723C59.3243 36.1907 58.9425 36.0326 58.5444 36.0326ZM21.0202 37.5337C21.0202 37.1356 20.8621 36.7538 20.5806 36.4723C20.2991 36.1907 19.9173 36.0326 19.5193 36.0326H16.5173C16.1192 36.0326 15.7375 36.1907 15.456 36.4723C15.1745 36.7538 15.0164 37.1356 15.0164 37.5337C15.0164 37.9318 15.1745 38.3136 15.456 38.5951C15.7375 38.8766 16.1192 39.0348 16.5173 39.0348H19.5193C19.9173 39.0348 20.2991 38.8766 20.5806 38.5951C20.8621 38.3136 21.0202 37.9318 21.0202 37.5337ZM37.5309 54.0457C37.1328 54.0457 36.751 54.2038 36.4695 54.4853C36.188 54.7668 36.0299 55.1487 36.0299 55.5468V58.5489C36.0299 58.9471 36.188 59.3289 36.4695 59.6104C36.751 59.8919 37.1328 60.05 37.5309 60.05C37.929 60.05 38.3107 59.8919 38.5922 59.6104C38.8737 59.3289 39.0318 58.9471 39.0318 58.5489V55.5468C39.0318 55.1487 38.8737 54.7668 38.5922 54.4853C38.3107 54.2038 37.929 54.0457 37.5309 54.0457ZM57.4637 44.3636L54.7019 43.1928C54.5191 43.1068 54.3209 43.0586 54.119 43.0511C53.9172 43.0435 53.7159 43.0768 53.5272 43.1489C53.3385 43.2211 53.1663 43.3305 53.0209 43.4708C52.8755 43.6111 52.76 43.7792 52.6811 43.9652C52.6023 44.1512 52.5618 44.3512 52.5621 44.5533C52.5624 44.7553 52.6034 44.9552 52.6828 45.1409C52.7622 45.3267 52.8782 45.4945 53.024 45.6344C53.1698 45.7742 53.3423 45.8832 53.5312 45.9548L56.293 47.1257C56.4758 47.2116 56.674 47.2599 56.8759 47.2674C57.0778 47.2749 57.2791 47.2416 57.4677 47.1695C57.6564 47.0974 57.8286 46.9879 57.974 46.8476C58.1194 46.7074 58.235 46.5392 58.3138 46.3532C58.3926 46.1672 58.4331 45.9672 58.4328 45.7652C58.4325 45.5632 58.3915 45.3633 58.3121 45.1775C58.2327 44.9917 58.1167 44.8239 57.9709 44.6841C57.8251 44.5442 57.6526 44.4352 57.4637 44.3636ZM31.0767 52.7397C30.7104 52.5848 30.2977 52.5815 29.929 52.7307C29.5603 52.8799 29.2659 53.1692 29.1104 53.5353L27.9397 56.2973C27.8537 56.4801 27.8055 56.6784 27.798 56.8803C27.7904 57.0822 27.8237 57.2835 27.8958 57.4722C27.968 57.6609 28.0774 57.8331 28.2177 57.9785C28.3579 58.1239 28.5261 58.2395 28.7121 58.3183C28.8981 58.3971 29.098 58.4376 29.3 58.4373C29.502 58.4371 29.7019 58.396 29.8877 58.3166C30.0734 58.2372 30.2412 58.1212 30.3811 57.9754C30.5209 57.8296 30.6299 57.6571 30.7015 57.4682L31.8722 54.7062C32.0272 54.3399 32.0304 53.927 31.8813 53.5583C31.7321 53.1897 31.4427 52.8952 31.0767 52.7397ZM22.221 43.7182C22.0711 43.3504 21.7816 43.057 21.4159 42.9023C21.0502 42.7476 20.638 42.7441 20.2697 42.8926L17.493 44.0184C17.2988 44.0836 17.12 44.1879 16.9676 44.3248C16.8152 44.4617 16.6924 44.6283 16.6069 44.8145C16.5213 45.0006 16.4747 45.2023 16.4701 45.4071C16.4654 45.6119 16.5027 45.8155 16.5796 46.0054C16.6566 46.1953 16.7716 46.3674 16.9176 46.5111C17.0636 46.6548 17.2374 46.7672 17.4284 46.8412C17.6194 46.9152 17.8236 46.9493 18.0283 46.9414C18.233 46.9336 18.4339 46.8839 18.6187 46.7954L21.3955 45.6696C21.7632 45.5197 22.0566 45.2302 22.2113 44.8644C22.366 44.4987 22.3695 44.0865 22.221 43.7182ZM45.6661 53.6704C45.5011 53.3257 45.2108 53.0568 44.8545 52.9188C44.4981 52.7807 44.1025 52.7838 43.7483 52.9274C43.3942 53.071 43.1081 53.3443 42.9485 53.6915C42.7889 54.0388 42.7677 54.4339 42.8893 54.7962L44.0151 57.5732C44.1801 57.918 44.4703 58.1868 44.8267 58.3249C45.1831 58.4629 45.5787 58.4599 45.9328 58.3163C46.287 58.1727 46.5731 57.8994 46.7327 57.5521C46.8923 57.2048 46.9135 56.8097 46.7918 56.4474L45.6661 53.6704Z" fill="var(--fill-0, #27450E)"/>
</g>
</svg>
