<svg preserveAspectRatio="none" width="100%" height="100%" overflow="visible" style="display: block;" viewBox="0 0 291.001 369.14" fill="none" xmlns="http://www.w3.org/2000/svg">
<path id="Vector" d="M280.501 139.47C251.117 153.655 221.733 148.023 221.733 148.023C221.733 148.023 275.181 130.959 284.948 100.921C296.212 66.4184 291.016 37.8401 275.472 0C251.075 77.9332 143.721 86.9447 102.616 134.255C84.4954 155.115 76.9311 184.278 74.6868 195.417C70.2396 187.073 68.12 177.102 71.0709 165.629C45.8428 197.628 27.2646 227.166 14.796 302.137C84.2875 182.609 153.114 165.212 209.347 109.14C176.846 145.186 140.521 173.472 100.372 213.482C60.4726 253.992 16.2923 318.867 0 369.14C11.762 351.116 28.8024 331.884 52.0771 311.399C75.3933 290.914 121.61 324.749 189.813 273.559C155.982 286.158 130.089 281.319 111.968 277.981C189.813 273.559 270.984 221.576 280.377 139.47H280.501Z" fill="var(--fill-0, white)" fill-opacity="0.33"/>
</svg>
