<svg preserveAspectRatio="none" width="100%" height="100%" overflow="visible" style="display: block;" viewBox="0 0 167.751 49.7901" fill="none" xmlns="http://www.w3.org/2000/svg">
<g id="Group 1215873129">
<g id="Vector">
</g>
<path id="Vector_2" d="M67.4154 15.9375C70.5281 15.9375 72.0845 17.1826 72.0845 19.6728C72.0845 21.9912 70.6569 23.1611 67.8018 23.1826H63.3206L71.7303 35.1289H76.0773L70.0558 26.3382C71.8591 26.0377 73.2544 25.3508 74.2419 24.2774C75.3582 23.1397 75.9163 21.6048 75.9163 19.6728C75.9163 17.5046 75.2401 15.7765 73.8877 14.4885C72.5138 13.222 70.6569 12.5887 68.317 12.5887H53.3439V35.1289H57.0791V15.9375" fill="var(--fill-0, #27450E)"/>
<path id="Vector_3" d="M89.666 12.2023C86.0381 12.2023 83.0542 13.4366 80.7143 15.9053C78.6964 18.052 77.6875 20.6924 77.6875 23.8266C77.6875 26.9608 78.6964 29.5582 80.7143 31.7479C83.0327 34.1951 86.0166 35.4187 89.666 35.4187C93.3154 35.4187 96.31 34.2058 98.5855 31.7801C100.625 29.6334 101.644 26.9822 101.644 23.8266C101.644 20.671 100.636 18.0198 98.6177 15.8731C96.2992 13.4259 93.3154 12.2023 89.666 12.2023ZM95.623 29.8158C94.1418 31.3185 92.1561 32.0699 89.666 32.0699C87.1758 32.0699 85.2331 31.3078 83.7089 29.7836C82.1204 28.238 81.3261 26.2524 81.3261 23.8266C81.3261 21.594 82.0238 19.7157 83.4191 18.1916C85.0077 16.4527 87.09 15.5833 89.666 15.5833C92.242 15.5833 94.1204 16.3347 95.623 17.8373C97.1901 19.3186 97.9737 21.315 97.9737 23.8266C97.9737 26.3382 97.1901 28.3346 95.623 29.8158Z" fill="var(--fill-0, #27450E)"/>
<path id="Vector_4" d="M127.5 23.5048C129.454 22.41 130.43 20.8214 130.43 18.7391C130.43 16.8715 129.776 15.3796 128.466 14.2633C127.157 13.147 125.364 12.5889 123.089 12.5889H104.863V32.8536H108.599V25.3724H123.443C126.169 25.3724 127.532 26.4779 127.532 28.689C127.532 30.7498 125.976 31.7802 122.863 31.7802L104.863 31.748V35.1291H122.831C128.52 35.1291 131.364 33.1541 131.364 29.2042C131.364 26.2633 130.076 24.3635 127.5 23.5048ZM125.729 21.122C125.064 21.723 124.205 22.0236 123.153 22.0236H108.599V15.9377H123.282C124.334 15.9377 125.192 16.2168 125.858 16.7749C126.48 17.3331 126.792 18.0629 126.792 18.9645C126.792 19.8662 126.437 20.5424 125.729 21.122Z" fill="var(--fill-0, #27450E)"/>
<path id="Vector_5" d="M138.321 18.5723H134.586V35.1608H138.321V18.5723Z" fill="var(--fill-0, #27450E)"/>
<path id="Vector_6" d="M164.015 12.5889V31.0718L145.887 12.6211V17.5477L163.082 35.1291H167.751V12.5889H164.015Z" fill="var(--fill-0, #27450E)"/>
<path id="Vector_7" d="M145.888 12.5887H142.152V35.1289H145.888V12.5887Z" fill="var(--fill-0, #27450E)"/>
<path id="Vector_8" d="M138.321 12.5889H134.586V17.6819H138.321V12.5889Z" fill="var(--fill-0, #E27600)"/>
<g id="Group">
<path id="Vector_9" d="M58.9192 41.4556V43.4144C58.9192 43.672 58.9085 43.8921 58.887 44.0745C58.8656 44.257 58.8226 44.4556 58.7529 44.6595C58.6133 45.0781 58.3182 45.3733 57.862 45.5504L59.0266 47.477H58.1518L56.6813 44.9601L55.9729 43.8974C55.8495 43.9457 55.7583 43.9887 55.7046 44.037C55.4094 44.2785 55.2591 44.681 55.2591 45.2445V47.4824H54.4863V45.5235C54.4863 44.842 54.5883 44.3375 54.7922 44.0048C54.8727 43.8706 54.9854 43.7472 55.1303 43.6291C55.2752 43.511 55.447 43.4198 55.6509 43.35L54.4917 41.4556H55.3719L56.7565 43.7847L57.5346 44.9923C57.6956 44.901 57.8083 44.8044 57.8888 44.7024C57.9693 44.6005 58.0284 44.4663 58.082 44.2946C58.1357 44.1228 58.1572 43.9189 58.1572 43.6881V41.4502H58.93L58.9192 41.4556Z" fill="var(--fill-0, #27450E)"/>
<path id="Vector_10" d="M60.2443 47.5477C60.1047 47.5477 59.9491 47.5262 59.7774 47.4833V46.8447C60.0028 46.8769 60.1316 46.893 60.153 46.893C60.5985 46.893 60.8185 46.63 60.8185 46.0987V42.1166L60.1584 42.1756V41.5155C61.0278 41.4136 61.7845 41.3653 62.4392 41.3653C62.992 41.3653 63.4589 41.4565 63.84 41.6336C64.2371 41.8214 64.5108 42.122 64.6611 42.5406C64.7362 42.7606 64.7791 43.0075 64.7791 43.2812V47.4833H64.001V43.2704C64.001 42.4386 63.4428 42.0254 62.3319 42.0254C62.1924 42.0254 61.9509 42.0361 61.5967 42.0522V45.9914C61.5967 46.4851 61.484 46.8661 61.2586 47.1398C61.0332 47.4135 60.6951 47.5531 60.2389 47.5531L60.2443 47.5477Z" fill="var(--fill-0, #27450E)"/>
<path id="Vector_11" d="M67.1684 41.9927C67.0021 41.9927 66.8089 42.0195 66.5996 42.0785V41.4667C66.8464 41.4023 67.1255 41.3701 67.4368 41.3701C68.4082 41.3701 68.8965 41.9068 68.8965 42.9694V46.0123C68.8965 46.2646 68.8804 46.5114 68.8536 46.7583C68.8268 47.0052 68.7946 47.1877 68.7624 47.3057L68.7141 47.4828H65.9395V46.8817H68.0218C68.0862 46.6456 68.113 46.3612 68.113 46.0123V43.0338C68.113 42.6581 68.0325 42.3898 67.8715 42.2234C67.7212 42.0732 67.4904 41.9927 67.1684 41.9927Z" fill="var(--fill-0, #27450E)"/>
<path id="Vector_12" d="M70.5073 41.4297C70.7381 41.3867 70.9796 41.3653 71.2426 41.3653C71.5055 41.3653 71.747 41.3975 71.9671 41.4565C72.1871 41.5155 72.375 41.6014 72.5306 41.7087C72.6862 41.8161 72.8204 41.9395 72.9438 42.0844C73.0673 42.2293 73.1585 42.3796 73.2336 42.5352C73.3088 42.6908 73.3678 42.8518 73.4161 43.0289C73.502 43.3295 73.5395 43.6354 73.5395 43.9574V44.9824C73.5395 45.1703 73.5234 45.3688 73.4859 45.5889C73.4483 45.8089 73.4054 45.9914 73.3517 46.147C73.298 46.3026 73.2122 46.469 73.0941 46.6568C72.976 46.8447 72.8419 47.0003 72.6809 47.1291C72.5199 47.2579 72.3159 47.3652 72.0637 47.4511C71.8114 47.537 71.5377 47.5853 71.2533 47.5853C70.9689 47.5853 70.722 47.5692 70.502 47.5423C70.2819 47.5155 70.1317 47.4833 70.0404 47.4511L69.9116 47.4082V46.7051C70.3195 46.8339 70.7649 46.9037 71.2533 46.9037C71.4411 46.9037 71.6129 46.8769 71.7685 46.8232C71.9241 46.7695 72.053 46.6998 72.1496 46.6139C72.2462 46.528 72.3428 46.4261 72.4179 46.308C72.493 46.1899 72.5574 46.0665 72.595 45.9538C72.6326 45.8411 72.6701 45.7177 72.6916 45.5835C72.7345 45.3849 72.7506 45.181 72.7506 44.9663V44.0486C72.7506 43.6515 72.7077 43.3241 72.6218 43.0611C72.5843 42.9484 72.5252 42.825 72.4501 42.6908C72.375 42.5567 72.2837 42.4493 72.1817 42.3635C72.0798 42.2776 71.9456 42.2025 71.7846 42.1434C71.6236 42.0844 71.425 42.0522 71.1943 42.0522C70.9635 42.0522 70.7381 42.0737 70.5181 42.1112C70.298 42.1488 70.1424 42.1917 70.0458 42.2293L69.9063 42.2883V41.596C69.9385 41.5799 69.9921 41.5531 70.0565 41.5316C70.1209 41.5102 70.2712 41.4726 70.4966 41.4297H70.5073Z" fill="var(--fill-0, #27450E)"/>
<path id="Vector_13" d="M77.0687 46.8813C77.7019 46.8813 78.2332 46.6506 78.6518 46.1944C79.0704 45.7382 79.3281 45.0352 79.4139 44.0906L79.6501 41.4663H80.4229L80.1921 44.0906C80.1599 44.4931 80.0955 44.8527 79.9989 45.1694C79.9023 45.486 79.8003 45.7382 79.6984 45.9368C79.5964 46.1354 79.4569 46.3339 79.2905 46.5271C79.1241 46.7203 78.9309 46.8921 78.7162 47.0262C78.5016 47.1604 78.244 47.2731 77.9381 47.359C77.6322 47.4448 77.2941 47.4878 76.9291 47.4878H74.9327L74.4336 41.461H75.2171L75.4962 44.8259L76.1188 44.622C76.5964 44.4663 76.8755 44.0316 76.9452 43.3232L77.1277 41.461H77.9005L77.7449 43.0441C77.7234 43.2534 77.6966 43.4466 77.659 43.6184C77.6214 43.7901 77.5678 43.9672 77.4926 44.1497C77.4175 44.3321 77.3209 44.4932 77.2082 44.6327C77.0955 44.7722 76.9506 44.8957 76.7735 45.0084C76.5964 45.1211 76.3817 45.2123 76.1456 45.2713L75.5392 45.4323L75.6626 46.8867H77.0526L77.0687 46.8813Z" fill="var(--fill-0, #27450E)"/>
<path id="Vector_14" d="M84.0988 41.3653C84.6892 41.3653 85.1292 41.5424 85.4244 41.8966C85.7196 42.2508 85.8645 42.7391 85.8645 43.3617V47.4833H83.809V46.8822H85.0863V43.3992C85.0863 42.4815 84.6677 42.02 83.8251 42.02C83.6802 42.02 83.5353 42.0468 83.3958 42.0951C83.2563 42.1434 83.1328 42.2078 83.0362 42.2776C82.8323 42.4386 82.6874 42.5728 82.6015 42.6908L82.5478 42.766L82.1024 47.4833H81.3242L81.7643 42.8518V42.7499C81.7643 42.6962 81.7428 42.5513 81.6999 42.3205C81.657 42.0898 81.6033 41.9019 81.5389 41.7517L81.4155 41.4619H82.1936C82.2795 41.6014 82.3493 41.8161 82.4083 42.0951H82.4405C82.6015 41.9019 82.7947 41.7409 83.0255 41.6175C83.1436 41.5531 83.2992 41.4994 83.4924 41.4458C83.6856 41.3921 83.8895 41.3653 84.0988 41.3653Z" fill="var(--fill-0, #27450E)"/>
<path id="Vector_15" d="M89.8164 47.4833V41.4887C90.3638 41.4028 91.0508 41.3653 91.8826 41.3653C93.4443 41.3653 94.2225 41.9127 94.2225 43.0075V47.4833H89.8164ZM93.4443 46.8822V43.1202C93.4443 42.9216 93.4121 42.7552 93.3477 42.6157C93.2833 42.4762 93.2028 42.3688 93.1009 42.2937C92.9989 42.2186 92.8754 42.1595 92.7144 42.1166C92.5534 42.0737 92.4085 42.0468 92.269 42.0361C92.1295 42.0254 91.9738 42.02 91.7914 42.02C91.4103 42.02 91.0669 42.0307 90.761 42.0576L90.5892 42.0737V46.8769H93.4443V46.8822Z" fill="var(--fill-0, #27450E)"/>
<path id="Vector_16" d="M95.8433 41.4297C96.074 41.3867 96.3155 41.3653 96.5785 41.3653C96.8415 41.3653 97.083 41.3975 97.303 41.4565C97.5231 41.5155 97.7109 41.6014 97.8665 41.7087C98.0222 41.8161 98.1563 41.9395 98.2798 42.0844C98.4032 42.2293 98.4944 42.3796 98.5696 42.5352C98.6447 42.6908 98.7037 42.8518 98.752 43.0289C98.8379 43.3295 98.8755 43.6354 98.8755 43.9574V44.9824C98.8755 45.1703 98.8594 45.3688 98.8218 45.5889C98.7842 45.8089 98.7413 45.9914 98.6876 46.147C98.634 46.3026 98.5481 46.469 98.43 46.6568C98.312 46.8447 98.1778 47.0003 98.0168 47.1291C97.8558 47.2579 97.6519 47.3652 97.3996 47.4511C97.1474 47.537 96.8737 47.5853 96.5892 47.5853C96.3048 47.5853 96.0579 47.5692 95.8379 47.5423C95.6179 47.5155 95.4676 47.4833 95.3764 47.4511L95.2476 47.4082V46.7051C95.6554 46.8339 96.1009 46.9037 96.5892 46.9037C96.7771 46.9037 96.9488 46.8769 97.1045 46.8232C97.2601 46.7695 97.3889 46.6998 97.4855 46.6139C97.5821 46.528 97.6787 46.4261 97.7538 46.308C97.829 46.1899 97.8934 46.0665 97.9309 45.9538C97.9685 45.8411 98.0061 45.7177 98.0275 45.5835C98.0705 45.3849 98.0866 45.181 98.0866 44.9663V44.0486C98.0866 43.6515 98.0436 43.3241 97.9578 43.0611C97.9202 42.9484 97.8612 42.825 97.786 42.6908C97.7109 42.5567 97.6197 42.4493 97.5177 42.3635C97.4157 42.2776 97.2816 42.2025 97.1206 42.1434C96.9596 42.0844 96.761 42.0522 96.5302 42.0522C96.2994 42.0522 96.074 42.0737 95.854 42.1112C95.634 42.1488 95.4783 42.1917 95.3817 42.2293L95.2422 42.2883V41.596C95.2744 41.5799 95.3281 41.5531 95.3925 41.5316C95.4569 41.5102 95.6071 41.4726 95.8325 41.4297H95.8433Z" fill="var(--fill-0, #27450E)"/>
<path id="Vector_17" d="M100.403 41.456H103.575V42.0571L102.765 45.1376L102.276 47.4775H101.493L101.981 45.1376L102.797 42.0571H99.625V40.2217H100.398V41.456H100.403Z" fill="var(--fill-0, #27450E)"/>
<path id="Vector_18" d="M107.901 41.9927C107.734 41.9927 107.541 42.0195 107.332 42.0785V41.4667C107.579 41.4023 107.858 41.3701 108.169 41.3701C109.141 41.3701 109.629 41.9068 109.629 42.9694V47.4882H108.99L108.899 46.4685H108.862C108.845 46.5061 108.808 46.5705 108.754 46.6671C108.695 46.7583 108.641 46.8442 108.582 46.914C108.523 46.9837 108.454 47.0588 108.362 47.1447C108.271 47.2306 108.18 47.3004 108.078 47.3648C107.976 47.4292 107.863 47.4775 107.734 47.5204C107.6 47.5633 107.466 47.5848 107.327 47.5848C107.031 47.5848 106.817 47.5633 106.672 47.5258L106.785 46.8173C106.913 46.8603 107.128 46.8764 107.423 46.8764C107.643 46.8764 107.874 46.7851 108.121 46.608C108.411 46.388 108.62 46.0928 108.749 45.7225C108.819 45.5079 108.856 45.2717 108.856 45.0195V43.0446C108.856 42.6689 108.776 42.3952 108.609 42.2342C108.459 42.0839 108.223 42.0034 107.906 42.0034L107.901 41.9927Z" fill="var(--fill-0, #27450E)"/>
<path id="Vector_19" d="M111.029 45.4484V41.461H111.802V44.6542L111.184 45.4484H111.023H111.029Z" fill="var(--fill-0, #27450E)"/>
<path id="Vector_20" d="M115.559 46.8813C116.192 46.8813 116.723 46.6506 117.142 46.1944C117.566 45.7382 117.818 45.0352 117.904 44.0906L118.14 41.4663H118.913L118.682 44.0906C118.65 44.4931 118.586 44.8527 118.489 45.1694C118.393 45.4806 118.291 45.7382 118.189 45.9368C118.087 46.1354 117.947 46.3339 117.781 46.5271C117.609 46.7257 117.421 46.8921 117.206 47.0262C116.992 47.1658 116.734 47.2731 116.428 47.359C116.122 47.4448 115.784 47.4878 115.419 47.4878H113.423L112.924 41.461H113.707L113.986 44.8259L114.609 44.622C115.087 44.4663 115.366 44.0316 115.435 43.3232L115.618 41.461H116.391L116.235 43.0441C116.214 43.2534 116.187 43.4466 116.149 43.6184C116.117 43.7901 116.058 43.9672 115.983 44.1497C115.902 44.3321 115.811 44.4932 115.698 44.6327C115.586 44.7722 115.441 44.8957 115.264 45.0084C115.081 45.1211 114.872 45.2123 114.636 45.2713L114.029 45.4323L114.153 46.8867H115.543L115.559 46.8813Z" fill="var(--fill-0, #27450E)"/>
<path id="Vector_21" d="M124.37 42.5347C124.445 42.7547 124.488 43.0016 124.488 43.2753V47.4774H123.715V43.2646C123.715 42.4327 123.157 42.0195 122.041 42.0195C121.547 42.0195 121.005 42.0356 120.409 42.0732L120.082 42.0893V41.4292C120.807 41.3809 121.472 41.3594 122.073 41.3594C122.674 41.3594 123.173 41.4506 123.56 41.6331C123.946 41.8156 124.22 42.1161 124.37 42.5347ZM120.86 47.4828H120.087V43.6402H120.86V47.4828Z" fill="var(--fill-0, #27450E)"/>
<path id="Vector_22" d="M126.313 41.456H129.485V42.0571L128.675 45.1376L128.186 47.4775H127.403L127.891 45.1376L128.707 42.0571H125.535V40.2217H126.308V41.456H126.313Z" fill="var(--fill-0, #27450E)"/>
<path id="Vector_23" d="M132.915 43.291C132.915 42.6792 132.808 42.0728 132.588 41.4717H133.361C133.388 41.5307 133.414 41.6166 133.452 41.7239C133.49 41.8313 133.538 42.0459 133.597 42.3626C133.656 42.6792 133.688 42.9905 133.688 43.2964V49.7901H132.915V43.2964V43.291Z" fill="var(--fill-0, #27450E)"/>
<path id="Vector_24" d="M135.095 45.4484V41.461H135.868V44.6542L135.251 45.4484H135.09H135.095Z" fill="var(--fill-0, #27450E)"/>
<path id="Vector_25" d="M137.004 41.435C137.503 41.3867 138.088 41.3653 138.753 41.3653C139.419 41.3653 139.918 41.5102 140.24 41.8C140.562 42.0898 140.723 42.5835 140.723 43.2758V46.8769H141.41V47.4779H137.004V46.8769H139.945V43.2651C139.945 42.7874 139.838 42.4601 139.623 42.283C139.408 42.1059 139.07 42.02 138.619 42.02C138.136 42.02 137.675 42.0361 137.24 42.0737L137.004 42.0898V41.4297V41.435Z" fill="var(--fill-0, #27450E)"/>
<path id="Vector_26" d="M143.156 47.4829H142.383V41.4561H143.156V47.4829Z" fill="var(--fill-0, #27450E)"/>
<path id="Vector_27" d="M144.1 41.3975C144.534 41.376 144.926 41.3653 145.27 41.3653C145.613 41.3653 145.903 41.3867 146.134 41.4297C146.364 41.4726 146.574 41.537 146.778 41.6336C146.976 41.7248 147.143 41.8483 147.282 41.9932C147.572 42.3098 147.717 42.7391 147.717 43.2812V47.4833H146.944V43.2704C146.944 42.4386 146.386 42.0254 145.27 42.0254C144.931 42.0254 144.545 42.0361 144.1 42.0576V41.3975Z" fill="var(--fill-0, #27450E)"/>
<path id="Vector_28" d="M149.532 41.456H152.704V42.0571L151.893 45.1376L151.405 47.4775H150.622L151.11 45.1376L151.926 42.0571H148.754V40.2217H149.527V41.456H149.532Z" fill="var(--fill-0, #27450E)"/>
<path id="Vector_29" d="M156.992 47.4829H156.219V41.4561H156.992V47.4829Z" fill="var(--fill-0, #27450E)"/>
<path id="Vector_30" d="M159.401 41.9927C159.234 41.9927 159.041 42.0195 158.832 42.0785V41.4667C159.079 41.4023 159.358 41.3701 159.669 41.3701C160.641 41.3701 161.129 41.9068 161.129 42.9694V46.0123C161.129 46.2646 161.113 46.5114 161.086 46.7583C161.059 47.0052 161.027 47.1877 160.995 47.3057L160.946 47.4828H158.172V46.8817H160.254C160.319 46.6456 160.345 46.3612 160.345 46.0123V43.0338C160.345 42.6581 160.265 42.3898 160.104 42.2234C159.954 42.0732 159.723 41.9927 159.401 41.9927Z" fill="var(--fill-0, #27450E)"/>
<path id="Vector_31" d="M162.635 47.5477C162.501 47.5477 162.34 47.5262 162.168 47.4833V46.8447C162.393 46.8769 162.522 46.893 162.544 46.893C162.989 46.893 163.209 46.63 163.209 46.0987V42.1166L162.549 42.1756V41.5155C163.418 41.4136 164.175 41.3653 164.83 41.3653C165.383 41.3653 165.85 41.4565 166.231 41.6336C166.628 41.8214 166.901 42.122 167.052 42.5406C167.132 42.7606 167.17 43.0075 167.17 43.2812V47.4833H166.392V43.2704C166.392 42.4386 165.833 42.0254 164.723 42.0254C164.588 42.0254 164.342 42.0361 163.987 42.0522V45.9914C163.987 46.4851 163.875 46.8661 163.649 47.1398C163.424 47.4135 163.086 47.5531 162.63 47.5531L162.635 47.5477Z" fill="var(--fill-0, #27450E)"/>
</g>
<path id="Vector_32" d="M36.2199 17.9409C32.4257 19.7656 28.6314 19.0411 28.6314 19.0411C28.6314 19.0411 35.533 16.8461 36.7942 12.9821C38.2486 8.5438 37.5777 4.86761 35.5706 0C32.4203 10.025 18.5581 11.1842 13.2504 17.2701C10.9105 19.9534 9.93378 23.7048 9.64398 25.1377C9.06974 24.0643 8.79604 22.7817 9.17708 21.3058C5.91949 25.4221 3.52056 29.2217 1.91055 38.8657C10.8837 23.4901 19.771 21.2522 27.0321 14.0393C22.8354 18.6762 18.1449 22.3148 12.9606 27.4615C7.80857 32.6725 2.10375 41.0178 0 47.4847C1.51878 45.1662 3.71913 42.6922 6.72449 40.0571C9.73521 37.4221 15.703 41.7745 24.5098 35.1895C20.1413 36.8103 16.7978 36.1877 14.4579 35.7584C24.5098 35.1895 34.991 28.5026 36.2038 17.9409H36.2199Z" fill="var(--fill-0, #E27600)"/>
</g>
</svg>
